<svg xmlns="http://www.w3.org/2000/svg" xmlns:xlink="http://www.w3.org/1999/xlink" width="500" zoomAndPan="magnify" viewBox="0 0 375 374.999991" height="500" preserveAspectRatio="xMidYMid meet" version="1.0"><defs><clipPath id="3e7a708b1f"><path d="M 108.757812 108.757812 L 266.257812 108.757812 L 266.257812 266.257812 L 108.757812 266.257812 Z M 108.757812 108.757812 " clip-rule="nonzero"/></clipPath><clipPath id="04b42fb47f"><path d="M 156 154.207031 L 219 154.207031 L 219 220.957031 L 156 220.957031 Z M 156 154.207031 " clip-rule="nonzero"/></clipPath><clipPath id="c3982d3af1"><path d="M 171 182 L 204 182 L 204 220.957031 L 171 220.957031 Z M 171 182 " clip-rule="nonzero"/></clipPath><clipPath id="5b02dd154a"><path d="M 180 209 L 195 209 L 195 220.957031 L 180 220.957031 Z M 180 209 " clip-rule="nonzero"/></clipPath><clipPath id="ecf7516d9a"><path d="M 167 218 L 170 218 L 170 220.957031 L 167 220.957031 Z M 167 218 " clip-rule="nonzero"/></clipPath><clipPath id="6f2f8e0d4c"><path d="M 159 206 L 162 206 L 162 220.957031 L 159 220.957031 Z M 159 206 " clip-rule="nonzero"/></clipPath><clipPath id="de00755479"><path d="M 163 200 L 166 200 L 166 220.957031 L 163 220.957031 Z M 163 200 " clip-rule="nonzero"/></clipPath><clipPath id="54de7e3527"><path d="M 155.246094 213 L 158 213 L 158 220.957031 L 155.246094 220.957031 Z M 155.246094 213 " clip-rule="nonzero"/></clipPath><clipPath id="bdd84a186d"><path d="M 213 206 L 216 206 L 216 220.957031 L 213 220.957031 Z M 213 206 " clip-rule="nonzero"/></clipPath><clipPath id="7db9bc2157"><path d="M 209 200 L 212 200 L 212 220.957031 L 209 220.957031 Z M 209 200 " clip-rule="nonzero"/></clipPath><clipPath id="a0512073a4"><path d="M 217 213 L 219.746094 213 L 219.746094 220.957031 L 217 220.957031 Z M 217 213 " clip-rule="nonzero"/></clipPath></defs><path fill="#282626" d="M 187.503906 237.347656 C 180.777344 237.347656 174.25 236.027344 168.105469 233.429688 C 162.167969 230.917969 156.839844 227.324219 152.261719 222.746094 C 147.683594 218.171875 144.089844 212.839844 141.582031 206.90625 C 138.980469 200.761719 137.664062 194.234375 137.664062 187.503906 C 137.664062 180.777344 138.980469 174.25 141.582031 168.101562 C 144.089844 162.167969 147.683594 156.839844 152.261719 152.261719 C 156.839844 147.683594 162.167969 144.089844 168.105469 141.578125 C 174.25 138.980469 180.777344 137.664062 187.503906 137.664062 C 194.234375 137.664062 200.761719 138.980469 206.90625 141.578125 C 212.839844 144.089844 218.171875 147.683594 222.75 152.261719 C 227.324219 156.839844 230.917969 162.167969 233.429688 168.101562 C 236.027344 174.25 237.347656 180.777344 237.347656 187.503906 C 237.347656 194.234375 236.027344 200.761719 233.429688 206.90625 C 230.917969 212.839844 227.324219 218.171875 222.75 222.746094 C 218.171875 227.324219 212.839844 230.917969 206.90625 233.429688 C 200.761719 236.027344 194.234375 237.347656 187.503906 237.347656 Z M 187.503906 140.25 C 161.449219 140.25 140.25 161.449219 140.25 187.503906 C 140.25 213.558594 161.449219 234.757812 187.503906 234.757812 C 213.5625 234.757812 234.757812 213.558594 234.757812 187.503906 C 234.757812 161.449219 213.558594 140.25 187.503906 140.25 Z M 187.503906 140.25 " fill-opacity="1" fill-rule="nonzero"/><g clip-path="url(#3e7a708b1f)"><path fill="#282626" d="M 187.503906 266.253906 C 176.875 266.253906 166.5625 264.171875 156.851562 260.066406 C 147.472656 256.097656 139.054688 250.421875 131.820312 243.1875 C 124.589844 235.957031 118.910156 227.535156 114.945312 218.15625 C 110.839844 208.449219 108.757812 198.136719 108.757812 187.503906 C 108.757812 176.875 110.839844 166.5625 114.945312 156.851562 C 118.910156 147.472656 124.589844 139.054688 131.820312 131.820312 C 139.054688 124.589844 147.476562 118.910156 156.851562 114.945312 C 166.5625 110.839844 176.875 108.757812 187.503906 108.757812 C 198.136719 108.757812 208.449219 110.839844 218.15625 114.945312 C 227.535156 118.910156 235.957031 124.589844 243.1875 131.820312 C 250.421875 139.054688 256.097656 147.476562 260.066406 156.851562 C 264.171875 166.5625 266.253906 176.875 266.253906 187.507812 C 266.253906 198.136719 264.171875 208.449219 260.066406 218.160156 C 256.097656 227.535156 250.421875 235.957031 243.1875 243.191406 C 235.957031 250.421875 227.535156 256.101562 218.15625 260.066406 C 208.449219 264.171875 198.136719 266.257812 187.503906 266.257812 Z M 187.503906 111.34375 C 145.507812 111.34375 111.34375 145.507812 111.34375 187.503906 C 111.34375 229.5 145.507812 263.667969 187.503906 263.667969 C 229.5 263.667969 263.667969 229.5 263.667969 187.503906 C 263.667969 145.507812 229.5 111.34375 187.503906 111.34375 Z M 187.503906 111.34375 " fill-opacity="1" fill-rule="nonzero"/></g><path fill="#282626" d="M 172.390625 137.257812 C 171.898438 137.257812 171.445312 136.941406 171.300781 136.445312 L 166.953125 121.871094 C 166.773438 121.269531 167.117188 120.636719 167.71875 120.457031 C 168.324219 120.277344 168.957031 120.617188 169.136719 121.222656 L 173.484375 135.796875 C 173.660156 136.398438 173.320312 137.03125 172.71875 137.210938 C 172.609375 137.246094 172.5 137.257812 172.390625 137.257812 Z M 172.390625 137.257812 " fill-opacity="1" fill-rule="nonzero"/><path fill="#282626" d="M 179.484375 135.707031 C 179.121094 135.707031 178.761719 135.535156 178.542969 135.210938 C 177.808594 134.136719 177.007812 133.039062 176.082031 131.847656 L 175.761719 131.433594 L 175.433594 131.023438 C 175.21875 130.757812 174.996094 130.484375 174.769531 130.210938 C 174.546875 129.9375 174.316406 129.664062 174.089844 129.394531 L 173.746094 128.992188 L 173.394531 128.59375 C 172.929688 128.066406 172.449219 127.535156 171.964844 127.011719 L 171.597656 126.617188 L 171.230469 126.230469 C 170.984375 125.976562 170.730469 125.71875 170.480469 125.464844 C 170.226562 125.207031 169.96875 124.949219 169.710938 124.695312 L 169.324219 124.316406 L 168.933594 123.941406 C 168.414062 123.449219 167.875 122.949219 167.335938 122.457031 C 166.867188 122.035156 166.832031 121.316406 167.253906 120.851562 C 167.675781 120.382812 168.394531 120.347656 168.859375 120.769531 C 169.417969 121.273438 169.96875 121.785156 170.503906 122.292969 L 170.90625 122.675781 C 170.90625 122.675781 170.910156 122.683594 170.914062 122.6875 L 171.308594 123.074219 C 171.574219 123.335938 171.839844 123.597656 172.097656 123.863281 C 172.355469 124.121094 172.617188 124.390625 172.871094 124.65625 L 173.25 125.050781 C 173.25 125.050781 173.253906 125.054688 173.257812 125.058594 L 173.628906 125.460938 C 174.132812 126 174.625 126.546875 175.105469 127.089844 L 175.460938 127.496094 C 175.460938 127.496094 175.46875 127.503906 175.46875 127.507812 L 175.820312 127.917969 C 176.058594 128.199219 176.292969 128.480469 176.523438 128.757812 C 176.757812 129.039062 176.984375 129.324219 177.207031 129.597656 L 177.542969 130.015625 C 177.542969 130.015625 177.546875 130.023438 177.550781 130.027344 L 177.878906 130.449219 C 178.832031 131.679688 179.660156 132.816406 180.417969 133.925781 C 180.773438 134.445312 180.640625 135.152344 180.121094 135.507812 C 179.925781 135.640625 179.703125 135.707031 179.480469 135.707031 Z M 179.484375 135.707031 " fill-opacity="1" fill-rule="nonzero"/><path fill="#282626" d="M 179.472656 135.65625 C 178.921875 135.65625 178.4375 135.257812 178.351562 134.695312 L 175.988281 119.671875 C 175.890625 119.050781 176.316406 118.46875 176.9375 118.371094 C 177.558594 118.273438 178.140625 118.699219 178.238281 119.320312 L 180.601562 134.34375 C 180.699219 134.964844 180.273438 135.546875 179.652344 135.644531 C 179.589844 135.652344 179.53125 135.65625 179.472656 135.65625 Z M 179.472656 135.65625 " fill-opacity="1" fill-rule="nonzero"/><path fill="#282626" d="M 172.40625 137.308594 C 172.347656 137.308594 172.289062 137.304688 172.230469 137.292969 C 171.609375 137.195312 171.183594 136.613281 171.28125 135.992188 C 172.167969 130.3125 173.769531 124.644531 176.039062 119.144531 C 176.28125 118.5625 176.945312 118.289062 177.527344 118.527344 C 178.109375 118.765625 178.386719 119.433594 178.144531 120.015625 C 175.941406 125.347656 174.390625 130.839844 173.53125 136.34375 C 173.441406 136.90625 172.960938 137.308594 172.40625 137.308594 Z M 172.40625 137.308594 " fill-opacity="1" fill-rule="nonzero"/><path fill="#282626" d="M 140.453125 163.945312 C 140.273438 163.945312 140.09375 163.90625 139.925781 163.816406 L 125.988281 156.488281 C 125.429688 156.195312 125.214844 155.503906 125.507812 154.949219 C 125.800781 154.390625 126.492188 154.179688 127.046875 154.472656 L 140.984375 161.800781 C 141.539062 162.09375 141.753906 162.78125 141.460938 163.339844 C 141.257812 163.726562 140.863281 163.945312 140.453125 163.945312 Z M 140.453125 163.945312 " fill-opacity="1" fill-rule="nonzero"/><path fill="#282626" d="M 126.515625 156.617188 C 126.109375 156.617188 125.710938 156.398438 125.507812 156.007812 C 125.214844 155.453125 125.429688 154.765625 125.988281 154.472656 C 128.417969 153.199219 130.925781 152.082031 133.445312 151.15625 C 134.035156 150.9375 134.6875 151.238281 134.90625 151.828125 C 135.125 152.417969 134.820312 153.074219 134.230469 153.289062 C 131.804688 154.183594 129.386719 155.261719 127.046875 156.488281 C 126.878906 156.578125 126.695312 156.617188 126.519531 156.617188 Z M 126.515625 156.617188 " fill-opacity="1" fill-rule="nonzero"/><path fill="#282626" d="M 118.941406 195.859375 C 118.367188 195.859375 117.871094 195.421875 117.808594 194.835938 C 117.746094 194.210938 118.199219 193.652344 118.828125 193.589844 L 134.488281 191.976562 C 135.117188 191.914062 135.675781 192.367188 135.738281 192.992188 C 135.804688 193.617188 135.347656 194.179688 134.722656 194.242188 L 119.058594 195.851562 C 119.019531 195.859375 118.980469 195.859375 118.941406 195.859375 Z M 118.941406 195.859375 " fill-opacity="1" fill-rule="nonzero"/><path fill="#282626" d="M 118.941406 195.859375 C 118.734375 195.859375 118.523438 195.800781 118.332031 195.683594 C 117.800781 195.347656 117.644531 194.644531 117.980469 194.113281 C 118.554688 193.207031 119.15625 192.34375 119.777344 191.460938 C 119.777344 191.457031 119.78125 191.453125 119.785156 191.449219 C 120.121094 190.980469 120.460938 190.523438 120.71875 190.179688 L 120.785156 190.089844 C 120.921875 189.910156 121.058594 189.730469 121.195312 189.550781 C 121.199219 189.546875 121.199219 189.542969 121.203125 189.539062 L 121.683594 188.933594 C 122.070312 188.441406 122.789062 188.359375 123.28125 188.746094 C 123.773438 189.136719 123.859375 189.855469 123.46875 190.347656 L 122.992188 190.949219 C 122.863281 191.117188 122.734375 191.289062 122.605469 191.460938 L 122.542969 191.542969 C 122.292969 191.878906 121.960938 192.320312 121.632812 192.773438 C 121.03125 193.632812 120.449219 194.472656 119.902344 195.332031 C 119.6875 195.671875 119.316406 195.859375 118.941406 195.859375 Z M 118.941406 195.859375 " fill-opacity="1" fill-rule="nonzero"/><path fill="#282626" d="M 134.363281 186.644531 C 134.347656 186.644531 134.332031 186.644531 134.316406 186.640625 L 118.582031 186.023438 C 117.957031 186 117.464844 185.46875 117.492188 184.839844 C 117.515625 184.214844 118.042969 183.722656 118.671875 183.75 L 134.40625 184.367188 C 135.035156 184.390625 135.523438 184.921875 135.5 185.550781 C 135.476562 186.164062 134.972656 186.644531 134.363281 186.644531 Z M 134.363281 186.644531 " fill-opacity="1" fill-rule="nonzero"/><path fill="#282626" d="M 122.578125 190.867188 C 122.265625 190.867188 121.957031 190.742188 121.730469 190.488281 C 121.417969 190.140625 121.050781 189.730469 120.695312 189.316406 C 120.691406 189.316406 120.6875 189.3125 120.6875 189.308594 C 120.351562 188.910156 120.011719 188.503906 119.679688 188.101562 C 119.335938 187.6875 119.003906 187.261719 118.683594 186.847656 L 117.957031 185.894531 C 117.949219 185.890625 117.949219 185.882812 117.941406 185.878906 L 117.710938 185.558594 C 117.339844 185.050781 117.449219 184.339844 117.957031 183.96875 C 118.464844 183.597656 119.175781 183.707031 119.546875 184.214844 L 119.773438 184.527344 L 120.011719 184.835938 L 120.488281 185.457031 C 120.808594 185.871094 121.109375 186.261719 121.433594 186.652344 C 121.761719 187.050781 122.09375 187.445312 122.421875 187.832031 C 122.761719 188.230469 123.105469 188.613281 123.425781 188.96875 C 123.847656 189.4375 123.808594 190.15625 123.339844 190.578125 C 123.121094 190.773438 122.851562 190.871094 122.578125 190.871094 Z M 122.578125 190.867188 " fill-opacity="1" fill-rule="nonzero"/><path fill="#282626" d="M 135.285156 178.664062 C 135.214844 178.664062 135.140625 178.65625 135.070312 178.644531 L 119.609375 175.660156 C 118.992188 175.539062 118.585938 174.941406 118.707031 174.324219 C 118.824219 173.707031 119.421875 173.304688 120.039062 173.421875 L 135.5 176.410156 C 136.117188 176.527344 136.519531 177.125 136.402344 177.742188 C 136.296875 178.285156 135.820312 178.664062 135.285156 178.664062 Z M 135.285156 178.664062 " fill-opacity="1" fill-rule="nonzero"/><path fill="#282626" d="M 119.824219 175.679688 C 119.492188 175.679688 119.164062 175.535156 118.9375 175.253906 C 118.542969 174.765625 118.621094 174.050781 119.109375 173.65625 C 119.519531 173.324219 119.933594 172.996094 120.347656 172.671875 C 120.351562 172.671875 120.351562 172.667969 120.355469 172.664062 C 120.722656 172.386719 121.121094 172.085938 121.613281 171.722656 L 121.714844 171.648438 C 121.894531 171.515625 122.070312 171.386719 122.25 171.261719 C 122.25 171.257812 122.253906 171.257812 122.257812 171.253906 L 123.007812 170.734375 C 123.386719 170.472656 123.777344 170.203125 124.175781 169.941406 C 124.605469 169.660156 125.039062 169.382812 125.464844 169.117188 L 125.785156 168.917969 C 125.789062 168.914062 125.792969 168.910156 125.800781 168.90625 L 126.125 168.714844 L 126.773438 168.328125 C 127.648438 167.804688 128.554688 167.320312 129.402344 166.867188 C 129.957031 166.574219 130.644531 166.785156 130.941406 167.339844 C 131.234375 167.898438 131.023438 168.585938 130.46875 168.882812 C 129.644531 169.316406 128.769531 169.789062 127.9375 170.285156 L 126.984375 170.855469 L 126.675781 171.046875 C 126.261719 171.304688 125.839844 171.578125 125.417969 171.847656 C 125.046875 172.09375 124.683594 172.34375 124.296875 172.609375 L 124.183594 172.6875 L 123.566406 173.117188 C 123.398438 173.238281 123.230469 173.359375 123.0625 173.484375 L 122.960938 173.558594 C 122.484375 173.910156 122.097656 174.199219 121.742188 174.46875 C 121.339844 174.785156 120.9375 175.105469 120.539062 175.425781 C 120.328125 175.597656 120.074219 175.679688 119.824219 175.679688 Z M 119.824219 175.679688 " fill-opacity="1" fill-rule="nonzero"/><path fill="#282626" d="M 137.253906 171.324219 C 137.128906 171.324219 137.003906 171.304688 136.878906 171.261719 L 122.003906 166.101562 C 121.410156 165.894531 121.09375 165.246094 121.300781 164.652344 C 121.507812 164.058594 122.15625 163.746094 122.75 163.949219 L 137.625 169.109375 C 138.21875 169.316406 138.535156 169.964844 138.328125 170.558594 C 138.167969 171.027344 137.726562 171.324219 137.253906 171.324219 Z M 137.253906 171.324219 " fill-opacity="1" fill-rule="nonzero"/><path fill="#282626" d="M 127.875 177.117188 C 127.5 177.117188 127.132812 176.929688 126.914062 176.589844 C 126.667969 176.203125 126.386719 175.753906 126.113281 175.304688 C 125.851562 174.867188 125.59375 174.425781 125.34375 173.988281 C 125.097656 173.570312 124.871094 173.140625 124.648438 172.730469 L 124.515625 172.476562 C 124.300781 172.074219 124.078125 171.660156 123.871094 171.238281 C 123.648438 170.785156 123.417969 170.3125 123.191406 169.84375 C 122.96875 169.367188 122.753906 168.890625 122.535156 168.402344 L 122.21875 167.675781 C 122.214844 167.667969 122.210938 167.664062 122.210938 167.65625 L 121.859375 166.808594 C 121.679688 166.359375 121.488281 165.894531 121.3125 165.429688 C 121.089844 164.839844 121.386719 164.183594 121.972656 163.960938 C 122.5625 163.738281 123.21875 164.03125 123.441406 164.621094 C 123.609375 165.0625 123.792969 165.515625 123.96875 165.949219 L 124.019531 166.066406 L 124.308594 166.773438 L 124.621094 167.480469 C 124.839844 167.96875 125.039062 168.414062 125.25 168.867188 C 125.464844 169.320312 125.691406 169.78125 125.914062 170.230469 C 126.109375 170.621094 126.320312 171.019531 126.527344 171.40625 L 126.65625 171.648438 C 126.878906 172.0625 127.089844 172.457031 127.316406 172.847656 C 127.566406 173.28125 127.816406 173.710938 128.066406 174.128906 C 128.324219 174.554688 128.597656 174.992188 128.839844 175.367188 C 129.175781 175.898438 129.019531 176.601562 128.488281 176.9375 C 128.296875 177.058594 128.085938 177.117188 127.878906 177.117188 Z M 127.875 177.117188 " fill-opacity="1" fill-rule="nonzero"/><path fill="#282626" d="M 242.089844 189.964844 C 241.632812 189.964844 241.203125 189.6875 241.027344 189.234375 C 240.800781 188.648438 241.09375 187.992188 241.679688 187.765625 C 246.425781 185.9375 251.085938 183.589844 255.527344 180.789062 C 256.058594 180.453125 256.761719 180.609375 257.097656 181.144531 C 257.433594 181.675781 257.273438 182.378906 256.742188 182.714844 C 252.175781 185.597656 247.382812 188.011719 242.5 189.890625 C 242.363281 189.941406 242.226562 189.964844 242.089844 189.964844 Z M 242.089844 189.964844 " fill-opacity="1" fill-rule="nonzero"/><path fill="#282626" d="M 256.382812 190.25 C 256.199219 190.25 256.011719 190.207031 255.839844 190.113281 C 251.25 187.628906 246.445312 185.601562 241.558594 184.085938 C 240.957031 183.898438 240.621094 183.261719 240.804688 182.660156 C 240.992188 182.058594 241.628906 181.722656 242.230469 181.910156 C 247.261719 183.46875 252.203125 185.554688 256.925781 188.109375 C 257.476562 188.410156 257.683594 189.101562 257.382812 189.652344 C 257.179688 190.03125 256.785156 190.25 256.382812 190.25 Z M 256.382812 190.25 " fill-opacity="1" fill-rule="nonzero"/><path fill="#282626" d="M 256.117188 200.628906 C 256.050781 200.628906 255.988281 200.625 255.921875 200.613281 L 240.40625 197.929688 C 239.785156 197.824219 239.371094 197.234375 239.476562 196.613281 C 239.585938 195.996094 240.171875 195.578125 240.792969 195.6875 L 256.308594 198.367188 C 256.929688 198.476562 257.34375 199.0625 257.238281 199.683594 C 257.140625 200.238281 256.660156 200.628906 256.117188 200.628906 Z M 256.117188 200.628906 " fill-opacity="1" fill-rule="nonzero"/><path fill="#282626" d="M 251.648438 204.769531 C 251.320312 204.769531 250.996094 204.628906 250.769531 204.355469 C 250.371094 203.871094 250.4375 203.152344 250.921875 202.753906 C 251.679688 202.128906 252.40625 201.472656 253.144531 200.800781 C 253.808594 200.171875 254.578125 199.441406 255.296875 198.699219 C 255.734375 198.246094 256.453125 198.234375 256.90625 198.671875 C 257.359375 199.109375 257.371094 199.828125 256.933594 200.28125 C 256.179688 201.0625 255.382812 201.816406 254.699219 202.464844 C 254.695312 202.46875 254.6875 202.472656 254.683594 202.476562 C 253.921875 203.171875 253.171875 203.847656 252.375 204.507812 C 252.160156 204.683594 251.902344 204.769531 251.648438 204.769531 Z M 251.648438 204.769531 " fill-opacity="1" fill-rule="nonzero"/><path fill="#282626" d="M 251.5 204.730469 C 251.046875 204.730469 250.617188 204.460938 250.441406 204.011719 C 250.082031 203.109375 249.675781 202.203125 249.292969 201.351562 C 248.90625 200.53125 248.484375 199.660156 248.027344 198.800781 C 247.730469 198.246094 247.941406 197.558594 248.496094 197.261719 C 249.050781 196.964844 249.738281 197.175781 250.035156 197.730469 C 250.519531 198.632812 250.953125 199.539062 251.355469 200.386719 C 251.355469 200.394531 251.359375 200.398438 251.363281 200.40625 C 251.757812 201.285156 252.179688 202.21875 252.554688 203.171875 C 252.789062 203.757812 252.5 204.417969 251.917969 204.652344 C 251.777344 204.703125 251.636719 204.730469 251.496094 204.730469 Z M 251.5 204.730469 " fill-opacity="1" fill-rule="nonzero"/><path fill="#282626" d="M 161.855469 252.667969 C 161.445312 252.667969 161.050781 252.445312 160.84375 252.058594 C 160.621094 251.625 160.394531 251.1875 160.179688 250.757812 C 160.175781 250.753906 160.175781 250.75 160.171875 250.746094 C 159.972656 250.335938 159.765625 249.90625 159.542969 249.433594 L 159.242188 248.785156 C 159.238281 248.777344 159.234375 248.769531 159.230469 248.765625 L 158.941406 248.113281 C 158.75 247.675781 158.5625 247.234375 158.378906 246.796875 C 158.132812 246.21875 158.40625 245.550781 158.984375 245.304688 C 159.566406 245.0625 160.234375 245.335938 160.476562 245.914062 C 160.65625 246.339844 160.839844 246.769531 161.027344 247.195312 L 161.308594 247.832031 L 161.605469 248.46875 C 161.816406 248.921875 162.019531 249.339844 162.214844 249.738281 C 162.425781 250.160156 162.644531 250.582031 162.863281 251.003906 C 163.15625 251.558594 162.9375 252.25 162.378906 252.539062 C 162.210938 252.625 162.03125 252.667969 161.855469 252.667969 Z M 161.855469 252.667969 " fill-opacity="1" fill-rule="nonzero"/><path fill="#282626" d="M 153.675781 248.683594 C 153.140625 248.683594 152.660156 248.304688 152.558594 247.753906 C 152.441406 247.136719 152.851562 246.542969 153.46875 246.425781 C 153.9375 246.339844 154.410156 246.246094 154.875 246.15625 C 155.105469 246.109375 155.335938 246.058594 155.554688 246.011719 L 156.25 245.851562 C 157.179688 245.644531 158.097656 245.402344 158.949219 245.167969 C 159.554688 245.003906 160.183594 245.359375 160.347656 245.964844 C 160.511719 246.574219 160.15625 247.199219 159.550781 247.363281 C 158.667969 247.605469 157.71875 247.859375 156.75 248.074219 L 156.050781 248.234375 C 155.816406 248.285156 155.570312 248.339844 155.316406 248.390625 C 154.847656 248.484375 154.367188 248.578125 153.886719 248.667969 C 153.816406 248.679688 153.746094 248.6875 153.675781 248.6875 Z M 153.675781 248.683594 " fill-opacity="1" fill-rule="nonzero"/><path fill="#282626" d="M 157.410156 251.039062 C 157.242188 251.039062 157.070312 251.003906 156.910156 250.925781 C 156.34375 250.648438 156.109375 249.964844 156.386719 249.402344 L 163.316406 235.261719 C 163.59375 234.695312 164.277344 234.464844 164.839844 234.742188 C 165.40625 235.015625 165.640625 235.699219 165.363281 236.261719 L 158.433594 250.402344 C 158.234375 250.808594 157.832031 251.039062 157.410156 251.039062 Z M 157.410156 251.039062 " fill-opacity="1" fill-rule="nonzero"/><path fill="#282626" d="M 199.328125 257.195312 C 198.78125 257.195312 198.300781 256.800781 198.207031 256.246094 L 195.605469 240.714844 C 195.503906 240.09375 195.921875 239.507812 196.542969 239.402344 C 197.160156 239.300781 197.75 239.71875 197.851562 240.339844 L 200.453125 255.867188 C 200.558594 256.488281 200.140625 257.074219 199.519531 257.179688 C 199.453125 257.1875 199.390625 257.195312 199.328125 257.195312 Z M 199.328125 257.195312 " fill-opacity="1" fill-rule="nonzero"/><path fill="#282626" d="M 199.328125 257.195312 C 199.167969 257.195312 199.003906 257.160156 198.847656 257.085938 C 196.757812 256.105469 194.691406 254.996094 192.703125 253.789062 C 192.164062 253.464844 191.992188 252.765625 192.320312 252.226562 C 192.644531 251.6875 193.347656 251.519531 193.882812 251.84375 C 195.800781 253.011719 197.796875 254.082031 199.8125 255.027344 C 200.382812 255.292969 200.628906 255.972656 200.363281 256.539062 C 200.167969 256.953125 199.757812 257.195312 199.328125 257.195312 Z M 199.328125 257.195312 " fill-opacity="1" fill-rule="nonzero"/><path fill="#282626" d="M 202.03125 244.457031 C 201.867188 244.457031 201.699219 244.421875 201.539062 244.34375 C 199.667969 243.449219 197.839844 242.441406 196.101562 241.351562 C 195.570312 241.019531 195.40625 240.316406 195.742188 239.78125 C 196.074219 239.25 196.777344 239.089844 197.3125 239.421875 C 198.976562 240.464844 200.730469 241.433594 202.523438 242.289062 C 203.089844 242.5625 203.332031 243.242188 203.058594 243.808594 C 202.863281 244.21875 202.457031 244.457031 202.03125 244.457031 Z M 202.03125 244.457031 " fill-opacity="1" fill-rule="nonzero"/><path fill="#282626" d="M 183.234375 257.652344 C 182.949219 257.652344 182.664062 257.546875 182.441406 257.332031 C 180.648438 255.597656 178.945312 253.734375 177.375 251.792969 C 176.980469 251.304688 177.054688 250.585938 177.546875 250.191406 C 178.035156 249.796875 178.75 249.871094 179.144531 250.363281 C 180.65625 252.234375 182.300781 254.027344 184.027344 255.695312 C 184.476562 256.132812 184.488281 256.855469 184.050781 257.308594 C 183.828125 257.539062 183.53125 257.652344 183.234375 257.652344 Z M 183.234375 257.652344 " fill-opacity="1" fill-rule="nonzero"/><path fill="#282626" d="M 171.703125 255.898438 C 171.289062 255.898438 170.886719 255.667969 170.6875 255.273438 C 170.402344 254.710938 170.628906 254.027344 171.1875 253.742188 C 173.359375 252.644531 175.460938 251.417969 177.4375 250.101562 C 177.960938 249.753906 178.667969 249.894531 179.015625 250.417969 C 179.367188 250.941406 179.222656 251.648438 178.699219 251.996094 C 176.648438 253.363281 174.464844 254.636719 172.214844 255.773438 C 172.050781 255.859375 171.875 255.898438 171.703125 255.898438 Z M 171.703125 255.898438 " fill-opacity="1" fill-rule="nonzero"/><path fill="#282626" d="M 179.113281 246.585938 C 178.757812 246.585938 178.40625 246.417969 178.183594 246.105469 C 177.820312 245.59375 177.9375 244.882812 178.453125 244.519531 C 180.242188 243.242188 181.929688 241.878906 183.46875 240.457031 C 183.929688 240.027344 184.652344 240.058594 185.078125 240.519531 C 185.503906 240.980469 185.476562 241.703125 185.015625 242.128906 C 183.40625 243.617188 181.640625 245.042969 179.769531 246.375 C 179.570312 246.515625 179.339844 246.585938 179.109375 246.585938 Z M 179.113281 246.585938 " fill-opacity="1" fill-rule="nonzero"/><path fill="#282626" d="M 178.9375 246.558594 C 178.59375 246.558594 178.253906 246.402344 178.03125 246.109375 C 176.660156 244.304688 175.402344 242.417969 174.289062 240.5 C 173.976562 239.957031 174.160156 239.257812 174.707031 238.945312 C 175.25 238.628906 175.945312 238.8125 176.261719 239.359375 C 177.324219 241.195312 178.53125 243.003906 179.84375 244.734375 C 180.226562 245.234375 180.128906 245.949219 179.625 246.328125 C 179.421875 246.484375 179.179688 246.558594 178.9375 246.558594 Z M 178.9375 246.558594 " fill-opacity="1" fill-rule="nonzero"/><path fill="#282626" d="M 183.230469 257.730469 C 183.207031 257.730469 183.179688 257.730469 183.15625 257.726562 C 182.527344 257.683594 182.054688 257.144531 182.09375 256.515625 L 183.105469 241.246094 C 183.144531 240.621094 183.6875 240.144531 184.316406 240.183594 C 184.941406 240.226562 185.417969 240.769531 185.375 241.394531 L 184.367188 256.664062 C 184.328125 257.269531 183.828125 257.730469 183.230469 257.730469 Z M 183.230469 257.730469 " fill-opacity="1" fill-rule="nonzero"/><path fill="#282626" d="M 150.023438 236.421875 C 149.8125 236.421875 149.601562 236.363281 149.414062 236.242188 C 147.457031 235.003906 145.542969 233.636719 143.730469 232.1875 C 143.242188 231.792969 143.160156 231.078125 143.554688 230.585938 C 143.949219 230.097656 144.664062 230.015625 145.15625 230.410156 C 146.902344 231.808594 148.746094 233.125 150.632812 234.320312 C 151.164062 234.660156 151.320312 235.363281 150.984375 235.894531 C 150.769531 236.234375 150.398438 236.421875 150.023438 236.421875 Z M 150.023438 236.421875 " fill-opacity="1" fill-rule="nonzero"/><path fill="#282626" d="M 140.648438 239.113281 C 140.113281 239.113281 139.636719 238.738281 139.53125 238.191406 C 139.410156 237.574219 139.8125 236.980469 140.429688 236.859375 C 143.621094 236.238281 146.742188 235.402344 149.707031 234.375 C 150.300781 234.167969 150.953125 234.484375 151.15625 235.078125 C 151.363281 235.671875 151.050781 236.320312 150.453125 236.527344 C 147.386719 237.589844 144.160156 238.457031 140.863281 239.09375 C 140.792969 239.109375 140.71875 239.117188 140.648438 239.117188 Z M 140.648438 239.113281 " fill-opacity="1" fill-rule="nonzero"/><path fill="#282626" d="M 144.382812 232.375 C 143.828125 232.375 143.34375 231.972656 143.257812 231.40625 C 143.164062 230.785156 143.589844 230.207031 144.214844 230.113281 C 147.289062 229.648438 150.3125 228.953125 153.203125 228.046875 C 153.800781 227.859375 154.441406 228.191406 154.628906 228.792969 C 154.816406 229.390625 154.484375 230.03125 153.886719 230.21875 C 150.882812 231.160156 147.742188 231.882812 144.550781 232.363281 C 144.496094 232.371094 144.4375 232.375 144.382812 232.375 Z M 144.382812 232.375 " fill-opacity="1" fill-rule="nonzero"/><path fill="#282626" d="M 142.15625 147.824219 C 141.582031 147.824219 141.089844 147.390625 141.027344 146.808594 C 140.65625 143.421875 140.566406 139.960938 140.757812 136.519531 C 140.789062 135.894531 141.328125 135.410156 141.957031 135.449219 C 142.582031 135.480469 143.0625 136.019531 143.03125 136.648438 C 142.847656 139.964844 142.933594 143.300781 143.289062 146.5625 C 143.359375 147.1875 142.90625 147.75 142.28125 147.816406 C 142.238281 147.820312 142.199219 147.824219 142.15625 147.824219 Z M 142.15625 147.824219 " fill-opacity="1" fill-rule="nonzero"/><path fill="#282626" d="M 151.691406 148.597656 C 151.628906 148.597656 151.5625 148.59375 151.5 148.582031 C 148.503906 148.070312 145.371094 147.8125 142.183594 147.8125 C 142.171875 147.8125 142.152344 147.8125 142.140625 147.8125 C 141.511719 147.8125 141.003906 147.300781 141.003906 146.671875 C 141.003906 146.042969 141.511719 145.535156 142.140625 145.535156 L 142.183594 145.535156 C 145.5 145.535156 148.761719 145.804688 151.882812 146.335938 C 152.503906 146.445312 152.917969 147.03125 152.8125 147.652344 C 152.71875 148.207031 152.238281 148.597656 151.691406 148.597656 Z M 151.691406 148.597656 " fill-opacity="1" fill-rule="nonzero"/><path fill="#282626" d="M 147.335938 142.695312 C 147.289062 142.695312 147.246094 142.691406 147.199219 142.6875 C 143.972656 142.304688 140.636719 142.1875 137.285156 142.339844 C 136.65625 142.367188 136.125 141.878906 136.097656 141.25 C 136.070312 140.625 136.554688 140.089844 137.183594 140.0625 C 140.660156 139.90625 144.117188 140.027344 147.46875 140.425781 C 148.089844 140.5 148.539062 141.0625 148.464844 141.6875 C 148.394531 142.265625 147.90625 142.695312 147.335938 142.695312 Z M 147.335938 142.695312 " fill-opacity="1" fill-rule="nonzero"/><path fill="#282626" d="M 148.019531 152.234375 C 147.472656 152.234375 146.988281 151.835938 146.898438 151.277344 C 146.390625 148.109375 146.148438 144.828125 146.179688 141.53125 C 146.1875 140.90625 146.695312 140.402344 147.320312 140.402344 C 147.324219 140.402344 147.328125 140.402344 147.332031 140.402344 C 147.960938 140.410156 148.464844 140.921875 148.457031 141.550781 C 148.425781 144.722656 148.660156 147.875 149.148438 150.917969 C 149.246094 151.539062 148.824219 152.121094 148.203125 152.21875 C 148.140625 152.230469 148.082031 152.234375 148.019531 152.234375 Z M 148.019531 152.234375 " fill-opacity="1" fill-rule="nonzero"/><path fill="#282626" d="M 153.605469 135.4375 C 153.5625 135.4375 153.523438 135.4375 153.480469 135.433594 C 152.855469 135.363281 152.402344 134.804688 152.46875 134.179688 L 152.519531 133.753906 C 152.519531 133.75 152.519531 133.742188 152.519531 133.738281 L 152.570312 133.339844 C 152.570312 133.339844 152.570312 133.332031 152.570312 133.328125 L 152.679688 132.523438 C 152.679688 132.523438 152.679688 132.519531 152.679688 132.511719 L 152.859375 131.289062 C 152.859375 131.285156 152.859375 131.277344 152.859375 131.273438 L 152.929688 130.871094 C 153.144531 129.578125 153.347656 128.527344 153.5625 127.554688 C 153.699219 126.941406 154.308594 126.554688 154.921875 126.691406 C 155.535156 126.828125 155.921875 127.4375 155.785156 128.050781 C 155.578125 128.980469 155.382812 129.996094 155.171875 131.242188 L 155.109375 131.636719 L 155.046875 132.035156 L 154.933594 132.828125 L 154.777344 134.011719 L 154.734375 134.421875 C 154.671875 135.003906 154.175781 135.4375 153.601562 135.4375 Z M 153.605469 135.4375 " fill-opacity="1" fill-rule="nonzero"/><path fill="#282626" d="M 163.996094 139.957031 C 163.808594 139.957031 163.621094 139.910156 163.445312 139.8125 C 163.042969 139.589844 162.640625 139.371094 162.246094 139.160156 C 161.84375 138.953125 161.433594 138.742188 161.027344 138.542969 C 160.3125 138.183594 159.539062 137.824219 158.515625 137.371094 C 158.109375 137.191406 157.707031 137.023438 157.234375 136.832031 C 156.796875 136.652344 156.355469 136.476562 155.914062 136.308594 C 155.515625 136.15625 155.078125 135.996094 154.585938 135.824219 L 154.574219 135.816406 C 154.132812 135.664062 153.679688 135.503906 153.242188 135.363281 C 152.644531 135.171875 152.3125 134.53125 152.503906 133.929688 C 152.695312 133.332031 153.335938 133 153.933594 133.195312 C 154.40625 133.34375 154.875 133.511719 155.332031 133.671875 L 155.347656 133.675781 C 155.855469 133.855469 156.304688 134.023438 156.726562 134.179688 C 157.1875 134.359375 157.644531 134.539062 158.09375 134.722656 C 158.523438 134.898438 158.980469 135.085938 159.4375 135.289062 C 160.496094 135.753906 161.300781 136.128906 162.046875 136.503906 C 162.460938 136.710938 162.886719 136.925781 163.300781 137.144531 C 163.304688 137.144531 163.308594 137.148438 163.3125 137.148438 C 163.71875 137.363281 164.136719 137.59375 164.550781 137.824219 C 165.101562 138.128906 165.300781 138.824219 164.992188 139.371094 C 164.785156 139.746094 164.398438 139.957031 163.996094 139.957031 Z M 163.996094 139.957031 " fill-opacity="1" fill-rule="nonzero"/><path fill="#282626" d="M 160.75 131.476562 C 160.585938 131.476562 160.417969 131.4375 160.257812 131.359375 L 160.242188 131.355469 C 158.25 130.40625 156.25 129.574219 154.292969 128.878906 C 153.703125 128.667969 153.390625 128.015625 153.601562 127.421875 C 153.8125 126.832031 154.464844 126.519531 155.054688 126.730469 C 157.085938 127.453125 159.160156 128.316406 161.226562 129.300781 L 161.246094 129.3125 C 161.8125 129.585938 162.050781 130.265625 161.777344 130.832031 C 161.582031 131.238281 161.175781 131.476562 160.75 131.476562 Z M 160.75 131.476562 " fill-opacity="1" fill-rule="nonzero"/><path fill="#282626" d="M 159.074219 142.6875 C 159.054688 142.6875 159.035156 142.6875 159.015625 142.683594 C 158.390625 142.652344 157.90625 142.117188 157.9375 141.488281 C 158.128906 137.675781 158.703125 133.824219 159.636719 130.039062 C 159.789062 129.429688 160.40625 129.054688 161.015625 129.207031 C 161.625 129.359375 161.996094 129.976562 161.847656 130.585938 C 160.945312 134.230469 160.398438 137.9375 160.210938 141.605469 C 160.179688 142.210938 159.675781 142.6875 159.074219 142.6875 Z M 159.074219 142.6875 " fill-opacity="1" fill-rule="nonzero"/><path fill="#282626" d="M 218.152344 249.125 C 217.988281 249.125 217.816406 249.089844 217.65625 249.011719 C 217.089844 248.738281 216.855469 248.058594 217.128906 247.492188 C 218.0625 245.550781 218.898438 243.558594 219.609375 241.566406 C 219.820312 240.976562 220.46875 240.667969 221.0625 240.878906 C 221.65625 241.089844 221.964844 241.742188 221.753906 242.332031 C 221.015625 244.398438 220.148438 246.464844 219.179688 248.480469 C 218.980469 248.886719 218.574219 249.125 218.152344 249.125 Z M 218.152344 249.125 " fill-opacity="1" fill-rule="nonzero"/><path fill="#282626" d="M 220.6875 243.097656 C 220.632812 243.097656 220.578125 243.09375 220.527344 243.085938 C 218.394531 242.785156 216.273438 242.363281 214.230469 241.839844 C 213.621094 241.683594 213.253906 241.0625 213.410156 240.453125 C 213.566406 239.84375 214.183594 239.476562 214.792969 239.632812 C 216.761719 240.136719 218.796875 240.542969 220.847656 240.832031 C 221.46875 240.921875 221.902344 241.5 221.8125 242.121094 C 221.730469 242.6875 221.246094 243.101562 220.6875 243.101562 Z M 220.6875 243.097656 " fill-opacity="1" fill-rule="nonzero"/><path fill="#282626" d="M 217.042969 245.132812 C 216.964844 245.132812 216.886719 245.125 216.804688 245.109375 L 216.023438 244.941406 C 216.015625 244.941406 216.007812 244.9375 216 244.9375 L 215.222656 244.753906 C 215.222656 244.753906 215.214844 244.753906 215.210938 244.75 L 214.054688 244.464844 C 214.046875 244.464844 214.042969 244.460938 214.035156 244.460938 L 213.652344 244.355469 C 213.144531 244.21875 212.628906 244.074219 212.125 243.925781 C 212.121094 243.925781 212.117188 243.921875 212.109375 243.921875 C 211.621094 243.773438 211.113281 243.613281 210.609375 243.449219 C 210.011719 243.253906 209.6875 242.613281 209.878906 242.015625 C 210.074219 241.417969 210.71875 241.089844 211.316406 241.285156 C 211.804688 241.441406 212.292969 241.597656 212.769531 241.742188 C 213.257812 241.886719 213.757812 242.027344 214.25 242.160156 L 214.621094 242.261719 L 214.992188 242.355469 L 215.75 242.539062 L 216.511719 242.71875 L 217.28125 242.882812 C 217.894531 243.011719 218.289062 243.617188 218.15625 244.234375 C 218.042969 244.769531 217.570312 245.136719 217.042969 245.136719 Z M 217.042969 245.132812 " fill-opacity="1" fill-rule="nonzero"/><path fill="#282626" d="M 210.964844 243.515625 C 210.800781 243.515625 210.632812 243.476562 210.472656 243.402344 C 209.90625 243.128906 209.667969 242.445312 209.941406 241.878906 C 210.160156 241.425781 210.378906 240.964844 210.585938 240.515625 C 210.785156 240.066406 210.988281 239.601562 211.179688 239.144531 L 211.320312 238.8125 L 211.457031 238.46875 L 211.730469 237.777344 L 211.988281 237.101562 L 212.234375 236.410156 C 212.445312 235.816406 213.097656 235.507812 213.691406 235.71875 C 214.28125 235.929688 214.589844 236.582031 214.378906 237.171875 L 214.128906 237.878906 C 214.125 237.886719 214.121094 237.894531 214.121094 237.902344 L 213.851562 238.597656 C 213.851562 238.597656 213.851562 238.605469 213.851562 238.609375 L 213.433594 239.667969 C 213.429688 239.675781 213.425781 239.679688 213.425781 239.6875 L 213.277344 240.035156 C 213.078125 240.507812 212.871094 240.984375 212.664062 241.453125 C 212.660156 241.457031 212.65625 241.460938 212.65625 241.46875 C 212.441406 241.929688 212.21875 242.402344 211.992188 242.871094 C 211.792969 243.277344 211.386719 243.515625 210.964844 243.515625 Z M 210.964844 243.515625 " fill-opacity="1" fill-rule="nonzero"/><path fill="#282626" d="M 232.183594 242.042969 C 231.855469 242.042969 231.53125 241.90625 231.308594 241.636719 L 221.21875 229.542969 C 220.816406 229.0625 220.882812 228.34375 221.363281 227.941406 C 221.847656 227.539062 222.566406 227.601562 222.96875 228.085938 L 233.054688 240.175781 C 233.457031 240.660156 233.394531 241.378906 232.910156 241.78125 C 232.699219 241.957031 232.4375 242.042969 232.183594 242.042969 Z M 232.183594 242.042969 " fill-opacity="1" fill-rule="nonzero"/><path fill="#282626" d="M 241.804688 232.246094 C 241.554688 232.246094 241.300781 232.164062 241.09375 231.992188 L 228.824219 222.121094 C 228.332031 221.726562 228.257812 221.011719 228.648438 220.519531 C 229.042969 220.03125 229.761719 219.953125 230.25 220.347656 L 242.519531 230.21875 C 243.007812 230.613281 243.085938 231.332031 242.691406 231.820312 C 242.46875 232.097656 242.136719 232.246094 241.804688 232.246094 Z M 241.804688 232.246094 " fill-opacity="1" fill-rule="nonzero"/><path fill="#282626" d="M 234.605469 230.332031 C 234.066406 230.332031 233.585938 229.941406 233.488281 229.390625 C 233.378906 228.769531 233.789062 228.179688 234.410156 228.070312 C 236.632812 227.675781 238.878906 227.140625 241.089844 226.480469 C 241.691406 226.296875 242.328125 226.640625 242.507812 227.242188 C 242.6875 227.84375 242.347656 228.480469 241.746094 228.660156 C 239.449219 229.347656 237.117188 229.90625 234.808594 230.3125 C 234.738281 230.324219 234.671875 230.332031 234.609375 230.332031 Z M 234.605469 230.332031 " fill-opacity="1" fill-rule="nonzero"/><path fill="#282626" d="M 251.363281 215.328125 C 251.214844 215.328125 251.066406 215.300781 250.925781 215.242188 L 237.015625 209.421875 C 236.433594 209.179688 236.160156 208.511719 236.402344 207.929688 C 236.648438 207.351562 237.3125 207.078125 237.894531 207.320312 L 251.804688 213.140625 C 252.382812 213.382812 252.65625 214.050781 252.414062 214.628906 C 252.230469 215.066406 251.808594 215.328125 251.363281 215.328125 Z M 251.363281 215.328125 " fill-opacity="1" fill-rule="nonzero"/><path fill="#282626" d="M 248.777344 221.300781 C 248.59375 221.300781 248.410156 221.257812 248.238281 221.164062 L 234.941406 214.0625 C 234.386719 213.765625 234.175781 213.074219 234.472656 212.519531 C 234.769531 211.964844 235.457031 211.757812 236.011719 212.054688 L 249.3125 219.15625 C 249.867188 219.453125 250.078125 220.144531 249.78125 220.699219 C 249.574219 221.082031 249.183594 221.300781 248.773438 221.300781 Z M 248.777344 221.300781 " fill-opacity="1" fill-rule="nonzero"/><path fill="#282626" d="M 239.167969 215.890625 C 238.640625 215.890625 238.164062 215.515625 238.054688 214.976562 C 237.929688 214.363281 238.328125 213.761719 238.941406 213.636719 C 241.472656 213.117188 244.023438 212.414062 246.519531 211.542969 C 247.113281 211.335938 247.761719 211.648438 247.96875 212.242188 C 248.175781 212.835938 247.863281 213.484375 247.269531 213.691406 C 244.675781 214.597656 242.03125 215.328125 239.398438 215.867188 C 239.320312 215.882812 239.246094 215.890625 239.167969 215.890625 Z M 239.167969 215.890625 " fill-opacity="1" fill-rule="nonzero"/><path fill="#282626" d="M 186.753906 135.300781 C 186.132812 135.300781 185.628906 134.808594 185.613281 134.1875 L 185.269531 118.445312 C 185.253906 117.816406 185.753906 117.292969 186.382812 117.28125 C 187.015625 117.265625 187.53125 117.765625 187.546875 118.394531 L 187.890625 134.136719 C 187.90625 134.765625 187.40625 135.285156 186.777344 135.300781 C 186.769531 135.300781 186.761719 135.300781 186.753906 135.300781 Z M 186.753906 135.300781 " fill-opacity="1" fill-rule="nonzero"/><path fill="#282626" d="M 186.511719 124.214844 C 186.171875 124.214844 185.832031 124.0625 185.609375 123.773438 C 185.226562 123.273438 185.316406 122.558594 185.8125 122.175781 C 187.9375 120.53125 190.21875 118.996094 192.589844 117.617188 C 193.132812 117.300781 193.828125 117.484375 194.144531 118.03125 C 194.460938 118.574219 194.277344 119.269531 193.734375 119.585938 C 191.449219 120.917969 189.253906 122.394531 187.207031 123.976562 C 187 124.136719 186.753906 124.214844 186.511719 124.214844 Z M 186.511719 124.214844 " fill-opacity="1" fill-rule="nonzero"/><path fill="#282626" d="M 186.582031 127.429688 C 186.25 127.429688 185.921875 127.285156 185.699219 127.007812 C 185.300781 126.519531 185.375 125.804688 185.863281 125.40625 C 187.882812 123.765625 190.054688 122.226562 192.320312 120.835938 C 192.859375 120.507812 193.558594 120.675781 193.886719 121.214844 C 194.214844 121.75 194.046875 122.449219 193.511719 122.777344 C 191.332031 124.117188 189.242188 125.59375 187.296875 127.171875 C 187.085938 127.34375 186.832031 127.429688 186.582031 127.429688 Z M 186.582031 127.429688 " fill-opacity="1" fill-rule="nonzero"/><path fill="#282626" d="M 223.585938 148.972656 C 223.316406 148.972656 223.042969 148.878906 222.828125 148.683594 C 222.359375 148.265625 222.320312 147.542969 222.738281 147.074219 L 233.246094 135.347656 C 233.664062 134.878906 234.386719 134.839844 234.855469 135.257812 C 235.324219 135.679688 235.363281 136.398438 234.941406 136.867188 L 224.433594 148.59375 C 224.210938 148.847656 223.898438 148.972656 223.585938 148.972656 Z M 223.585938 148.972656 " fill-opacity="1" fill-rule="nonzero"/><path fill="#282626" d="M 233.097656 147.316406 C 232.511719 147.316406 232.015625 146.867188 231.964844 146.269531 C 231.761719 143.78125 231.378906 141.25 230.835938 138.742188 C 230.703125 138.128906 231.09375 137.523438 231.707031 137.390625 C 232.320312 137.257812 232.925781 137.644531 233.058594 138.261719 C 233.625 140.863281 234.019531 143.492188 234.234375 146.082031 C 234.285156 146.710938 233.820312 147.257812 233.191406 147.3125 C 233.160156 147.3125 233.128906 147.316406 233.097656 147.316406 Z M 233.097656 147.316406 " fill-opacity="1" fill-rule="nonzero"/><path fill="#282626" d="M 235.464844 145.140625 C 234.890625 145.140625 234.398438 144.707031 234.335938 144.121094 C 234.058594 141.554688 233.605469 138.949219 232.988281 136.375 C 232.839844 135.761719 233.214844 135.148438 233.828125 135 C 234.4375 134.855469 235.054688 135.230469 235.199219 135.839844 C 235.84375 138.511719 236.3125 141.214844 236.597656 143.882812 C 236.667969 144.507812 236.214844 145.066406 235.589844 145.132812 C 235.546875 145.136719 235.507812 145.140625 235.464844 145.140625 Z M 235.464844 145.140625 " fill-opacity="1" fill-rule="nonzero"/><path fill="#282626" d="M 232.285156 158.953125 C 231.917969 158.953125 231.558594 158.777344 231.339844 158.449219 C 230.988281 157.925781 231.125 157.21875 231.648438 156.871094 L 244.710938 148.074219 C 245.230469 147.722656 245.9375 147.863281 246.289062 148.382812 C 246.640625 148.90625 246.503906 149.613281 245.980469 149.964844 L 232.917969 158.757812 C 232.722656 158.890625 232.5 158.953125 232.285156 158.953125 Z M 232.285156 158.953125 " fill-opacity="1" fill-rule="nonzero"/><path fill="#282626" d="M 236 162.863281 C 235.917969 162.863281 235.832031 162.855469 235.746094 162.835938 C 235.132812 162.695312 234.75 162.085938 234.890625 161.472656 C 235.40625 159.207031 235.769531 156.847656 235.976562 154.46875 C 236.027344 153.84375 236.578125 153.378906 237.207031 153.429688 C 237.832031 153.484375 238.296875 154.035156 238.242188 154.664062 C 238.03125 157.148438 237.648438 159.609375 237.109375 161.980469 C 236.992188 162.507812 236.523438 162.863281 236 162.863281 Z M 236 162.863281 " fill-opacity="1" fill-rule="nonzero"/><path fill="#282626" d="M 244.742188 158.152344 C 244.6875 158.152344 244.632812 158.148438 244.578125 158.140625 C 243.957031 158.050781 243.523438 157.476562 243.613281 156.855469 C 243.980469 154.296875 244.179688 151.65625 244.207031 149.007812 C 244.214844 148.382812 244.722656 147.882812 245.34375 147.882812 C 245.347656 147.882812 245.351562 147.882812 245.355469 147.882812 C 245.984375 147.890625 246.488281 148.402344 246.484375 149.03125 C 246.453125 151.78125 246.246094 154.519531 245.867188 157.175781 C 245.785156 157.742188 245.300781 158.152344 244.742188 158.152344 Z M 244.742188 158.152344 " fill-opacity="1" fill-rule="nonzero"/><path fill="#282626" d="M 244.558594 158.25 C 244.398438 158.25 244.230469 158.214844 244.074219 158.140625 C 241.796875 157.074219 239.453125 156.160156 237.105469 155.421875 C 236.507812 155.234375 236.171875 154.597656 236.359375 153.996094 C 236.550781 153.394531 237.1875 153.0625 237.789062 153.25 C 240.230469 154.015625 242.671875 154.96875 245.042969 156.082031 C 245.613281 156.347656 245.855469 157.027344 245.589844 157.59375 C 245.394531 158.007812 244.984375 158.25 244.558594 158.25 Z M 244.558594 158.25 " fill-opacity="1" fill-rule="nonzero"/><path fill="#282626" d="M 254.644531 172.699219 C 254.441406 172.699219 254.234375 172.644531 254.050781 172.53125 C 251.1875 170.769531 248.21875 169.253906 245.21875 168.023438 C 244.636719 167.785156 244.355469 167.121094 244.59375 166.539062 C 244.832031 165.957031 245.5 165.679688 246.082031 165.917969 C 249.195312 167.191406 252.277344 168.765625 255.246094 170.589844 C 255.78125 170.921875 255.945312 171.621094 255.617188 172.15625 C 255.402344 172.507812 255.027344 172.699219 254.648438 172.699219 Z M 254.644531 172.699219 " fill-opacity="1" fill-rule="nonzero"/><path fill="#282626" d="M 240.414062 176.117188 C 240.167969 176.117188 239.917969 176.039062 239.710938 175.875 C 239.214844 175.484375 239.128906 174.769531 239.519531 174.273438 C 241.425781 171.847656 243.15625 169.207031 244.667969 166.421875 C 244.964844 165.867188 245.65625 165.664062 246.210938 165.960938 C 246.761719 166.261719 246.96875 166.953125 246.667969 167.503906 C 245.097656 170.402344 243.292969 173.152344 241.308594 175.679688 C 241.085938 175.964844 240.75 176.117188 240.414062 176.117188 Z M 240.414062 176.117188 " fill-opacity="1" fill-rule="nonzero"/><path fill="#282626" d="M 199.898438 136.683594 C 199.816406 136.683594 199.726562 136.671875 199.640625 136.652344 C 199.03125 136.511719 198.648438 135.898438 198.789062 135.289062 L 202.339844 119.945312 C 202.480469 119.332031 203.09375 118.953125 203.707031 119.09375 C 204.320312 119.234375 204.699219 119.847656 204.558594 120.460938 L 201.007812 135.800781 C 200.886719 136.328125 200.417969 136.683594 199.898438 136.683594 Z M 199.898438 136.683594 " fill-opacity="1" fill-rule="nonzero"/><path fill="#282626" d="M 205.117188 138.171875 C 204.996094 138.171875 204.871094 138.152344 204.75 138.113281 C 204.15625 137.910156 203.839844 137.261719 204.042969 136.667969 L 207.515625 126.507812 C 207.71875 125.910156 208.367188 125.59375 208.960938 125.796875 C 209.558594 126 209.875 126.648438 209.671875 127.242188 L 206.195312 137.402344 C 206.035156 137.875 205.59375 138.171875 205.117188 138.171875 Z M 205.117188 138.171875 " fill-opacity="1" fill-rule="nonzero"/><path fill="#282626" d="M 208.59375 128.011719 C 208.222656 128.011719 207.859375 127.832031 207.644531 127.5 C 206.144531 125.21875 204.449219 123 202.605469 120.898438 C 202.191406 120.425781 202.238281 119.707031 202.710938 119.289062 C 203.183594 118.875 203.90625 118.921875 204.320312 119.394531 C 206.230469 121.574219 207.988281 123.878906 209.546875 126.25 C 209.890625 126.773438 209.746094 127.480469 209.21875 127.824219 C 209.027344 127.953125 208.808594 128.011719 208.59375 128.011719 Z M 208.59375 128.011719 " fill-opacity="1" fill-rule="nonzero"/><path fill="#282626" d="M 212.515625 141.3125 C 212.339844 141.3125 212.160156 141.273438 211.992188 141.183594 C 211.433594 140.894531 211.21875 140.207031 211.507812 139.648438 L 218.78125 125.683594 C 219.070312 125.125 219.757812 124.90625 220.316406 125.199219 C 220.875 125.488281 221.089844 126.175781 220.800781 126.734375 L 213.527344 140.699219 C 213.324219 141.089844 212.929688 141.3125 212.515625 141.3125 Z M 212.515625 141.3125 " fill-opacity="1" fill-rule="nonzero"/><path fill="#282626" d="M 221.90625 136.914062 C 221.425781 136.914062 220.976562 136.609375 220.820312 136.128906 C 220 133.585938 218.976562 131.050781 217.785156 128.589844 C 217.507812 128.023438 217.746094 127.339844 218.3125 127.066406 C 218.875 126.792969 219.558594 127.027344 219.832031 127.59375 C 221.074219 130.152344 222.132812 132.785156 222.988281 135.425781 C 223.179688 136.023438 222.855469 136.667969 222.253906 136.859375 C 222.136719 136.898438 222.019531 136.914062 221.90625 136.914062 Z M 221.90625 136.914062 " fill-opacity="1" fill-rule="nonzero"/><path fill="#282626" d="M 214.128906 138.21875 C 213.617188 138.21875 213.148438 137.871094 213.023438 137.347656 C 212.875 136.738281 213.25 136.121094 213.859375 135.972656 C 216.425781 135.351562 219.09375 134.902344 221.796875 134.644531 C 222.421875 134.582031 222.976562 135.042969 223.039062 135.667969 C 223.097656 136.292969 222.640625 136.851562 222.011719 136.910156 C 219.421875 137.160156 216.859375 137.589844 214.398438 138.1875 C 214.308594 138.207031 214.214844 138.21875 214.128906 138.21875 Z M 214.128906 138.21875 " fill-opacity="1" fill-rule="nonzero"/><path fill="#282626" d="M 135.335938 227.601562 C 135.257812 227.601562 135.175781 227.59375 135.09375 227.578125 C 134.046875 227.351562 133.164062 227.152344 132.28125 226.914062 L 131.480469 226.703125 C 131.277344 226.648438 131.070312 226.589844 130.863281 226.53125 C 130.40625 226.398438 129.933594 226.257812 129.464844 226.113281 C 128.863281 225.929688 128.523438 225.292969 128.707031 224.691406 C 128.890625 224.09375 129.527344 223.753906 130.128906 223.9375 C 130.589844 224.078125 131.050781 224.214844 131.5 224.34375 C 131.6875 224.398438 131.875 224.449219 132.070312 224.503906 L 132.867188 224.710938 C 133.710938 224.9375 134.5625 225.128906 135.578125 225.351562 C 136.191406 225.484375 136.582031 226.089844 136.449219 226.703125 C 136.335938 227.238281 135.863281 227.601562 135.339844 227.601562 Z M 135.335938 227.601562 " fill-opacity="1" fill-rule="nonzero"/><path fill="#282626" d="M 129.683594 225.988281 C 129.632812 225.988281 129.582031 225.984375 129.527344 225.976562 C 128.90625 225.894531 128.46875 225.320312 128.550781 224.699219 C 128.832031 222.617188 129.164062 220.738281 129.574219 218.957031 C 129.710938 218.34375 130.324219 217.960938 130.9375 218.101562 C 131.550781 218.242188 131.933594 218.851562 131.792969 219.464844 C 131.398438 221.179688 131.078125 222.988281 130.808594 225 C 130.734375 225.574219 130.246094 225.988281 129.683594 225.988281 Z M 129.683594 225.988281 " fill-opacity="1" fill-rule="nonzero"/><path fill="#282626" d="M 129.644531 226.136719 C 129.269531 226.136719 128.902344 225.953125 128.6875 225.613281 C 128.347656 225.082031 128.5 224.378906 129.03125 224.039062 L 142.046875 215.683594 C 142.574219 215.34375 143.28125 215.496094 143.621094 216.023438 C 143.960938 216.554688 143.808594 217.257812 143.277344 217.597656 L 130.257812 225.957031 C 130.070312 226.078125 129.855469 226.136719 129.644531 226.136719 Z M 129.644531 226.136719 " fill-opacity="1" fill-rule="nonzero"/><path fill="#282626" d="M 122.859375 212.808594 C 122.394531 212.808594 121.960938 212.523438 121.789062 212.0625 C 121.574219 211.472656 121.875 210.816406 122.464844 210.601562 L 137.242188 205.160156 C 137.832031 204.941406 138.488281 205.242188 138.707031 205.835938 C 138.921875 206.425781 138.621094 207.078125 138.03125 207.296875 L 123.253906 212.738281 C 123.125 212.785156 122.992188 212.808594 122.859375 212.808594 Z M 122.859375 212.808594 " fill-opacity="1" fill-rule="nonzero"/><path fill="#282626" d="M 123.390625 212.613281 C 123.339844 212.613281 123.292969 212.609375 123.242188 212.601562 C 122.621094 212.523438 122.179688 211.953125 122.257812 211.328125 C 122.59375 208.71875 123.089844 206.128906 123.730469 203.625 C 123.890625 203.015625 124.511719 202.648438 125.117188 202.804688 C 125.726562 202.960938 126.09375 203.582031 125.9375 204.191406 C 125.316406 206.601562 124.839844 209.101562 124.515625 211.617188 C 124.441406 212.191406 123.953125 212.613281 123.386719 212.613281 Z M 123.390625 212.613281 " fill-opacity="1" fill-rule="nonzero"/><path fill="#282626" d="M 130.210938 210.101562 C 129.957031 210.101562 129.699219 210.015625 129.488281 209.839844 C 127.582031 208.265625 125.738281 206.53125 124.003906 204.6875 C 123.574219 204.230469 123.597656 203.507812 124.054688 203.078125 C 124.515625 202.648438 125.234375 202.671875 125.667969 203.128906 C 127.332031 204.902344 129.105469 206.570312 130.9375 208.085938 C 131.421875 208.484375 131.492188 209.203125 131.089844 209.6875 C 130.863281 209.960938 130.539062 210.101562 130.210938 210.101562 Z M 130.210938 210.101562 " fill-opacity="1" fill-rule="nonzero"/><path fill="#282626" d="M 130.214844 210.101562 C 130.148438 210.101562 130.082031 210.09375 130.015625 210.082031 C 129.394531 209.972656 128.980469 209.382812 129.089844 208.765625 C 129.511719 206.382812 130.082031 204.027344 130.792969 201.761719 C 130.980469 201.160156 131.617188 200.828125 132.21875 201.015625 C 132.820312 201.203125 133.152344 201.84375 132.964844 202.441406 C 132.285156 204.617188 131.734375 206.875 131.332031 209.160156 C 131.234375 209.710938 130.753906 210.101562 130.214844 210.101562 Z M 130.214844 210.101562 " fill-opacity="1" fill-rule="nonzero"/><path fill="#282626" d="M 137.035156 207.585938 C 136.800781 207.585938 136.566406 207.515625 136.363281 207.367188 C 134.539062 206.027344 132.765625 204.53125 131.089844 202.921875 C 130.636719 202.488281 130.625 201.765625 131.058594 201.3125 C 131.496094 200.859375 132.214844 200.847656 132.667969 201.28125 C 134.269531 202.820312 135.964844 204.25 137.710938 205.53125 C 138.21875 205.90625 138.328125 206.617188 137.953125 207.125 C 137.730469 207.425781 137.386719 207.589844 137.035156 207.589844 Z M 137.035156 207.585938 " fill-opacity="1" fill-rule="nonzero"/><g clip-path="url(#04b42fb47f)"><path fill="#000000" d="M 217.910156 177.9375 C 218.398438 176.832031 219.089844 174.324219 217.390625 171.164062 C 217.554688 170.578125 217.621094 169.984375 217.601562 169.375 C 217.578125 168.769531 217.464844 168.179688 217.265625 167.609375 C 217.0625 167.035156 216.777344 166.507812 216.414062 166.023438 C 216.046875 165.539062 215.617188 165.121094 215.125 164.769531 C 214.847656 163.761719 214.410156 162.828125 213.808594 161.96875 C 213.210938 161.113281 212.484375 160.378906 211.632812 159.773438 C 211.296875 158.707031 210.207031 155.949219 207.6875 154.511719 C 207.40625 154.335938 207.101562 154.242188 206.769531 154.234375 C 206.542969 154.238281 206.328125 154.285156 206.121094 154.378906 C 205.914062 154.46875 205.734375 154.597656 205.578125 154.765625 C 205.425781 154.929688 205.3125 155.121094 205.234375 155.332031 C 205.160156 155.546875 205.128906 155.765625 205.140625 155.992188 L 205.140625 173.347656 C 204.429688 172.035156 203.554688 170.839844 202.519531 169.765625 C 201.488281 168.6875 200.332031 167.769531 199.050781 167.003906 C 197.769531 166.238281 196.414062 165.660156 194.976562 165.261719 C 193.542969 164.863281 192.078125 164.660156 190.589844 164.65625 L 184.351562 164.65625 C 182.863281 164.660156 181.398438 164.863281 179.960938 165.261719 C 178.527344 165.660156 177.167969 166.238281 175.890625 167.003906 C 174.609375 167.769531 173.453125 168.6875 172.417969 169.765625 C 171.386719 170.839844 170.511719 172.035156 169.796875 173.347656 L 169.796875 155.992188 C 169.8125 155.765625 169.78125 155.546875 169.703125 155.332031 C 169.628906 155.121094 169.511719 154.929688 169.359375 154.765625 C 169.207031 154.597656 169.027344 154.46875 168.820312 154.378906 C 168.613281 154.285156 168.398438 154.238281 168.171875 154.234375 C 167.851562 154.238281 167.554688 154.320312 167.277344 154.480469 C 164.757812 155.917969 163.671875 158.648438 163.332031 159.742188 C 162.480469 160.347656 161.753906 161.082031 161.15625 161.9375 C 160.558594 162.796875 160.117188 163.730469 159.839844 164.738281 C 159.347656 165.089844 158.917969 165.507812 158.550781 165.992188 C 158.1875 166.480469 157.902344 167.007812 157.699219 167.578125 C 157.496094 168.152344 157.386719 168.742188 157.363281 169.347656 C 157.34375 169.957031 157.414062 170.550781 157.574219 171.136719 C 155.847656 174.324219 156.535156 176.832031 157.054688 177.910156 C 155.234375 181.394531 157.285156 184.558594 157.371094 184.683594 L 157.542969 184.945312 L 167.71875 189.316406 L 167.71875 215.714844 C 167.71875 215.855469 167.746094 215.988281 167.800781 216.113281 C 167.851562 216.242188 167.925781 216.355469 168.023438 216.453125 C 168.121094 216.550781 168.234375 216.625 168.363281 216.679688 C 168.488281 216.730469 168.621094 216.757812 168.757812 216.757812 C 168.898438 216.757812 169.03125 216.730469 169.15625 216.679688 C 169.285156 216.625 169.398438 216.550781 169.496094 216.453125 C 169.59375 216.355469 169.667969 216.242188 169.71875 216.113281 C 169.773438 215.988281 169.796875 215.855469 169.796875 215.714844 L 169.796875 181.480469 C 169.796875 180.730469 169.855469 179.984375 169.964844 179.246094 L 204.976562 179.246094 C 205.085938 179.984375 205.140625 180.730469 205.140625 181.480469 L 205.140625 219.882812 C 205.140625 220.023438 205.167969 220.15625 205.21875 220.28125 C 205.273438 220.410156 205.347656 220.523438 205.445312 220.621094 C 205.542969 220.71875 205.65625 220.792969 205.78125 220.847656 C 205.910156 220.898438 206.042969 220.925781 206.179688 220.925781 C 206.320312 220.925781 206.453125 220.898438 206.578125 220.847656 C 206.707031 220.792969 206.816406 220.71875 206.914062 220.621094 C 207.011719 220.523438 207.089844 220.410156 207.140625 220.28125 C 207.195312 220.15625 207.21875 220.023438 207.21875 219.882812 L 207.21875 189.316406 L 217.417969 184.976562 L 217.589844 184.714844 C 217.683594 184.585938 219.726562 181.421875 217.910156 177.9375 Z M 158.941406 183.324219 C 158.613281 182.703125 158.425781 182.039062 158.382812 181.335938 C 158.339844 180.632812 158.441406 179.953125 158.691406 179.296875 L 163.703125 181.433594 C 163.832031 181.492188 163.964844 181.527344 164.105469 181.53125 C 164.246094 181.535156 164.382812 181.511719 164.515625 181.464844 C 164.648438 181.414062 164.765625 181.335938 164.867188 181.238281 C 164.96875 181.140625 165.046875 181.027344 165.101562 180.894531 C 165.15625 180.765625 165.183594 180.628906 165.183594 180.488281 C 165.183594 180.347656 165.15625 180.210938 165.101562 180.082031 C 165.046875 179.949219 164.964844 179.835938 164.863281 179.738281 C 164.761719 179.640625 164.644531 179.566406 164.511719 179.515625 L 158.953125 177.160156 C 158.675781 176.570312 158.136719 174.957031 159.125 172.726562 L 163.457031 174.507812 C 163.585938 174.5625 163.71875 174.585938 163.855469 174.585938 C 163.992188 174.585938 164.125 174.558594 164.253906 174.503906 C 164.378906 174.453125 164.492188 174.375 164.589844 174.277344 C 164.6875 174.179688 164.761719 174.066406 164.816406 173.941406 C 164.867188 173.8125 164.894531 173.679688 164.890625 173.542969 C 164.890625 173.402344 164.867188 173.269531 164.8125 173.144531 C 164.757812 173.015625 164.683594 172.902344 164.585938 172.804688 C 164.488281 172.707031 164.375 172.632812 164.246094 172.582031 L 159.601562 170.667969 C 159.398438 169.988281 159.382812 169.300781 159.566406 168.613281 C 159.746094 167.925781 160.09375 167.335938 160.605469 166.84375 L 163.796875 168.285156 C 163.921875 168.34375 164.054688 168.375 164.191406 168.378906 C 164.328125 168.382812 164.460938 168.359375 164.589844 168.3125 C 164.71875 168.261719 164.835938 168.191406 164.9375 168.09375 C 165.035156 168 165.113281 167.890625 165.171875 167.761719 C 165.226562 167.636719 165.257812 167.503906 165.261719 167.367188 C 165.265625 167.230469 165.242188 167.09375 165.195312 166.964844 C 165.144531 166.835938 165.074219 166.722656 164.980469 166.621094 C 164.882812 166.519531 164.773438 166.441406 164.648438 166.386719 L 161.894531 165.140625 C 162.308594 163.765625 163.070312 162.625 164.175781 161.71875 L 164.929688 162 C 165.058594 162.046875 165.195312 162.066406 165.332031 162.058594 C 165.46875 162.054688 165.601562 162.019531 165.726562 161.960938 C 165.851562 161.902344 165.960938 161.824219 166.054688 161.71875 C 166.148438 161.617188 166.21875 161.5 166.265625 161.371094 C 166.3125 161.238281 166.335938 161.105469 166.328125 160.964844 C 166.324219 160.828125 166.289062 160.695312 166.230469 160.570312 C 166.171875 160.445312 166.09375 160.335938 165.988281 160.242188 C 165.886719 160.148438 165.769531 160.078125 165.640625 160.027344 L 165.464844 159.964844 C 165.921875 158.671875 166.671875 157.578125 167.71875 156.6875 L 167.71875 187.058594 Z M 170.4375 177.160156 C 170.660156 176.414062 170.941406 175.691406 171.28125 174.992188 C 171.621094 174.289062 172.011719 173.621094 172.457031 172.984375 C 172.902344 172.34375 173.394531 171.746094 173.9375 171.1875 C 174.476562 170.628906 175.058594 170.117188 175.679688 169.648438 C 176.304688 169.183594 176.957031 168.769531 177.644531 168.410156 C 178.335938 168.046875 179.046875 167.746094 179.78125 167.496094 C 180.519531 167.25 181.269531 167.0625 182.039062 166.9375 C 182.804688 166.808594 183.574219 166.742188 184.351562 166.738281 L 186.429688 166.738281 L 186.429688 168.824219 L 180.195312 168.824219 C 180.054688 168.824219 179.921875 168.851562 179.796875 168.902344 C 179.667969 168.957031 179.554688 169.03125 179.457031 169.128906 C 179.359375 169.226562 179.285156 169.339844 179.234375 169.46875 C 179.179688 169.59375 179.152344 169.726562 179.152344 169.867188 C 179.152344 170.003906 179.179688 170.136719 179.234375 170.265625 C 179.285156 170.390625 179.359375 170.503906 179.457031 170.601562 C 179.554688 170.699219 179.667969 170.777344 179.796875 170.828125 C 179.921875 170.882812 180.054688 170.90625 180.195312 170.90625 L 186.429688 170.90625 L 186.429688 172.992188 L 175.515625 172.992188 C 175.378906 172.992188 175.246094 173.019531 175.117188 173.070312 C 174.992188 173.125 174.878906 173.199219 174.78125 173.296875 C 174.683594 173.394531 174.609375 173.507812 174.554688 173.636719 C 174.503906 173.761719 174.476562 173.894531 174.476562 174.035156 C 174.476562 174.171875 174.503906 174.304688 174.554688 174.433594 C 174.609375 174.558594 174.683594 174.671875 174.78125 174.769531 C 174.878906 174.867188 174.992188 174.945312 175.117188 174.996094 C 175.246094 175.050781 175.378906 175.074219 175.515625 175.074219 L 186.429688 175.074219 L 186.429688 177.160156 Z M 188.507812 177.160156 L 188.507812 175.074219 L 199.320312 175.074219 C 199.457031 175.074219 199.589844 175.050781 199.71875 174.996094 C 199.84375 174.945312 199.957031 174.867188 200.054688 174.769531 C 200.152344 174.671875 200.226562 174.558594 200.28125 174.433594 C 200.332031 174.304688 200.359375 174.171875 200.359375 174.035156 C 200.359375 173.894531 200.332031 173.761719 200.28125 173.636719 C 200.226562 173.507812 200.152344 173.394531 200.054688 173.296875 C 199.957031 173.199219 199.84375 173.125 199.71875 173.070312 C 199.589844 173.019531 199.457031 172.992188 199.320312 172.992188 L 188.507812 172.992188 L 188.507812 170.90625 L 194.640625 170.90625 C 194.78125 170.90625 194.914062 170.882812 195.039062 170.828125 C 195.167969 170.777344 195.28125 170.699219 195.378906 170.601562 C 195.476562 170.503906 195.550781 170.390625 195.601562 170.265625 C 195.65625 170.136719 195.683594 170.003906 195.683594 169.867188 C 195.683594 169.726562 195.65625 169.59375 195.601562 169.46875 C 195.550781 169.339844 195.476562 169.226562 195.378906 169.128906 C 195.28125 169.03125 195.167969 168.957031 195.039062 168.902344 C 194.914062 168.851562 194.78125 168.824219 194.640625 168.824219 L 188.507812 168.824219 L 188.507812 166.738281 L 190.589844 166.738281 C 191.363281 166.742188 192.136719 166.808594 192.902344 166.9375 C 193.667969 167.0625 194.421875 167.25 195.15625 167.496094 C 195.894531 167.746094 196.605469 168.046875 197.292969 168.410156 C 197.980469 168.769531 198.636719 169.183594 199.257812 169.648438 C 199.882812 170.117188 200.460938 170.628906 201.003906 171.1875 C 201.542969 171.746094 202.035156 172.34375 202.480469 172.984375 C 202.925781 173.621094 203.320312 174.289062 203.660156 174.992188 C 203.996094 175.691406 204.277344 176.414062 204.503906 177.160156 Z M 216 183.324219 L 207.21875 187.058594 L 207.21875 156.6875 C 208.265625 157.578125 209.019531 158.671875 209.476562 159.964844 L 209.289062 160.035156 C 209.15625 160.082031 209.039062 160.148438 208.9375 160.242188 C 208.832031 160.335938 208.75 160.449219 208.691406 160.574219 C 208.632812 160.699219 208.597656 160.832031 208.59375 160.972656 C 208.585938 161.113281 208.609375 161.25 208.65625 161.378906 C 208.707031 161.511719 208.777344 161.628906 208.875 161.730469 C 208.96875 161.832031 209.078125 161.910156 209.207031 161.96875 C 209.335938 162.027344 209.46875 162.054688 209.605469 162.058594 C 209.746094 162.0625 209.882812 162.039062 210.011719 161.988281 L 210.765625 161.707031 C 211.867188 162.617188 212.628906 163.761719 213.046875 165.128906 L 210.296875 166.375 C 210.171875 166.429688 210.0625 166.511719 209.964844 166.609375 C 209.871094 166.710938 209.800781 166.828125 209.75 166.957031 C 209.703125 167.085938 209.679688 167.21875 209.683594 167.355469 C 209.6875 167.496094 209.71875 167.625 209.773438 167.753906 C 209.832031 167.878906 209.910156 167.988281 210.011719 168.085938 C 210.109375 168.179688 210.226562 168.25 210.355469 168.300781 C 210.484375 168.347656 210.617188 168.371094 210.753906 168.367188 C 210.890625 168.363281 211.023438 168.332031 211.148438 168.277344 L 214.347656 166.832031 C 214.859375 167.324219 215.207031 167.914062 215.386719 168.601562 C 215.566406 169.292969 215.554688 169.976562 215.347656 170.65625 L 210.703125 172.570312 C 210.574219 172.621094 210.460938 172.699219 210.363281 172.792969 C 210.265625 172.890625 210.191406 173.003906 210.136719 173.132812 C 210.085938 173.257812 210.058594 173.390625 210.058594 173.53125 C 210.058594 173.667969 210.082031 173.800781 210.136719 173.929688 C 210.1875 174.058594 210.261719 174.171875 210.359375 174.269531 C 210.457031 174.367188 210.570312 174.441406 210.695312 174.496094 C 210.824219 174.546875 210.957031 174.574219 211.09375 174.574219 C 211.230469 174.578125 211.363281 174.550781 211.492188 174.496094 L 215.828125 172.714844 C 216.816406 174.957031 216.273438 176.570312 216 177.148438 L 210.433594 179.519531 C 210.300781 179.570312 210.183594 179.644531 210.082031 179.742188 C 209.980469 179.839844 209.898438 179.953125 209.84375 180.085938 C 209.789062 180.214844 209.761719 180.351562 209.761719 180.492188 C 209.761719 180.636719 209.789062 180.769531 209.84375 180.902344 C 209.898438 181.03125 209.976562 181.144531 210.078125 181.246094 C 210.179688 181.34375 210.296875 181.417969 210.429688 181.46875 C 210.5625 181.519531 210.699219 181.542969 210.839844 181.535156 C 210.980469 181.53125 211.113281 181.496094 211.242188 181.4375 L 216.253906 179.300781 C 216.503906 179.957031 216.605469 180.636719 216.558594 181.339844 C 216.515625 182.042969 216.328125 182.703125 216 183.324219 Z M 216 183.324219 " fill-opacity="1" fill-rule="nonzero"/></g><g clip-path="url(#c3982d3af1)"><path fill="#000000" d="M 202.023438 218.84375 L 199.425781 218.84375 L 199.425781 209.847656 C 199.425781 209.5 199.285156 209.222656 199.007812 209.015625 L 188.753906 201.308594 L 190.875 199.183594 L 197.230469 204.039062 C 197.574219 204.304688 197.9375 204.339844 198.324219 204.148438 C 198.710938 203.957031 198.90625 203.644531 198.90625 203.210938 L 198.90625 199.5625 C 198.90625 199.425781 198.878906 199.292969 198.824219 199.164062 C 198.773438 199.039062 198.699219 198.925781 198.601562 198.828125 C 198.503906 198.730469 198.390625 198.652344 198.261719 198.601562 C 198.136719 198.546875 198.003906 198.523438 197.863281 198.523438 C 197.726562 198.523438 197.59375 198.546875 197.46875 198.601562 C 197.339844 198.652344 197.226562 198.730469 197.128906 198.828125 C 197.03125 198.925781 196.957031 199.039062 196.90625 199.164062 C 196.851562 199.292969 196.824219 199.425781 196.824219 199.5625 L 196.824219 201.128906 L 191.628906 197.140625 L 191.628906 193.832031 L 192.558594 193.832031 C 192.84375 193.832031 193.089844 193.730469 193.292969 193.53125 L 202.753906 184.152344 C 202.921875 183.988281 203.019531 183.789062 203.054688 183.558594 C 203.085938 183.328125 203.046875 183.113281 202.933594 182.90625 C 202.824219 182.703125 202.660156 182.554688 202.449219 182.460938 C 202.234375 182.363281 202.015625 182.34375 201.789062 182.394531 C 201.746094 182.394531 197.777344 183.328125 190.308594 185.4375 C 190.082031 185.503906 189.898438 185.628906 189.757812 185.8125 C 189.617188 186 189.546875 186.210938 189.550781 186.445312 L 189.550781 197.570312 L 187.46875 199.652344 L 185.390625 197.570312 L 185.390625 186.445312 C 185.390625 186.210938 185.320312 186.003906 185.179688 185.816406 C 185.039062 185.632812 184.855469 185.507812 184.632812 185.445312 C 177.160156 183.335938 173.199219 182.40625 173.152344 182.402344 C 172.925781 182.347656 172.703125 182.371094 172.492188 182.464844 C 172.28125 182.558594 172.117188 182.707031 172.003906 182.914062 C 171.894531 183.117188 171.851562 183.335938 171.886719 183.566406 C 171.917969 183.796875 172.019531 183.992188 172.183594 184.15625 L 181.648438 193.535156 C 181.851562 193.738281 182.097656 193.839844 182.382812 193.839844 L 183.3125 193.839844 L 183.3125 197.148438 L 178.113281 201.128906 L 178.113281 199.734375 C 178.113281 199.597656 178.089844 199.464844 178.035156 199.335938 C 177.984375 199.210938 177.90625 199.097656 177.808594 199 C 177.710938 198.902344 177.601562 198.828125 177.472656 198.773438 C 177.34375 198.71875 177.214844 198.695312 177.074219 198.695312 C 176.9375 198.695312 176.804688 198.71875 176.675781 198.773438 C 176.550781 198.824219 176.4375 198.902344 176.339844 199 C 176.242188 199.097656 176.167969 199.210938 176.113281 199.335938 C 176.0625 199.464844 176.035156 199.597656 176.035156 199.734375 L 176.035156 203.210938 C 176.035156 203.640625 176.230469 203.953125 176.613281 204.144531 C 177 204.335938 177.363281 204.300781 177.703125 204.039062 L 184.058594 199.183594 L 186.164062 201.292969 L 175.433594 209.003906 C 175.140625 209.210938 174.996094 209.496094 174.996094 209.855469 L 174.996094 218.84375 L 172.917969 218.84375 C 172.78125 218.84375 172.648438 218.867188 172.519531 218.921875 C 172.390625 218.972656 172.28125 219.050781 172.183594 219.148438 C 172.085938 219.246094 172.007812 219.359375 171.957031 219.484375 C 171.902344 219.613281 171.878906 219.746094 171.878906 219.882812 C 171.878906 220.023438 171.902344 220.15625 171.957031 220.28125 C 172.007812 220.410156 172.085938 220.523438 172.183594 220.621094 C 172.28125 220.71875 172.390625 220.792969 172.519531 220.847656 C 172.648438 220.898438 172.78125 220.925781 172.917969 220.925781 L 176.035156 220.925781 C 176.171875 220.925781 176.304688 220.898438 176.433594 220.847656 C 176.5625 220.792969 176.671875 220.71875 176.769531 220.621094 C 176.867188 220.523438 176.941406 220.410156 176.996094 220.28125 C 177.046875 220.15625 177.074219 220.023438 177.074219 219.882812 L 177.074219 210.386719 L 181.273438 207.378906 L 193.363281 207.378906 L 197.34375 210.371094 L 197.34375 219.882812 C 197.34375 220.023438 197.371094 220.15625 197.425781 220.28125 C 197.476562 220.410156 197.550781 220.523438 197.648438 220.621094 C 197.746094 220.71875 197.859375 220.792969 197.988281 220.847656 C 198.113281 220.898438 198.246094 220.925781 198.382812 220.925781 L 202.023438 220.925781 C 202.160156 220.925781 202.292969 220.898438 202.421875 220.847656 C 202.546875 220.792969 202.660156 220.71875 202.757812 220.621094 C 202.855469 220.523438 202.929688 220.410156 202.984375 220.28125 C 203.035156 220.15625 203.0625 220.023438 203.0625 219.882812 C 203.0625 219.746094 203.035156 219.613281 202.984375 219.484375 C 202.929688 219.359375 202.855469 219.246094 202.757812 219.148438 C 202.660156 219.050781 202.546875 218.972656 202.421875 218.921875 C 202.292969 218.867188 202.160156 218.84375 202.023438 218.84375 Z M 191.628906 187.238281 L 192.738281 186.925781 C 192.832031 187.15625 192.988281 187.332031 193.207031 187.453125 C 193.425781 187.574219 193.65625 187.613281 193.902344 187.566406 C 194.148438 187.515625 194.351562 187.398438 194.507812 187.203125 C 194.667969 187.011719 194.746094 186.789062 194.746094 186.539062 C 194.75 186.484375 194.75 186.429688 194.746094 186.378906 C 196.257812 185.964844 197.546875 185.621094 198.613281 185.335938 L 192.148438 191.75 L 191.628906 191.75 Z M 182.792969 191.75 L 176.347656 185.34375 C 177.386719 185.621094 178.703125 185.964844 180.214844 186.386719 C 180.203125 186.4375 180.195312 186.488281 180.195312 186.539062 C 180.191406 186.789062 180.273438 187.011719 180.429688 187.203125 C 180.589844 187.398438 180.792969 187.515625 181.039062 187.566406 C 181.28125 187.613281 181.515625 187.574219 181.734375 187.453125 C 181.953125 187.332031 182.109375 187.15625 182.199219 186.925781 L 183.3125 187.238281 L 183.3125 191.75 Z M 184.160156 205.296875 L 187.46875 202.941406 L 190.589844 205.296875 Z M 184.160156 205.296875 " fill-opacity="1" fill-rule="nonzero"/></g><g clip-path="url(#5b02dd154a)"><path fill="#000000" d="M 193.097656 209.203125 L 181.320312 209.203125 C 181.183594 209.203125 181.050781 209.230469 180.921875 209.28125 C 180.796875 209.335938 180.683594 209.410156 180.585938 209.507812 C 180.488281 209.605469 180.414062 209.71875 180.359375 209.847656 C 180.308594 209.972656 180.28125 210.105469 180.28125 210.246094 C 180.28125 210.382812 180.308594 210.515625 180.359375 210.644531 C 180.414062 210.769531 180.488281 210.882812 180.585938 210.980469 C 180.683594 211.078125 180.796875 211.15625 180.921875 211.207031 C 181.050781 211.261719 181.183594 211.285156 181.320312 211.285156 L 182.273438 211.285156 L 182.273438 219.882812 C 182.273438 220.023438 182.300781 220.15625 182.351562 220.28125 C 182.40625 220.410156 182.480469 220.523438 182.578125 220.621094 C 182.675781 220.71875 182.785156 220.792969 182.914062 220.847656 C 183.042969 220.898438 183.175781 220.925781 183.3125 220.925781 C 183.449219 220.925781 183.582031 220.898438 183.710938 220.847656 C 183.835938 220.792969 183.949219 220.71875 184.046875 220.621094 C 184.144531 220.523438 184.21875 220.410156 184.273438 220.28125 C 184.324219 220.15625 184.351562 220.023438 184.351562 219.882812 L 184.351562 211.285156 L 190.070312 211.285156 L 190.070312 219.882812 C 190.070312 220.023438 190.09375 220.15625 190.148438 220.28125 C 190.199219 220.410156 190.277344 220.523438 190.375 220.621094 C 190.46875 220.71875 190.582031 220.792969 190.710938 220.847656 C 190.835938 220.898438 190.96875 220.925781 191.109375 220.925781 C 191.246094 220.925781 191.378906 220.898438 191.507812 220.847656 C 191.632812 220.792969 191.746094 220.71875 191.84375 220.621094 C 191.941406 220.523438 192.015625 220.410156 192.070312 220.28125 C 192.121094 220.15625 192.148438 220.023438 192.148438 219.882812 L 192.148438 211.285156 L 193.097656 211.285156 C 193.238281 211.285156 193.371094 211.261719 193.496094 211.207031 C 193.625 211.15625 193.738281 211.078125 193.832031 210.980469 C 193.929688 210.882812 194.007812 210.769531 194.058594 210.644531 C 194.113281 210.515625 194.136719 210.382812 194.136719 210.246094 C 194.136719 210.105469 194.113281 209.972656 194.058594 209.847656 C 194.007812 209.71875 193.929688 209.605469 193.832031 209.507812 C 193.738281 209.410156 193.625 209.335938 193.496094 209.28125 C 193.371094 209.230469 193.238281 209.203125 193.097656 209.203125 Z M 193.097656 209.203125 " fill-opacity="1" fill-rule="nonzero"/></g><g clip-path="url(#ecf7516d9a)"><path fill="#000000" d="M 169.796875 219.882812 C 169.796875 220.023438 169.773438 220.15625 169.71875 220.28125 C 169.667969 220.410156 169.59375 220.523438 169.496094 220.621094 C 169.398438 220.71875 169.285156 220.792969 169.15625 220.847656 C 169.03125 220.898438 168.898438 220.925781 168.757812 220.925781 C 168.621094 220.925781 168.488281 220.898438 168.363281 220.847656 C 168.234375 220.792969 168.121094 220.71875 168.023438 220.621094 C 167.925781 220.523438 167.851562 220.410156 167.800781 220.28125 C 167.746094 220.15625 167.71875 220.023438 167.71875 219.882812 C 167.71875 219.746094 167.746094 219.613281 167.800781 219.484375 C 167.851562 219.359375 167.925781 219.246094 168.023438 219.148438 C 168.121094 219.050781 168.234375 218.972656 168.363281 218.921875 C 168.488281 218.867188 168.621094 218.84375 168.757812 218.84375 C 168.898438 218.84375 169.03125 218.867188 169.15625 218.921875 C 169.285156 218.972656 169.398438 219.050781 169.496094 219.148438 C 169.59375 219.246094 169.667969 219.359375 169.71875 219.484375 C 169.773438 219.613281 169.796875 219.746094 169.796875 219.882812 Z M 169.796875 219.882812 " fill-opacity="1" fill-rule="nonzero"/></g><path fill="#000000" d="M 178.113281 195.394531 C 178.113281 195.535156 178.089844 195.667969 178.035156 195.792969 C 177.984375 195.921875 177.90625 196.035156 177.808594 196.132812 C 177.710938 196.230469 177.601562 196.304688 177.472656 196.359375 C 177.34375 196.410156 177.214844 196.4375 177.074219 196.4375 C 176.9375 196.4375 176.804688 196.410156 176.675781 196.359375 C 176.550781 196.304688 176.4375 196.230469 176.339844 196.132812 C 176.242188 196.035156 176.167969 195.921875 176.113281 195.792969 C 176.0625 195.667969 176.035156 195.535156 176.035156 195.394531 C 176.035156 195.257812 176.0625 195.125 176.113281 194.996094 C 176.167969 194.871094 176.242188 194.757812 176.339844 194.660156 C 176.4375 194.5625 176.550781 194.484375 176.675781 194.433594 C 176.804688 194.378906 176.9375 194.355469 177.074219 194.355469 C 177.214844 194.355469 177.34375 194.378906 177.472656 194.433594 C 177.601562 194.484375 177.710938 194.5625 177.808594 194.660156 C 177.90625 194.757812 177.984375 194.871094 178.035156 194.996094 C 178.089844 195.125 178.113281 195.257812 178.113281 195.394531 Z M 178.113281 195.394531 " fill-opacity="1" fill-rule="nonzero"/><path fill="#000000" d="M 198.90625 195.394531 C 198.90625 195.535156 198.878906 195.667969 198.824219 195.792969 C 198.773438 195.921875 198.699219 196.035156 198.601562 196.132812 C 198.503906 196.230469 198.390625 196.304688 198.261719 196.359375 C 198.136719 196.410156 198.003906 196.4375 197.863281 196.4375 C 197.726562 196.4375 197.59375 196.410156 197.46875 196.359375 C 197.339844 196.304688 197.226562 196.230469 197.128906 196.132812 C 197.03125 196.035156 196.957031 195.921875 196.90625 195.792969 C 196.851562 195.667969 196.824219 195.535156 196.824219 195.394531 C 196.824219 195.257812 196.851562 195.125 196.90625 194.996094 C 196.957031 194.871094 197.03125 194.757812 197.128906 194.660156 C 197.226562 194.5625 197.339844 194.484375 197.46875 194.433594 C 197.59375 194.378906 197.726562 194.355469 197.863281 194.355469 C 198.003906 194.355469 198.136719 194.378906 198.261719 194.433594 C 198.390625 194.484375 198.503906 194.5625 198.601562 194.660156 C 198.699219 194.757812 198.773438 194.871094 198.824219 194.996094 C 198.878906 195.125 198.90625 195.257812 198.90625 195.394531 Z M 198.90625 195.394531 " fill-opacity="1" fill-rule="nonzero"/><g clip-path="url(#6f2f8e0d4c)"><path fill="#000000" d="M 160.445312 206.859375 C 160.304688 206.859375 160.171875 206.886719 160.046875 206.9375 C 159.917969 206.992188 159.804688 207.066406 159.707031 207.164062 C 159.609375 207.261719 159.535156 207.375 159.484375 207.5 C 159.429688 207.628906 159.402344 207.761719 159.402344 207.902344 L 159.402344 219.882812 C 159.402344 220.023438 159.429688 220.15625 159.484375 220.28125 C 159.535156 220.410156 159.609375 220.523438 159.707031 220.621094 C 159.804688 220.71875 159.917969 220.792969 160.046875 220.847656 C 160.171875 220.898438 160.304688 220.925781 160.445312 220.925781 C 160.582031 220.925781 160.714844 220.898438 160.839844 220.847656 C 160.96875 220.792969 161.082031 220.71875 161.179688 220.621094 C 161.277344 220.523438 161.351562 220.410156 161.402344 220.28125 C 161.457031 220.15625 161.484375 220.023438 161.484375 219.882812 L 161.484375 207.902344 C 161.484375 207.761719 161.457031 207.628906 161.402344 207.5 C 161.351562 207.375 161.277344 207.261719 161.179688 207.164062 C 161.082031 207.066406 160.96875 206.992188 160.839844 206.9375 C 160.714844 206.886719 160.582031 206.859375 160.445312 206.859375 Z M 160.445312 206.859375 " fill-opacity="1" fill-rule="nonzero"/></g><g clip-path="url(#de00755479)"><path fill="#000000" d="M 164.601562 200.605469 C 164.464844 200.605469 164.332031 200.632812 164.203125 200.683594 C 164.078125 200.738281 163.964844 200.8125 163.867188 200.910156 C 163.769531 201.007812 163.695312 201.121094 163.640625 201.25 C 163.589844 201.378906 163.5625 201.511719 163.5625 201.648438 L 163.5625 219.882812 C 163.5625 220.023438 163.589844 220.15625 163.640625 220.28125 C 163.695312 220.410156 163.769531 220.523438 163.867188 220.621094 C 163.964844 220.71875 164.078125 220.792969 164.203125 220.847656 C 164.332031 220.898438 164.464844 220.925781 164.601562 220.925781 C 164.738281 220.925781 164.871094 220.898438 165 220.847656 C 165.125 220.792969 165.238281 220.71875 165.335938 220.621094 C 165.433594 220.523438 165.507812 220.410156 165.5625 220.28125 C 165.613281 220.15625 165.640625 220.023438 165.640625 219.882812 L 165.640625 201.648438 C 165.640625 201.511719 165.613281 201.378906 165.5625 201.25 C 165.507812 201.121094 165.433594 201.007812 165.335938 200.910156 C 165.238281 200.8125 165.125 200.738281 165 200.683594 C 164.871094 200.632812 164.738281 200.605469 164.601562 200.605469 Z M 164.601562 200.605469 " fill-opacity="1" fill-rule="nonzero"/></g><g clip-path="url(#54de7e3527)"><path fill="#000000" d="M 156.285156 213.109375 C 156.148438 213.109375 156.015625 213.136719 155.886719 213.191406 C 155.761719 213.242188 155.648438 213.316406 155.550781 213.414062 C 155.453125 213.511719 155.378906 213.625 155.324219 213.753906 C 155.273438 213.882812 155.246094 214.015625 155.246094 214.152344 L 155.246094 219.882812 C 155.246094 220.023438 155.273438 220.15625 155.324219 220.28125 C 155.378906 220.410156 155.453125 220.523438 155.550781 220.621094 C 155.648438 220.71875 155.761719 220.792969 155.886719 220.847656 C 156.015625 220.898438 156.148438 220.925781 156.285156 220.925781 C 156.421875 220.925781 156.554688 220.898438 156.683594 220.847656 C 156.8125 220.792969 156.921875 220.71875 157.019531 220.621094 C 157.117188 220.523438 157.191406 220.410156 157.246094 220.28125 C 157.296875 220.15625 157.324219 220.023438 157.324219 219.882812 L 157.324219 214.152344 C 157.324219 214.015625 157.296875 213.882812 157.246094 213.753906 C 157.191406 213.625 157.117188 213.511719 157.019531 213.414062 C 156.921875 213.316406 156.8125 213.242188 156.683594 213.191406 C 156.554688 213.136719 156.421875 213.109375 156.285156 213.109375 Z M 156.285156 213.109375 " fill-opacity="1" fill-rule="nonzero"/></g><g clip-path="url(#bdd84a186d)"><path fill="#000000" d="M 214.496094 206.859375 C 214.359375 206.859375 214.226562 206.886719 214.097656 206.9375 C 213.972656 206.992188 213.859375 207.066406 213.761719 207.164062 C 213.664062 207.261719 213.589844 207.375 213.535156 207.5 C 213.484375 207.628906 213.457031 207.761719 213.457031 207.902344 L 213.457031 219.882812 C 213.457031 220.023438 213.484375 220.15625 213.535156 220.28125 C 213.589844 220.410156 213.664062 220.523438 213.761719 220.621094 C 213.859375 220.71875 213.972656 220.792969 214.097656 220.847656 C 214.226562 220.898438 214.359375 220.925781 214.496094 220.925781 C 214.632812 220.925781 214.765625 220.898438 214.894531 220.847656 C 215.023438 220.792969 215.132812 220.71875 215.230469 220.621094 C 215.328125 220.523438 215.402344 220.410156 215.457031 220.28125 C 215.507812 220.15625 215.535156 220.023438 215.535156 219.882812 L 215.535156 207.902344 C 215.535156 207.761719 215.507812 207.628906 215.457031 207.5 C 215.402344 207.375 215.328125 207.261719 215.230469 207.164062 C 215.132812 207.066406 215.023438 206.992188 214.894531 206.9375 C 214.765625 206.886719 214.632812 206.859375 214.496094 206.859375 Z M 214.496094 206.859375 " fill-opacity="1" fill-rule="nonzero"/></g><g clip-path="url(#7db9bc2157)"><path fill="#000000" d="M 210.339844 200.605469 C 210.199219 200.605469 210.066406 200.632812 209.941406 200.683594 C 209.8125 200.738281 209.699219 200.8125 209.605469 200.910156 C 209.507812 201.007812 209.429688 201.121094 209.378906 201.25 C 209.324219 201.378906 209.300781 201.511719 209.300781 201.648438 L 209.300781 219.882812 C 209.300781 220.023438 209.324219 220.15625 209.378906 220.28125 C 209.429688 220.410156 209.507812 220.523438 209.605469 220.621094 C 209.699219 220.71875 209.8125 220.792969 209.941406 220.847656 C 210.066406 220.898438 210.199219 220.925781 210.339844 220.925781 C 210.476562 220.925781 210.609375 220.898438 210.738281 220.847656 C 210.863281 220.792969 210.976562 220.71875 211.074219 220.621094 C 211.171875 220.523438 211.246094 220.410156 211.300781 220.28125 C 211.351562 220.15625 211.378906 220.023438 211.378906 219.882812 L 211.378906 201.648438 C 211.378906 201.511719 211.351562 201.378906 211.300781 201.25 C 211.246094 201.121094 211.171875 201.007812 211.074219 200.910156 C 210.976562 200.8125 210.863281 200.738281 210.738281 200.683594 C 210.609375 200.632812 210.476562 200.605469 210.339844 200.605469 Z M 210.339844 200.605469 " fill-opacity="1" fill-rule="nonzero"/></g><g clip-path="url(#a0512073a4)"><path fill="#000000" d="M 218.65625 213.109375 C 218.515625 213.109375 218.382812 213.136719 218.257812 213.191406 C 218.128906 213.242188 218.015625 213.316406 217.917969 213.414062 C 217.820312 213.511719 217.746094 213.625 217.695312 213.753906 C 217.640625 213.882812 217.613281 214.015625 217.613281 214.152344 L 217.613281 219.882812 C 217.613281 220.023438 217.640625 220.15625 217.695312 220.28125 C 217.746094 220.410156 217.820312 220.523438 217.917969 220.621094 C 218.015625 220.71875 218.128906 220.792969 218.257812 220.847656 C 218.382812 220.898438 218.515625 220.925781 218.65625 220.925781 C 218.792969 220.925781 218.925781 220.898438 219.050781 220.847656 C 219.179688 220.792969 219.292969 220.71875 219.390625 220.621094 C 219.488281 220.523438 219.5625 220.410156 219.613281 220.28125 C 219.667969 220.15625 219.695312 220.023438 219.695312 219.882812 L 219.695312 214.152344 C 219.695312 214.015625 219.667969 213.882812 219.613281 213.753906 C 219.5625 213.625 219.488281 213.511719 219.390625 213.414062 C 219.292969 213.316406 219.179688 213.242188 219.050781 213.191406 C 218.925781 213.136719 218.792969 213.109375 218.65625 213.109375 Z M 218.65625 213.109375 " fill-opacity="1" fill-rule="nonzero"/></g></svg>