<svg xmlns="http://www.w3.org/2000/svg" xmlns:xlink="http://www.w3.org/1999/xlink" width="500" zoomAndPan="magnify" viewBox="0 0 375 374.999991" height="500" preserveAspectRatio="xMidYMid meet" version="1.0"><defs><clipPath id="1a2be0fe99"><path d="M 168.808594 168.808594 L 206.308594 168.808594 L 206.308594 206.308594 L 168.808594 206.308594 Z M 168.808594 168.808594 " clip-rule="nonzero"/></clipPath><clipPath id="a5022d4b76"><path d="M 180 179.597656 L 194.84375 179.597656 L 194.84375 195.347656 L 180 195.347656 Z M 180 179.597656 " clip-rule="nonzero"/></clipPath><clipPath id="070627e586"><path d="M 183 186 L 191 186 L 191 195.347656 L 183 195.347656 Z M 183 186 " clip-rule="nonzero"/></clipPath><clipPath id="6de9f678c8"><path d="M 185 192 L 189 192 L 189 195.347656 L 185 195.347656 Z M 185 192 " clip-rule="nonzero"/></clipPath><clipPath id="42e328467c"><path d="M 182 194 L 184 194 L 184 195.347656 L 182 195.347656 Z M 182 194 " clip-rule="nonzero"/></clipPath><clipPath id="1adaef898d"><path d="M 180 192 L 182 192 L 182 195.347656 L 180 195.347656 Z M 180 192 " clip-rule="nonzero"/></clipPath><clipPath id="b14962c9d7"><path d="M 181 190 L 183 190 L 183 195.347656 L 181 195.347656 Z M 181 190 " clip-rule="nonzero"/></clipPath><clipPath id="1497123f17"><path d="M 179.84375 193 L 181 193 L 181 195.347656 L 179.84375 195.347656 Z M 179.84375 193 " clip-rule="nonzero"/></clipPath><clipPath id="90d0ceba7c"><path d="M 193 192 L 194 192 L 194 195.347656 L 193 195.347656 Z M 193 192 " clip-rule="nonzero"/></clipPath><clipPath id="a3bf2ece9f"><path d="M 192 190 L 193 190 L 193 195.347656 L 192 195.347656 Z M 192 190 " clip-rule="nonzero"/></clipPath><clipPath id="74e7e69316"><path d="M 194 193 L 194.84375 193 L 194.84375 195.347656 L 194 195.347656 Z M 194 193 " clip-rule="nonzero"/></clipPath></defs><path fill="#282626" d="M 187.558594 199.425781 C 185.957031 199.425781 184.402344 199.113281 182.941406 198.492188 C 181.527344 197.894531 180.257812 197.039062 179.167969 195.949219 C 178.078125 194.859375 177.222656 193.59375 176.625 192.179688 C 176.007812 190.714844 175.691406 189.160156 175.691406 187.558594 C 175.691406 185.957031 176.007812 184.402344 176.625 182.941406 C 177.222656 181.527344 178.078125 180.257812 179.167969 179.167969 C 180.257812 178.078125 181.527344 177.222656 182.941406 176.625 C 184.402344 176.007812 185.957031 175.691406 187.558594 175.691406 C 189.160156 175.691406 190.714844 176.007812 192.179688 176.625 C 193.59375 177.222656 194.859375 178.078125 195.949219 179.167969 C 197.039062 180.257812 197.894531 181.527344 198.492188 182.941406 C 199.113281 184.402344 199.425781 185.957031 199.425781 187.558594 C 199.425781 189.160156 199.113281 190.714844 198.492188 192.179688 C 197.894531 193.59375 197.039062 194.859375 195.949219 195.949219 C 194.859375 197.039062 193.59375 197.894531 192.179688 198.492188 C 190.714844 199.113281 189.160156 199.425781 187.558594 199.425781 Z M 187.558594 176.308594 C 181.355469 176.308594 176.308594 181.355469 176.308594 187.558594 C 176.308594 193.761719 181.355469 198.808594 187.558594 198.808594 C 193.761719 198.808594 198.808594 193.761719 198.808594 187.558594 C 198.808594 181.355469 193.761719 176.308594 187.558594 176.308594 Z M 187.558594 176.308594 " fill-opacity="1" fill-rule="nonzero"/><g clip-path="url(#1a2be0fe99)"><path fill="#282626" d="M 187.558594 206.308594 C 185.027344 206.308594 182.574219 205.8125 180.261719 204.835938 C 178.027344 203.890625 176.023438 202.539062 174.300781 200.816406 C 172.578125 199.097656 171.226562 197.089844 170.285156 194.859375 C 169.304688 192.546875 168.808594 190.089844 168.808594 187.558594 C 168.808594 185.027344 169.304688 182.574219 170.285156 180.261719 C 171.226562 178.027344 172.578125 176.023438 174.300781 174.300781 C 176.023438 172.578125 178.027344 171.226562 180.261719 170.285156 C 182.574219 169.304688 185.027344 168.808594 187.558594 168.808594 C 190.089844 168.808594 192.546875 169.304688 194.859375 170.285156 C 197.089844 171.226562 199.097656 172.578125 200.816406 174.300781 C 202.539062 176.023438 203.890625 178.027344 204.835938 180.261719 C 205.8125 182.574219 206.308594 185.027344 206.308594 187.558594 C 206.308594 190.089844 205.8125 192.546875 204.835938 194.859375 C 203.890625 197.089844 202.539062 199.097656 200.816406 200.816406 C 199.097656 202.539062 197.089844 203.890625 194.859375 204.835938 C 192.546875 205.8125 190.089844 206.308594 187.558594 206.308594 Z M 187.558594 169.425781 C 177.5625 169.425781 169.425781 177.5625 169.425781 187.558594 C 169.425781 197.558594 177.5625 205.695312 187.558594 205.695312 C 197.558594 205.695312 205.695312 197.558594 205.695312 187.558594 C 205.695312 177.5625 197.558594 169.425781 187.558594 169.425781 Z M 187.558594 169.425781 " fill-opacity="1" fill-rule="nonzero"/></g><path fill="#282626" d="M 183.960938 175.597656 C 183.84375 175.597656 183.738281 175.519531 183.703125 175.402344 L 182.667969 171.933594 C 182.625 171.789062 182.707031 171.636719 182.847656 171.59375 C 182.992188 171.554688 183.144531 171.632812 183.1875 171.777344 L 184.222656 175.246094 C 184.265625 175.390625 184.183594 175.542969 184.039062 175.585938 C 184.011719 175.59375 183.988281 175.597656 183.960938 175.597656 Z M 183.960938 175.597656 " fill-opacity="1" fill-rule="nonzero"/><path fill="#282626" d="M 185.648438 175.226562 C 185.5625 175.226562 185.476562 175.1875 185.425781 175.109375 C 185.25 174.851562 185.058594 174.589844 184.839844 174.308594 L 184.683594 174.113281 C 184.632812 174.046875 184.582031 173.984375 184.527344 173.917969 C 184.472656 173.851562 184.417969 173.789062 184.367188 173.722656 L 184.285156 173.628906 L 184.199219 173.53125 C 184.089844 173.40625 183.976562 173.28125 183.859375 173.15625 L 183.773438 173.0625 L 183.683594 172.972656 C 183.625 172.910156 183.566406 172.847656 183.507812 172.789062 C 183.445312 172.726562 183.382812 172.664062 183.324219 172.605469 L 183.136719 172.425781 C 183.015625 172.308594 182.886719 172.1875 182.757812 172.074219 C 182.644531 171.972656 182.636719 171.800781 182.738281 171.691406 C 182.839844 171.578125 183.007812 171.570312 183.121094 171.671875 C 183.253906 171.789062 183.382812 171.914062 183.511719 172.035156 L 183.605469 172.125 C 183.605469 172.125 183.609375 172.125 183.609375 172.125 L 183.703125 172.21875 C 183.765625 172.28125 183.828125 172.34375 183.890625 172.40625 C 183.953125 172.46875 184.015625 172.53125 184.074219 172.59375 L 184.164062 172.6875 C 184.164062 172.6875 184.167969 172.691406 184.167969 172.691406 L 184.257812 172.785156 C 184.375 172.914062 184.492188 173.046875 184.605469 173.175781 L 184.691406 173.273438 C 184.691406 173.273438 184.695312 173.273438 184.695312 173.273438 L 184.777344 173.371094 C 184.835938 173.4375 184.890625 173.507812 184.945312 173.574219 C 185 173.640625 185.054688 173.707031 185.109375 173.773438 L 185.1875 173.871094 C 185.1875 173.871094 185.1875 173.875 185.191406 173.875 L 185.269531 173.976562 C 185.496094 174.269531 185.691406 174.539062 185.871094 174.804688 C 185.957031 174.925781 185.925781 175.09375 185.800781 175.179688 C 185.753906 175.210938 185.703125 175.226562 185.648438 175.226562 Z M 185.648438 175.226562 " fill-opacity="1" fill-rule="nonzero"/><path fill="#282626" d="M 185.648438 175.214844 C 185.515625 175.214844 185.402344 175.121094 185.378906 174.984375 L 184.816406 171.410156 C 184.792969 171.261719 184.894531 171.121094 185.042969 171.097656 C 185.191406 171.078125 185.328125 171.175781 185.351562 171.324219 L 185.914062 174.902344 C 185.9375 175.050781 185.835938 175.1875 185.691406 175.210938 C 185.675781 175.214844 185.660156 175.214844 185.648438 175.214844 Z M 185.648438 175.214844 " fill-opacity="1" fill-rule="nonzero"/><path fill="#282626" d="M 183.964844 175.609375 C 183.949219 175.609375 183.9375 175.605469 183.921875 175.605469 C 183.773438 175.582031 183.671875 175.441406 183.695312 175.292969 C 183.90625 173.941406 184.289062 172.59375 184.832031 171.285156 C 184.886719 171.144531 185.046875 171.078125 185.183594 171.136719 C 185.324219 171.195312 185.386719 171.351562 185.332031 171.492188 C 184.808594 172.761719 184.4375 174.066406 184.234375 175.378906 C 184.210938 175.511719 184.097656 175.609375 183.964844 175.609375 Z M 183.964844 175.609375 " fill-opacity="1" fill-rule="nonzero"/><path fill="#282626" d="M 176.355469 181.949219 C 176.3125 181.949219 176.269531 181.941406 176.230469 181.917969 L 172.914062 180.175781 C 172.78125 180.105469 172.730469 179.941406 172.796875 179.808594 C 172.867188 179.675781 173.03125 179.625 173.164062 179.695312 L 176.484375 181.441406 C 176.617188 181.507812 176.667969 181.671875 176.597656 181.804688 C 176.546875 181.898438 176.453125 181.949219 176.355469 181.949219 Z M 176.355469 181.949219 " fill-opacity="1" fill-rule="nonzero"/><path fill="#282626" d="M 173.039062 180.207031 C 172.941406 180.207031 172.847656 180.152344 172.796875 180.058594 C 172.730469 179.929688 172.78125 179.765625 172.914062 179.695312 C 173.492188 179.390625 174.089844 179.125 174.6875 178.90625 C 174.828125 178.851562 174.984375 178.925781 175.035156 179.066406 C 175.085938 179.207031 175.015625 179.363281 174.875 179.414062 C 174.296875 179.625 173.722656 179.882812 173.164062 180.175781 C 173.125 180.195312 173.082031 180.207031 173.039062 180.207031 Z M 173.039062 180.207031 " fill-opacity="1" fill-rule="nonzero"/><path fill="#282626" d="M 171.234375 189.546875 C 171.097656 189.546875 170.980469 189.445312 170.964844 189.304688 C 170.949219 189.15625 171.058594 189.023438 171.207031 189.007812 L 174.9375 188.625 C 175.085938 188.609375 175.21875 188.71875 175.234375 188.867188 C 175.25 189.015625 175.140625 189.148438 174.992188 189.164062 L 171.261719 189.546875 C 171.253906 189.546875 171.246094 189.546875 171.234375 189.546875 Z M 171.234375 189.546875 " fill-opacity="1" fill-rule="nonzero"/><path fill="#282626" d="M 171.234375 189.546875 C 171.1875 189.546875 171.136719 189.535156 171.089844 189.507812 C 170.964844 189.425781 170.925781 189.257812 171.007812 189.132812 C 171.140625 188.917969 171.285156 188.710938 171.433594 188.5 C 171.433594 188.5 171.433594 188.5 171.4375 188.5 C 171.515625 188.386719 171.597656 188.277344 171.660156 188.195312 L 171.675781 188.175781 C 171.707031 188.132812 171.738281 188.089844 171.773438 188.046875 C 171.773438 188.046875 171.773438 188.046875 171.773438 188.042969 L 171.886719 187.898438 C 171.980469 187.78125 172.152344 187.761719 172.269531 187.855469 C 172.386719 187.949219 172.40625 188.117188 172.3125 188.238281 L 172.199219 188.378906 C 172.167969 188.417969 172.136719 188.460938 172.105469 188.5 L 172.09375 188.519531 C 172.03125 188.601562 171.953125 188.707031 171.875 188.8125 C 171.734375 189.019531 171.59375 189.21875 171.464844 189.421875 C 171.414062 189.503906 171.324219 189.550781 171.234375 189.550781 Z M 171.234375 189.546875 " fill-opacity="1" fill-rule="nonzero"/><path fill="#282626" d="M 174.90625 187.355469 C 174.902344 187.355469 174.898438 187.355469 174.894531 187.355469 L 171.148438 187.207031 C 171 187.199219 170.882812 187.074219 170.890625 186.925781 C 170.894531 186.777344 171.019531 186.660156 171.171875 186.664062 L 174.917969 186.8125 C 175.066406 186.816406 175.183594 186.945312 175.175781 187.09375 C 175.171875 187.238281 175.050781 187.355469 174.90625 187.355469 Z M 174.90625 187.355469 " fill-opacity="1" fill-rule="nonzero"/><path fill="#282626" d="M 172.101562 188.359375 C 172.027344 188.359375 171.953125 188.328125 171.898438 188.269531 C 171.824219 188.1875 171.738281 188.089844 171.652344 187.992188 C 171.652344 187.992188 171.652344 187.988281 171.652344 187.988281 C 171.570312 187.894531 171.488281 187.796875 171.410156 187.703125 C 171.328125 187.601562 171.25 187.5 171.175781 187.402344 L 171 187.175781 C 171 187.175781 171 187.171875 170.996094 187.171875 L 170.941406 187.097656 C 170.851562 186.976562 170.878906 186.804688 171 186.71875 C 171.121094 186.628906 171.289062 186.65625 171.378906 186.777344 L 171.488281 186.925781 L 171.601562 187.074219 C 171.679688 187.171875 171.75 187.265625 171.828125 187.355469 C 171.90625 187.453125 171.984375 187.546875 172.0625 187.636719 C 172.144531 187.730469 172.226562 187.824219 172.304688 187.910156 C 172.402344 188.019531 172.394531 188.191406 172.28125 188.292969 C 172.230469 188.335938 172.164062 188.359375 172.101562 188.359375 Z M 172.101562 188.359375 " fill-opacity="1" fill-rule="nonzero"/><path fill="#282626" d="M 175.125 185.453125 C 175.109375 185.453125 175.09375 185.453125 175.074219 185.449219 L 171.394531 184.738281 C 171.246094 184.710938 171.152344 184.570312 171.179688 184.421875 C 171.207031 184.273438 171.347656 184.179688 171.496094 184.207031 L 175.175781 184.917969 C 175.324219 184.945312 175.421875 185.089844 175.390625 185.234375 C 175.367188 185.363281 175.253906 185.453125 175.125 185.453125 Z M 175.125 185.453125 " fill-opacity="1" fill-rule="nonzero"/><path fill="#282626" d="M 171.445312 184.742188 C 171.367188 184.742188 171.289062 184.710938 171.234375 184.644531 C 171.140625 184.527344 171.160156 184.355469 171.273438 184.261719 C 171.371094 184.183594 171.472656 184.105469 171.570312 184.027344 C 171.660156 183.960938 171.753906 183.886719 171.871094 183.800781 L 171.894531 183.785156 C 171.9375 183.753906 171.980469 183.722656 172.023438 183.691406 L 172.203125 183.566406 C 172.292969 183.503906 172.386719 183.441406 172.480469 183.378906 C 172.582031 183.3125 172.6875 183.246094 172.789062 183.179688 L 172.863281 183.132812 C 172.867188 183.132812 172.867188 183.132812 172.867188 183.132812 L 172.945312 183.085938 L 173.097656 182.992188 C 173.308594 182.871094 173.523438 182.753906 173.726562 182.644531 C 173.859375 182.574219 174.023438 182.625 174.09375 182.757812 C 174.164062 182.890625 174.113281 183.054688 173.980469 183.125 C 173.785156 183.230469 173.574219 183.339844 173.375 183.460938 L 173.148438 183.59375 L 173.078125 183.640625 C 172.976562 183.703125 172.878906 183.765625 172.777344 183.832031 C 172.6875 183.890625 172.601562 183.949219 172.511719 184.011719 L 172.484375 184.03125 L 172.335938 184.132812 C 172.296875 184.164062 172.257812 184.191406 172.214844 184.222656 L 172.191406 184.238281 C 172.078125 184.324219 171.988281 184.390625 171.902344 184.457031 C 171.804688 184.53125 171.710938 184.605469 171.617188 184.683594 C 171.566406 184.722656 171.503906 184.742188 171.445312 184.742188 Z M 171.445312 184.742188 " fill-opacity="1" fill-rule="nonzero"/><path fill="#282626" d="M 175.59375 183.707031 C 175.566406 183.707031 175.535156 183.703125 175.507812 183.691406 L 171.964844 182.464844 C 171.824219 182.414062 171.746094 182.261719 171.796875 182.117188 C 171.84375 181.976562 172 181.902344 172.140625 181.953125 L 175.683594 183.179688 C 175.824219 183.230469 175.898438 183.382812 175.851562 183.523438 C 175.8125 183.636719 175.707031 183.707031 175.59375 183.707031 Z M 175.59375 183.707031 " fill-opacity="1" fill-rule="nonzero"/><path fill="#282626" d="M 173.363281 185.085938 C 173.273438 185.085938 173.183594 185.042969 173.132812 184.960938 C 173.074219 184.867188 173.007812 184.761719 172.941406 184.65625 C 172.878906 184.550781 172.820312 184.445312 172.757812 184.339844 C 172.703125 184.242188 172.648438 184.140625 172.59375 184.042969 L 172.5625 183.980469 C 172.511719 183.886719 172.457031 183.785156 172.410156 183.6875 C 172.355469 183.578125 172.300781 183.464844 172.246094 183.355469 C 172.195312 183.242188 172.144531 183.128906 172.089844 183.011719 L 172.015625 182.839844 C 172.015625 182.835938 172.015625 182.835938 172.011719 182.832031 L 171.929688 182.632812 C 171.886719 182.523438 171.839844 182.414062 171.800781 182.304688 C 171.746094 182.164062 171.816406 182.007812 171.957031 181.953125 C 172.097656 181.902344 172.253906 181.972656 172.304688 182.109375 C 172.347656 182.214844 172.390625 182.324219 172.433594 182.425781 L 172.445312 182.457031 L 172.511719 182.625 L 172.585938 182.792969 C 172.640625 182.90625 172.6875 183.015625 172.738281 183.121094 C 172.789062 183.230469 172.84375 183.339844 172.894531 183.445312 C 172.941406 183.539062 172.992188 183.636719 173.039062 183.726562 L 173.070312 183.785156 C 173.125 183.882812 173.175781 183.976562 173.230469 184.070312 C 173.289062 184.171875 173.347656 184.277344 173.40625 184.375 C 173.46875 184.476562 173.535156 184.582031 173.589844 184.667969 C 173.671875 184.796875 173.632812 184.964844 173.507812 185.042969 C 173.460938 185.074219 173.414062 185.085938 173.363281 185.085938 Z M 173.363281 185.085938 " fill-opacity="1" fill-rule="nonzero"/><path fill="#282626" d="M 200.554688 188.144531 C 200.445312 188.144531 200.34375 188.078125 200.304688 187.972656 C 200.25 187.832031 200.320312 187.675781 200.457031 187.621094 C 201.589844 187.1875 202.699219 186.628906 203.753906 185.960938 C 203.882812 185.878906 204.050781 185.917969 204.128906 186.046875 C 204.210938 186.171875 204.171875 186.339844 204.042969 186.417969 C 202.957031 187.105469 201.816406 187.679688 200.652344 188.128906 C 200.621094 188.140625 200.589844 188.144531 200.554688 188.144531 Z M 200.554688 188.144531 " fill-opacity="1" fill-rule="nonzero"/><path fill="#282626" d="M 203.957031 188.214844 C 203.914062 188.214844 203.871094 188.203125 203.828125 188.179688 C 202.738281 187.589844 201.59375 187.105469 200.429688 186.746094 C 200.285156 186.699219 200.207031 186.550781 200.25 186.40625 C 200.292969 186.261719 200.445312 186.183594 200.589844 186.226562 C 201.789062 186.597656 202.964844 187.09375 204.089844 187.703125 C 204.21875 187.773438 204.269531 187.9375 204.199219 188.070312 C 204.148438 188.160156 204.054688 188.214844 203.960938 188.214844 Z M 203.957031 188.214844 " fill-opacity="1" fill-rule="nonzero"/><path fill="#282626" d="M 203.894531 190.683594 C 203.878906 190.683594 203.863281 190.683594 203.847656 190.679688 L 200.15625 190.042969 C 200.007812 190.015625 199.910156 189.875 199.933594 189.726562 C 199.960938 189.582031 200.097656 189.480469 200.246094 189.507812 L 203.941406 190.144531 C 204.089844 190.171875 204.1875 190.3125 204.164062 190.460938 C 204.140625 190.589844 204.023438 190.683594 203.894531 190.683594 Z M 203.894531 190.683594 " fill-opacity="1" fill-rule="nonzero"/><path fill="#282626" d="M 202.832031 191.671875 C 202.753906 191.671875 202.675781 191.636719 202.621094 191.570312 C 202.527344 191.457031 202.542969 191.285156 202.660156 191.191406 C 202.839844 191.042969 203.011719 190.886719 203.1875 190.726562 C 203.347656 190.574219 203.53125 190.402344 203.699219 190.226562 C 203.804688 190.117188 203.976562 190.113281 204.082031 190.21875 C 204.191406 190.324219 204.195312 190.492188 204.089844 190.601562 C 203.910156 190.789062 203.722656 190.96875 203.558594 191.121094 C 203.558594 191.121094 203.554688 191.125 203.554688 191.125 C 203.375 191.289062 203.195312 191.449219 203.003906 191.609375 C 202.953125 191.648438 202.894531 191.671875 202.832031 191.671875 Z M 202.832031 191.671875 " fill-opacity="1" fill-rule="nonzero"/><path fill="#282626" d="M 202.796875 191.660156 C 202.6875 191.660156 202.585938 191.597656 202.542969 191.488281 C 202.460938 191.273438 202.363281 191.058594 202.269531 190.855469 C 202.179688 190.660156 202.078125 190.453125 201.96875 190.25 C 201.898438 190.117188 201.949219 189.953125 202.082031 189.882812 C 202.214844 189.8125 202.378906 189.863281 202.449219 189.992188 C 202.5625 190.210938 202.667969 190.425781 202.761719 190.628906 C 202.761719 190.628906 202.761719 190.628906 202.761719 190.632812 C 202.859375 190.839844 202.957031 191.0625 203.046875 191.289062 C 203.101562 191.429688 203.035156 191.585938 202.894531 191.640625 C 202.863281 191.65625 202.828125 191.660156 202.796875 191.660156 Z M 202.796875 191.660156 " fill-opacity="1" fill-rule="nonzero"/><path fill="#282626" d="M 181.453125 203.074219 C 181.355469 203.074219 181.261719 203.023438 181.210938 202.929688 C 181.160156 202.828125 181.105469 202.722656 181.054688 202.621094 C 181.054688 202.617188 181.050781 202.617188 181.050781 202.617188 C 181.003906 202.519531 180.953125 202.417969 180.902344 202.304688 L 180.828125 202.148438 C 180.828125 202.148438 180.828125 202.148438 180.828125 202.144531 L 180.757812 201.988281 C 180.714844 201.886719 180.667969 201.78125 180.625 201.675781 C 180.566406 201.539062 180.632812 201.378906 180.769531 201.320312 C 180.90625 201.265625 181.066406 201.328125 181.125 201.464844 C 181.167969 201.566406 181.210938 201.671875 181.253906 201.773438 L 181.320312 201.921875 L 181.394531 202.074219 C 181.445312 202.183594 181.492188 202.28125 181.539062 202.375 C 181.589844 202.476562 181.640625 202.578125 181.691406 202.679688 C 181.761719 202.8125 181.710938 202.976562 181.578125 203.042969 C 181.539062 203.066406 181.496094 203.074219 181.453125 203.074219 Z M 181.453125 203.074219 " fill-opacity="1" fill-rule="nonzero"/><path fill="#282626" d="M 179.503906 202.125 C 179.378906 202.125 179.261719 202.035156 179.238281 201.90625 C 179.210938 201.757812 179.308594 201.617188 179.457031 201.589844 C 179.566406 201.566406 179.679688 201.546875 179.789062 201.523438 C 179.84375 201.511719 179.902344 201.5 179.953125 201.488281 L 180.117188 201.453125 C 180.339844 201.402344 180.558594 201.34375 180.761719 201.289062 C 180.90625 201.25 181.054688 201.335938 181.09375 201.480469 C 181.132812 201.625 181.046875 201.773438 180.902344 201.8125 C 180.695312 201.871094 180.46875 201.929688 180.238281 201.980469 L 180.070312 202.019531 C 180.015625 202.03125 179.957031 202.042969 179.894531 202.054688 C 179.785156 202.078125 179.667969 202.101562 179.554688 202.121094 C 179.539062 202.125 179.523438 202.125 179.503906 202.125 Z M 179.503906 202.125 " fill-opacity="1" fill-rule="nonzero"/><path fill="#282626" d="M 180.394531 202.6875 C 180.355469 202.6875 180.3125 202.679688 180.273438 202.660156 C 180.140625 202.59375 180.085938 202.429688 180.152344 202.296875 L 181.800781 198.929688 C 181.867188 198.796875 182.027344 198.742188 182.164062 198.804688 C 182.296875 198.871094 182.355469 199.035156 182.289062 199.167969 L 180.636719 202.535156 C 180.589844 202.632812 180.496094 202.6875 180.394531 202.6875 Z M 180.394531 202.6875 " fill-opacity="1" fill-rule="nonzero"/><path fill="#282626" d="M 190.375 204.152344 C 190.246094 204.152344 190.128906 204.058594 190.109375 203.925781 L 189.488281 200.226562 C 189.464844 200.082031 189.5625 199.941406 189.710938 199.917969 C 189.859375 199.890625 190 199.992188 190.023438 200.140625 L 190.644531 203.835938 C 190.667969 203.984375 190.566406 204.125 190.421875 204.148438 C 190.40625 204.152344 190.390625 204.152344 190.375 204.152344 Z M 190.375 204.152344 " fill-opacity="1" fill-rule="nonzero"/><path fill="#282626" d="M 190.375 204.152344 C 190.335938 204.152344 190.296875 204.144531 190.261719 204.125 C 189.761719 203.894531 189.269531 203.628906 188.796875 203.34375 C 188.667969 203.265625 188.628906 203.097656 188.707031 202.96875 C 188.785156 202.839844 188.949219 202.800781 189.078125 202.878906 C 189.535156 203.15625 190.011719 203.410156 190.492188 203.636719 C 190.625 203.699219 190.683594 203.859375 190.621094 203.996094 C 190.574219 204.09375 190.476562 204.152344 190.375 204.152344 Z M 190.375 204.152344 " fill-opacity="1" fill-rule="nonzero"/><path fill="#282626" d="M 191.019531 201.121094 C 190.980469 201.121094 190.9375 201.109375 190.902344 201.09375 C 190.457031 200.878906 190.019531 200.640625 189.605469 200.378906 C 189.480469 200.300781 189.441406 200.132812 189.519531 200.007812 C 189.601562 199.878906 189.769531 199.839844 189.894531 199.921875 C 190.289062 200.167969 190.707031 200.398438 191.136719 200.605469 C 191.269531 200.667969 191.328125 200.832031 191.261719 200.964844 C 191.214844 201.0625 191.121094 201.121094 191.019531 201.121094 Z M 191.019531 201.121094 " fill-opacity="1" fill-rule="nonzero"/><path fill="#282626" d="M 186.542969 204.261719 C 186.476562 204.261719 186.40625 204.234375 186.355469 204.183594 C 185.925781 203.773438 185.523438 203.328125 185.148438 202.867188 C 185.054688 202.75 185.070312 202.578125 185.1875 202.484375 C 185.304688 202.390625 185.476562 202.410156 185.570312 202.527344 C 185.929688 202.972656 186.320312 203.398438 186.730469 203.796875 C 186.839844 203.898438 186.839844 204.070312 186.738281 204.179688 C 186.683594 204.234375 186.613281 204.261719 186.542969 204.261719 Z M 186.542969 204.261719 " fill-opacity="1" fill-rule="nonzero"/><path fill="#282626" d="M 183.796875 203.84375 C 183.699219 203.84375 183.601562 203.789062 183.554688 203.695312 C 183.488281 203.5625 183.542969 203.398438 183.675781 203.332031 C 184.191406 203.070312 184.691406 202.777344 185.164062 202.464844 C 185.289062 202.378906 185.457031 202.414062 185.539062 202.539062 C 185.621094 202.664062 185.589844 202.832031 185.464844 202.914062 C 184.972656 203.242188 184.457031 203.542969 183.917969 203.8125 C 183.878906 203.835938 183.839844 203.84375 183.796875 203.84375 Z M 183.796875 203.84375 " fill-opacity="1" fill-rule="nonzero"/><path fill="#282626" d="M 185.5625 201.625 C 185.476562 201.625 185.394531 201.585938 185.339844 201.511719 C 185.253906 201.390625 185.28125 201.222656 185.402344 201.132812 C 185.832031 200.832031 186.234375 200.503906 186.597656 200.167969 C 186.707031 200.066406 186.878906 200.070312 186.980469 200.183594 C 187.082031 200.292969 187.078125 200.464844 186.964844 200.566406 C 186.582031 200.917969 186.164062 201.257812 185.71875 201.574219 C 185.671875 201.609375 185.617188 201.625 185.5625 201.625 Z M 185.5625 201.625 " fill-opacity="1" fill-rule="nonzero"/><path fill="#282626" d="M 185.519531 201.621094 C 185.4375 201.621094 185.355469 201.582031 185.304688 201.511719 C 184.976562 201.082031 184.679688 200.632812 184.414062 200.175781 C 184.339844 200.046875 184.382812 199.882812 184.511719 199.808594 C 184.640625 199.730469 184.808594 199.777344 184.882812 199.90625 C 185.136719 200.34375 185.421875 200.773438 185.734375 201.183594 C 185.828125 201.304688 185.804688 201.472656 185.683594 201.566406 C 185.632812 201.601562 185.578125 201.621094 185.519531 201.621094 Z M 185.519531 201.621094 " fill-opacity="1" fill-rule="nonzero"/><path fill="#282626" d="M 186.542969 204.28125 C 186.535156 204.28125 186.53125 204.28125 186.523438 204.277344 C 186.375 204.269531 186.261719 204.140625 186.273438 203.992188 L 186.511719 200.355469 C 186.523438 200.207031 186.652344 200.09375 186.800781 200.101562 C 186.949219 200.113281 187.0625 200.242188 187.054688 200.390625 L 186.8125 204.027344 C 186.804688 204.167969 186.683594 204.28125 186.542969 204.28125 Z M 186.542969 204.28125 " fill-opacity="1" fill-rule="nonzero"/><path fill="#282626" d="M 178.636719 199.207031 C 178.585938 199.207031 178.535156 199.191406 178.488281 199.164062 C 178.023438 198.867188 177.570312 198.542969 177.136719 198.199219 C 177.019531 198.105469 177 197.933594 177.09375 197.816406 C 177.1875 197.699219 177.359375 197.679688 177.476562 197.773438 C 177.894531 198.109375 178.332031 198.421875 178.78125 198.707031 C 178.90625 198.785156 178.945312 198.953125 178.863281 199.082031 C 178.8125 199.160156 178.726562 199.207031 178.636719 199.207031 Z M 178.636719 199.207031 " fill-opacity="1" fill-rule="nonzero"/><path fill="#282626" d="M 176.402344 199.847656 C 176.277344 199.847656 176.164062 199.757812 176.136719 199.628906 C 176.109375 199.480469 176.203125 199.339844 176.351562 199.3125 C 177.109375 199.164062 177.855469 198.964844 178.5625 198.71875 C 178.703125 198.671875 178.855469 198.746094 178.90625 198.886719 C 178.953125 199.027344 178.878906 199.183594 178.738281 199.230469 C 178.007812 199.484375 177.238281 199.691406 176.453125 199.84375 C 176.4375 199.847656 176.421875 199.847656 176.402344 199.847656 Z M 176.402344 199.847656 " fill-opacity="1" fill-rule="nonzero"/><path fill="#282626" d="M 177.292969 198.242188 C 177.160156 198.242188 177.042969 198.148438 177.023438 198.011719 C 177.003906 197.863281 177.105469 197.726562 177.253906 197.703125 C 177.984375 197.59375 178.703125 197.429688 179.390625 197.210938 C 179.535156 197.167969 179.6875 197.246094 179.730469 197.390625 C 179.777344 197.53125 179.699219 197.683594 179.554688 197.730469 C 178.839844 197.953125 178.09375 198.125 177.332031 198.242188 C 177.320312 198.242188 177.304688 198.242188 177.292969 198.242188 Z M 177.292969 198.242188 " fill-opacity="1" fill-rule="nonzero"/><path fill="#282626" d="M 176.761719 178.113281 C 176.625 178.113281 176.507812 178.007812 176.492188 177.871094 C 176.40625 177.0625 176.382812 176.238281 176.429688 175.421875 C 176.4375 175.269531 176.566406 175.15625 176.714844 175.164062 C 176.863281 175.171875 176.980469 175.300781 176.96875 175.449219 C 176.925781 176.242188 176.949219 177.035156 177.03125 177.8125 C 177.046875 177.960938 176.941406 178.09375 176.792969 178.109375 C 176.78125 178.109375 176.773438 178.113281 176.761719 178.113281 Z M 176.761719 178.113281 " fill-opacity="1" fill-rule="nonzero"/><path fill="#282626" d="M 179.03125 178.296875 C 179.015625 178.296875 179.003906 178.292969 178.988281 178.292969 C 178.273438 178.171875 177.527344 178.109375 176.769531 178.109375 C 176.765625 178.109375 176.761719 178.109375 176.757812 178.109375 C 176.609375 178.109375 176.488281 177.988281 176.488281 177.835938 C 176.488281 177.6875 176.609375 177.566406 176.757812 177.566406 L 176.769531 177.566406 C 177.558594 177.566406 178.335938 177.628906 179.078125 177.757812 C 179.226562 177.78125 179.324219 177.921875 179.300781 178.070312 C 179.277344 178.203125 179.164062 178.296875 179.03125 178.296875 Z M 179.03125 178.296875 " fill-opacity="1" fill-rule="nonzero"/><path fill="#282626" d="M 177.996094 176.890625 C 177.984375 176.890625 177.972656 176.890625 177.964844 176.886719 C 177.195312 176.796875 176.402344 176.769531 175.601562 176.804688 C 175.453125 176.8125 175.328125 176.695312 175.320312 176.546875 C 175.3125 176.398438 175.429688 176.269531 175.578125 176.265625 C 176.40625 176.226562 177.230469 176.257812 178.027344 176.351562 C 178.175781 176.367188 178.28125 176.503906 178.265625 176.652344 C 178.25 176.789062 178.132812 176.890625 177.996094 176.890625 Z M 177.996094 176.890625 " fill-opacity="1" fill-rule="nonzero"/><path fill="#282626" d="M 178.160156 179.160156 C 178.027344 179.160156 177.914062 179.066406 177.890625 178.933594 C 177.769531 178.179688 177.714844 177.398438 177.71875 176.613281 C 177.722656 176.464844 177.84375 176.34375 177.992188 176.34375 C 177.992188 176.34375 177.992188 176.34375 177.996094 176.34375 C 178.144531 176.347656 178.265625 176.46875 178.261719 176.617188 C 178.253906 177.375 178.3125 178.125 178.425781 178.847656 C 178.449219 178.996094 178.351562 179.136719 178.203125 179.160156 C 178.1875 179.160156 178.171875 179.160156 178.160156 179.160156 Z M 178.160156 179.160156 " fill-opacity="1" fill-rule="nonzero"/><path fill="#282626" d="M 179.488281 175.164062 C 179.476562 175.164062 179.46875 175.164062 179.457031 175.160156 C 179.308594 175.144531 179.203125 175.011719 179.21875 174.863281 L 179.230469 174.761719 C 179.230469 174.761719 179.230469 174.757812 179.230469 174.757812 L 179.242188 174.664062 C 179.242188 174.664062 179.242188 174.660156 179.242188 174.660156 L 179.269531 174.46875 C 179.269531 174.46875 179.269531 174.46875 179.269531 174.464844 L 179.3125 174.175781 C 179.3125 174.171875 179.3125 174.171875 179.3125 174.171875 L 179.328125 174.074219 C 179.378906 173.769531 179.425781 173.515625 179.476562 173.285156 C 179.511719 173.140625 179.65625 173.046875 179.800781 173.082031 C 179.949219 173.113281 180.039062 173.257812 180.007812 173.402344 C 179.957031 173.625 179.910156 173.867188 179.863281 174.164062 L 179.832031 174.351562 L 179.804688 174.542969 L 179.769531 174.824219 L 179.757812 174.921875 C 179.742188 175.058594 179.625 175.164062 179.488281 175.164062 Z M 179.488281 175.164062 " fill-opacity="1" fill-rule="nonzero"/><path fill="#282626" d="M 181.960938 176.238281 C 181.917969 176.238281 181.871094 176.226562 181.832031 176.203125 C 181.734375 176.152344 181.640625 176.097656 181.546875 176.050781 C 181.449219 176 181.351562 175.949219 181.253906 175.902344 C 181.085938 175.816406 180.902344 175.730469 180.65625 175.625 C 180.558594 175.578125 180.464844 175.539062 180.351562 175.496094 C 180.25 175.453125 180.144531 175.410156 180.039062 175.371094 C 179.941406 175.332031 179.839844 175.296875 179.722656 175.253906 L 179.71875 175.253906 C 179.613281 175.214844 179.507812 175.179688 179.402344 175.144531 C 179.257812 175.097656 179.179688 174.945312 179.226562 174.804688 C 179.273438 174.660156 179.425781 174.582031 179.566406 174.628906 C 179.679688 174.664062 179.789062 174.703125 179.898438 174.742188 L 179.902344 174.742188 C 180.023438 174.785156 180.132812 174.824219 180.230469 174.863281 C 180.339844 174.90625 180.449219 174.949219 180.558594 174.992188 C 180.660156 175.035156 180.769531 175.078125 180.878906 175.128906 C 181.128906 175.238281 181.320312 175.328125 181.496094 175.417969 C 181.597656 175.464844 181.699219 175.515625 181.796875 175.570312 C 181.796875 175.570312 181.796875 175.570312 181.800781 175.570312 C 181.894531 175.621094 181.996094 175.675781 182.09375 175.730469 C 182.226562 175.804688 182.273438 175.96875 182.199219 176.097656 C 182.152344 176.1875 182.058594 176.238281 181.960938 176.238281 Z M 181.960938 176.238281 " fill-opacity="1" fill-rule="nonzero"/><path fill="#282626" d="M 181.191406 174.21875 C 181.148438 174.21875 181.109375 174.210938 181.070312 174.191406 C 180.59375 173.964844 180.117188 173.765625 179.652344 173.601562 C 179.511719 173.550781 179.4375 173.394531 179.488281 173.253906 C 179.539062 173.113281 179.691406 173.039062 179.832031 173.089844 C 180.316406 173.261719 180.8125 173.46875 181.304688 173.703125 L 181.308594 173.703125 C 181.441406 173.769531 181.5 173.929688 181.433594 174.066406 C 181.386719 174.164062 181.289062 174.21875 181.191406 174.21875 Z M 181.191406 174.21875 " fill-opacity="1" fill-rule="nonzero"/><path fill="#282626" d="M 180.789062 176.886719 C 180.785156 176.886719 180.78125 176.886719 180.777344 176.886719 C 180.628906 176.878906 180.511719 176.753906 180.519531 176.605469 C 180.566406 175.695312 180.703125 174.777344 180.925781 173.878906 C 180.960938 173.730469 181.105469 173.644531 181.253906 173.679688 C 181.398438 173.714844 181.488281 173.863281 181.449219 174.007812 C 181.234375 174.875 181.105469 175.757812 181.0625 176.632812 C 181.054688 176.777344 180.933594 176.886719 180.789062 176.886719 Z M 180.789062 176.886719 " fill-opacity="1" fill-rule="nonzero"/><path fill="#282626" d="M 194.855469 202.230469 C 194.816406 202.230469 194.777344 202.222656 194.738281 202.203125 C 194.605469 202.140625 194.546875 201.976562 194.613281 201.84375 C 194.835938 201.378906 195.035156 200.90625 195.203125 200.433594 C 195.253906 200.289062 195.410156 200.21875 195.550781 200.265625 C 195.691406 200.316406 195.765625 200.472656 195.714844 200.613281 C 195.539062 201.105469 195.332031 201.597656 195.101562 202.078125 C 195.054688 202.175781 194.957031 202.230469 194.855469 202.230469 Z M 194.855469 202.230469 " fill-opacity="1" fill-rule="nonzero"/><path fill="#282626" d="M 195.460938 200.796875 C 195.449219 200.796875 195.433594 200.796875 195.421875 200.792969 C 194.914062 200.722656 194.410156 200.621094 193.921875 200.496094 C 193.777344 200.460938 193.691406 200.3125 193.726562 200.167969 C 193.765625 200.023438 193.910156 199.933594 194.058594 199.972656 C 194.523438 200.089844 195.011719 200.1875 195.5 200.257812 C 195.648438 200.277344 195.75 200.414062 195.726562 200.5625 C 195.710938 200.699219 195.59375 200.796875 195.460938 200.796875 Z M 195.460938 200.796875 " fill-opacity="1" fill-rule="nonzero"/><path fill="#282626" d="M 194.59375 201.28125 C 194.574219 201.28125 194.554688 201.277344 194.535156 201.273438 L 194.351562 201.234375 C 194.347656 201.234375 194.347656 201.234375 194.34375 201.234375 L 194.160156 201.191406 C 194.160156 201.191406 194.15625 201.191406 194.15625 201.191406 L 193.882812 201.121094 C 193.878906 201.121094 193.878906 201.121094 193.875 201.121094 L 193.785156 201.097656 C 193.664062 201.0625 193.542969 201.027344 193.421875 200.992188 C 193.421875 200.992188 193.417969 200.992188 193.417969 200.992188 C 193.300781 200.957031 193.179688 200.917969 193.0625 200.878906 C 192.917969 200.832031 192.839844 200.679688 192.886719 200.539062 C 192.933594 200.394531 193.085938 200.316406 193.230469 200.363281 C 193.34375 200.402344 193.460938 200.4375 193.574219 200.472656 C 193.691406 200.507812 193.808594 200.542969 193.929688 200.574219 L 194.015625 200.597656 L 194.105469 200.617188 L 194.285156 200.664062 L 194.464844 200.707031 L 194.648438 200.746094 C 194.796875 200.777344 194.890625 200.917969 194.859375 201.066406 C 194.832031 201.195312 194.71875 201.28125 194.59375 201.28125 Z M 194.59375 201.28125 " fill-opacity="1" fill-rule="nonzero"/><path fill="#282626" d="M 193.144531 200.894531 C 193.105469 200.894531 193.066406 200.886719 193.027344 200.867188 C 192.894531 200.804688 192.835938 200.640625 192.902344 200.507812 C 192.953125 200.398438 193.003906 200.289062 193.054688 200.183594 C 193.101562 200.074219 193.152344 199.964844 193.195312 199.855469 L 193.230469 199.773438 L 193.261719 199.695312 L 193.328125 199.53125 L 193.390625 199.367188 L 193.449219 199.203125 C 193.5 199.0625 193.652344 198.988281 193.792969 199.039062 C 193.933594 199.089844 194.007812 199.246094 193.957031 199.386719 L 193.898438 199.554688 C 193.898438 199.554688 193.898438 199.558594 193.898438 199.558594 L 193.832031 199.726562 L 193.734375 199.980469 C 193.730469 199.980469 193.730469 199.984375 193.730469 199.984375 L 193.695312 200.066406 C 193.648438 200.179688 193.597656 200.292969 193.550781 200.402344 C 193.550781 200.40625 193.546875 200.40625 193.546875 200.40625 C 193.496094 200.519531 193.445312 200.628906 193.390625 200.742188 C 193.34375 200.839844 193.246094 200.894531 193.144531 200.894531 Z M 193.144531 200.894531 " fill-opacity="1" fill-rule="nonzero"/><path fill="#282626" d="M 198.195312 200.546875 C 198.121094 200.546875 198.042969 200.511719 197.988281 200.449219 L 195.585938 197.570312 C 195.492188 197.453125 195.507812 197.28125 195.621094 197.1875 C 195.738281 197.089844 195.90625 197.105469 196.003906 197.222656 L 198.40625 200.101562 C 198.5 200.214844 198.484375 200.386719 198.371094 200.480469 C 198.320312 200.523438 198.257812 200.546875 198.195312 200.546875 Z M 198.195312 200.546875 " fill-opacity="1" fill-rule="nonzero"/><path fill="#282626" d="M 200.488281 198.210938 C 200.429688 198.210938 200.367188 198.191406 200.320312 198.152344 L 197.398438 195.800781 C 197.28125 195.707031 197.261719 195.539062 197.355469 195.421875 C 197.449219 195.304688 197.621094 195.285156 197.738281 195.378906 L 200.660156 197.730469 C 200.773438 197.824219 200.792969 197.996094 200.699219 198.109375 C 200.644531 198.175781 200.566406 198.210938 200.488281 198.210938 Z M 200.488281 198.210938 " fill-opacity="1" fill-rule="nonzero"/><path fill="#282626" d="M 198.773438 197.757812 C 198.644531 197.757812 198.53125 197.664062 198.507812 197.53125 C 198.480469 197.386719 198.582031 197.246094 198.726562 197.21875 C 199.257812 197.125 199.792969 196.996094 200.316406 196.839844 C 200.460938 196.796875 200.613281 196.878906 200.65625 197.019531 C 200.699219 197.164062 200.617188 197.316406 200.472656 197.359375 C 199.925781 197.523438 199.371094 197.65625 198.820312 197.753906 C 198.804688 197.753906 198.789062 197.757812 198.773438 197.757812 Z M 198.773438 197.757812 " fill-opacity="1" fill-rule="nonzero"/><path fill="#282626" d="M 202.765625 194.183594 C 202.730469 194.183594 202.695312 194.179688 202.660156 194.164062 L 199.347656 192.777344 C 199.210938 192.71875 199.144531 192.5625 199.203125 192.421875 C 199.261719 192.285156 199.417969 192.21875 199.558594 192.277344 L 202.867188 193.664062 C 203.007812 193.722656 203.070312 193.878906 203.015625 194.019531 C 202.96875 194.121094 202.871094 194.183594 202.765625 194.183594 Z M 202.765625 194.183594 " fill-opacity="1" fill-rule="nonzero"/><path fill="#282626" d="M 202.148438 195.605469 C 202.105469 195.605469 202.0625 195.59375 202.019531 195.574219 L 198.855469 193.882812 C 198.722656 193.8125 198.671875 193.648438 198.742188 193.515625 C 198.8125 193.382812 198.976562 193.332031 199.109375 193.40625 L 202.277344 195.097656 C 202.40625 195.167969 202.457031 195.332031 202.386719 195.460938 C 202.339844 195.554688 202.246094 195.605469 202.148438 195.605469 Z M 202.148438 195.605469 " fill-opacity="1" fill-rule="nonzero"/><path fill="#282626" d="M 199.859375 194.316406 C 199.734375 194.316406 199.621094 194.230469 199.59375 194.101562 C 199.566406 193.953125 199.660156 193.8125 199.808594 193.78125 C 200.410156 193.65625 201.015625 193.492188 201.609375 193.28125 C 201.753906 193.234375 201.90625 193.308594 201.957031 193.449219 C 202.003906 193.589844 201.929688 193.746094 201.789062 193.792969 C 201.171875 194.011719 200.542969 194.183594 199.914062 194.3125 C 199.898438 194.316406 199.878906 194.316406 199.859375 194.316406 Z M 199.859375 194.316406 " fill-opacity="1" fill-rule="nonzero"/><path fill="#282626" d="M 187.378906 175.128906 C 187.234375 175.128906 187.113281 175.011719 187.109375 174.863281 L 187.027344 171.117188 C 187.023438 170.964844 187.144531 170.84375 187.292969 170.839844 C 187.441406 170.835938 187.566406 170.953125 187.570312 171.105469 L 187.652344 174.851562 C 187.65625 175.003906 187.535156 175.125 187.386719 175.128906 C 187.382812 175.128906 187.382812 175.128906 187.378906 175.128906 Z M 187.378906 175.128906 " fill-opacity="1" fill-rule="nonzero"/><path fill="#282626" d="M 187.324219 172.492188 C 187.242188 172.492188 187.160156 172.453125 187.109375 172.386719 C 187.015625 172.265625 187.039062 172.097656 187.15625 172.003906 C 187.664062 171.613281 188.207031 171.25 188.769531 170.921875 C 188.898438 170.84375 189.066406 170.886719 189.140625 171.019531 C 189.214844 171.148438 189.171875 171.3125 189.042969 171.386719 C 188.5 171.707031 187.976562 172.058594 187.488281 172.433594 C 187.4375 172.472656 187.378906 172.492188 187.324219 172.492188 Z M 187.324219 172.492188 " fill-opacity="1" fill-rule="nonzero"/><path fill="#282626" d="M 187.339844 173.253906 C 187.261719 173.253906 187.183594 173.222656 187.128906 173.15625 C 187.035156 173.039062 187.050781 172.867188 187.167969 172.773438 C 187.648438 172.382812 188.167969 172.015625 188.707031 171.6875 C 188.835938 171.609375 189 171.648438 189.078125 171.777344 C 189.15625 171.902344 189.117188 172.070312 188.988281 172.148438 C 188.46875 172.46875 187.972656 172.820312 187.511719 173.195312 C 187.460938 173.234375 187.398438 173.253906 187.339844 173.253906 Z M 187.339844 173.253906 " fill-opacity="1" fill-rule="nonzero"/><path fill="#282626" d="M 196.148438 178.386719 C 196.085938 178.386719 196.019531 178.363281 195.96875 178.316406 C 195.859375 178.214844 195.847656 178.046875 195.949219 177.933594 L 198.449219 175.140625 C 198.550781 175.03125 198.722656 175.019531 198.832031 175.121094 C 198.945312 175.21875 198.953125 175.390625 198.855469 175.503906 L 196.351562 178.296875 C 196.296875 178.355469 196.226562 178.386719 196.148438 178.386719 Z M 196.148438 178.386719 " fill-opacity="1" fill-rule="nonzero"/><path fill="#282626" d="M 198.414062 177.992188 C 198.277344 177.992188 198.15625 177.882812 198.144531 177.742188 C 198.097656 177.148438 198.007812 176.546875 197.875 175.949219 C 197.84375 175.804688 197.9375 175.660156 198.082031 175.628906 C 198.230469 175.59375 198.375 175.6875 198.40625 175.835938 C 198.539062 176.453125 198.636719 177.082031 198.6875 177.699219 C 198.699219 177.847656 198.585938 177.976562 198.4375 177.988281 C 198.429688 177.992188 198.421875 177.992188 198.414062 177.992188 Z M 198.414062 177.992188 " fill-opacity="1" fill-rule="nonzero"/><path fill="#282626" d="M 198.980469 177.472656 C 198.84375 177.472656 198.726562 177.371094 198.710938 177.230469 C 198.644531 176.617188 198.535156 176 198.390625 175.386719 C 198.355469 175.238281 198.441406 175.09375 198.589844 175.058594 C 198.734375 175.023438 198.878906 175.113281 198.914062 175.257812 C 199.070312 175.894531 199.179688 176.539062 199.25 177.171875 C 199.265625 177.320312 199.15625 177.457031 199.007812 177.472656 C 199 177.472656 198.988281 177.472656 198.980469 177.472656 Z M 198.980469 177.472656 " fill-opacity="1" fill-rule="nonzero"/><path fill="#282626" d="M 198.222656 180.761719 C 198.132812 180.761719 198.046875 180.71875 197.996094 180.640625 C 197.914062 180.515625 197.945312 180.347656 198.070312 180.265625 L 201.179688 178.171875 C 201.304688 178.089844 201.472656 178.121094 201.554688 178.246094 C 201.640625 178.371094 201.605469 178.539062 201.480469 178.621094 L 198.371094 180.714844 C 198.324219 180.746094 198.273438 180.761719 198.222656 180.761719 Z M 198.222656 180.761719 " fill-opacity="1" fill-rule="nonzero"/><path fill="#282626" d="M 199.105469 181.691406 C 199.085938 181.691406 199.066406 181.691406 199.046875 181.6875 C 198.898438 181.652344 198.808594 181.507812 198.84375 181.363281 C 198.964844 180.820312 199.050781 180.261719 199.101562 179.695312 C 199.113281 179.542969 199.242188 179.433594 199.394531 179.445312 C 199.542969 179.460938 199.652344 179.589844 199.640625 179.738281 C 199.589844 180.332031 199.5 180.917969 199.371094 181.480469 C 199.34375 181.609375 199.230469 181.691406 199.105469 181.691406 Z M 199.105469 181.691406 " fill-opacity="1" fill-rule="nonzero"/><path fill="#282626" d="M 201.1875 180.570312 C 201.175781 180.570312 201.160156 180.570312 201.148438 180.570312 C 201 180.546875 200.898438 180.410156 200.917969 180.261719 C 201.003906 179.652344 201.054688 179.023438 201.058594 178.394531 C 201.0625 178.246094 201.183594 178.125 201.332031 178.125 C 201.484375 178.128906 201.605469 178.25 201.601562 178.398438 C 201.59375 179.054688 201.546875 179.707031 201.457031 180.339844 C 201.4375 180.472656 201.320312 180.570312 201.1875 180.570312 Z M 201.1875 180.570312 " fill-opacity="1" fill-rule="nonzero"/><path fill="#282626" d="M 201.144531 180.59375 C 201.105469 180.59375 201.066406 180.585938 201.027344 180.570312 C 200.488281 180.3125 199.929688 180.097656 199.371094 179.921875 C 199.226562 179.875 199.148438 179.722656 199.191406 179.582031 C 199.238281 179.4375 199.390625 179.359375 199.53125 179.402344 C 200.113281 179.585938 200.695312 179.8125 201.257812 180.078125 C 201.394531 180.140625 201.453125 180.304688 201.390625 180.4375 C 201.34375 180.535156 201.246094 180.59375 201.144531 180.59375 Z M 201.144531 180.59375 " fill-opacity="1" fill-rule="nonzero"/><path fill="#282626" d="M 203.546875 184.035156 C 203.496094 184.035156 203.449219 184.023438 203.402344 183.996094 C 202.722656 183.574219 202.015625 183.214844 201.300781 182.921875 C 201.160156 182.863281 201.097656 182.707031 201.152344 182.566406 C 201.210938 182.429688 201.367188 182.363281 201.507812 182.417969 C 202.246094 182.722656 202.980469 183.097656 203.6875 183.53125 C 203.816406 183.609375 203.855469 183.777344 203.777344 183.90625 C 203.726562 183.988281 203.636719 184.035156 203.546875 184.035156 Z M 203.546875 184.035156 " fill-opacity="1" fill-rule="nonzero"/><path fill="#282626" d="M 200.15625 184.847656 C 200.097656 184.847656 200.039062 184.828125 199.988281 184.789062 C 199.871094 184.699219 199.851562 184.527344 199.945312 184.410156 C 200.398438 183.832031 200.808594 183.203125 201.167969 182.539062 C 201.242188 182.40625 201.40625 182.359375 201.535156 182.429688 C 201.667969 182.5 201.71875 182.667969 201.644531 182.796875 C 201.273438 183.488281 200.84375 184.144531 200.371094 184.746094 C 200.316406 184.8125 200.238281 184.847656 200.15625 184.847656 Z M 200.15625 184.847656 " fill-opacity="1" fill-rule="nonzero"/><path fill="#282626" d="M 190.511719 175.460938 C 190.492188 175.460938 190.46875 175.457031 190.449219 175.453125 C 190.304688 175.417969 190.210938 175.273438 190.246094 175.125 L 191.09375 171.472656 C 191.125 171.328125 191.269531 171.238281 191.417969 171.269531 C 191.5625 171.304688 191.652344 171.449219 191.621094 171.597656 L 190.773438 175.25 C 190.746094 175.375 190.632812 175.460938 190.511719 175.460938 Z M 190.511719 175.460938 " fill-opacity="1" fill-rule="nonzero"/><path fill="#282626" d="M 191.753906 175.8125 C 191.722656 175.8125 191.695312 175.808594 191.664062 175.800781 C 191.523438 175.75 191.449219 175.597656 191.496094 175.457031 L 192.324219 173.035156 C 192.371094 172.894531 192.527344 172.820312 192.667969 172.867188 C 192.808594 172.914062 192.886719 173.070312 192.835938 173.210938 L 192.011719 175.628906 C 191.972656 175.742188 191.867188 175.8125 191.753906 175.8125 Z M 191.753906 175.8125 " fill-opacity="1" fill-rule="nonzero"/><path fill="#282626" d="M 192.582031 173.394531 C 192.492188 173.394531 192.40625 173.351562 192.355469 173.273438 C 191.996094 172.730469 191.59375 172.199219 191.15625 171.699219 C 191.058594 171.589844 191.066406 171.417969 191.179688 171.316406 C 191.292969 171.21875 191.464844 171.230469 191.5625 171.34375 C 192.019531 171.863281 192.4375 172.410156 192.808594 172.976562 C 192.890625 173.101562 192.855469 173.269531 192.730469 173.351562 C 192.683594 173.378906 192.632812 173.394531 192.582031 173.394531 Z M 192.582031 173.394531 " fill-opacity="1" fill-rule="nonzero"/><path fill="#282626" d="M 193.515625 176.5625 C 193.472656 176.5625 193.429688 176.550781 193.390625 176.53125 C 193.257812 176.460938 193.207031 176.296875 193.273438 176.164062 L 195.007812 172.839844 C 195.074219 172.707031 195.238281 172.65625 195.371094 172.726562 C 195.503906 172.792969 195.554688 172.957031 195.488281 173.089844 L 193.753906 176.414062 C 193.707031 176.507812 193.613281 176.5625 193.515625 176.5625 Z M 193.515625 176.5625 " fill-opacity="1" fill-rule="nonzero"/><path fill="#282626" d="M 195.75 175.515625 C 195.636719 175.515625 195.53125 175.441406 195.492188 175.328125 C 195.296875 174.722656 195.054688 174.117188 194.769531 173.53125 C 194.703125 173.398438 194.761719 173.234375 194.894531 173.167969 C 195.027344 173.105469 195.191406 173.160156 195.257812 173.296875 C 195.550781 173.902344 195.804688 174.53125 196.007812 175.160156 C 196.054688 175.300781 195.976562 175.457031 195.832031 175.5 C 195.804688 175.511719 195.777344 175.515625 195.75 175.515625 Z M 195.75 175.515625 " fill-opacity="1" fill-rule="nonzero"/><path fill="#282626" d="M 193.898438 175.824219 C 193.777344 175.824219 193.664062 175.742188 193.636719 175.617188 C 193.601562 175.472656 193.6875 175.324219 193.835938 175.289062 C 194.445312 175.140625 195.082031 175.035156 195.722656 174.972656 C 195.875 174.960938 196.003906 175.070312 196.019531 175.21875 C 196.035156 175.367188 195.925781 175.5 195.777344 175.511719 C 195.160156 175.574219 194.546875 175.675781 193.960938 175.816406 C 193.941406 175.820312 193.917969 175.824219 193.898438 175.824219 Z M 193.898438 175.824219 " fill-opacity="1" fill-rule="nonzero"/><path fill="#282626" d="M 175.136719 197.105469 C 175.121094 197.105469 175.101562 197.105469 175.082031 197.101562 C 174.832031 197.046875 174.621094 197 174.410156 196.941406 L 174.21875 196.890625 C 174.171875 196.878906 174.121094 196.867188 174.074219 196.851562 C 173.964844 196.820312 173.851562 196.785156 173.742188 196.753906 C 173.597656 196.707031 173.515625 196.558594 173.558594 196.414062 C 173.605469 196.269531 173.753906 196.191406 173.898438 196.234375 C 174.007812 196.265625 174.117188 196.300781 174.226562 196.332031 C 174.269531 196.34375 174.316406 196.355469 174.359375 196.367188 L 174.550781 196.417969 C 174.75 196.472656 174.953125 196.519531 175.195312 196.570312 C 175.34375 196.601562 175.433594 196.746094 175.402344 196.894531 C 175.375 197.019531 175.265625 197.105469 175.140625 197.105469 Z M 175.136719 197.105469 " fill-opacity="1" fill-rule="nonzero"/><path fill="#282626" d="M 173.792969 196.722656 C 173.78125 196.722656 173.769531 196.722656 173.757812 196.71875 C 173.609375 196.699219 173.503906 196.5625 173.523438 196.414062 C 173.589844 195.917969 173.667969 195.472656 173.765625 195.046875 C 173.800781 194.902344 173.945312 194.8125 174.089844 194.84375 C 174.238281 194.878906 174.328125 195.023438 174.292969 195.167969 C 174.203125 195.578125 174.125 196.007812 174.0625 196.488281 C 174.042969 196.625 173.925781 196.722656 173.792969 196.722656 Z M 173.792969 196.722656 " fill-opacity="1" fill-rule="nonzero"/><path fill="#282626" d="M 173.785156 196.757812 C 173.695312 196.757812 173.605469 196.714844 173.554688 196.632812 C 173.472656 196.507812 173.511719 196.339844 173.636719 196.257812 L 176.738281 194.269531 C 176.863281 194.1875 177.03125 194.222656 177.109375 194.351562 C 177.191406 194.476562 177.15625 194.644531 177.027344 194.726562 L 173.929688 196.714844 C 173.882812 196.742188 173.832031 196.757812 173.785156 196.757812 Z M 173.785156 196.757812 " fill-opacity="1" fill-rule="nonzero"/><path fill="#282626" d="M 172.167969 193.585938 C 172.058594 193.585938 171.953125 193.515625 171.914062 193.40625 C 171.863281 193.265625 171.933594 193.109375 172.074219 193.058594 L 175.59375 191.761719 C 175.734375 191.710938 175.890625 191.785156 175.941406 191.925781 C 175.992188 192.0625 175.921875 192.21875 175.78125 192.273438 L 172.261719 193.566406 C 172.230469 193.578125 172.199219 193.585938 172.167969 193.585938 Z M 172.167969 193.585938 " fill-opacity="1" fill-rule="nonzero"/><path fill="#282626" d="M 172.292969 193.539062 C 172.28125 193.539062 172.269531 193.535156 172.257812 193.535156 C 172.109375 193.515625 172.003906 193.378906 172.023438 193.230469 C 172.105469 192.609375 172.222656 191.992188 172.375 191.398438 C 172.414062 191.253906 172.5625 191.164062 172.707031 191.203125 C 172.851562 191.238281 172.9375 191.386719 172.902344 191.53125 C 172.753906 192.105469 172.640625 192.703125 172.5625 193.300781 C 172.542969 193.4375 172.429688 193.539062 172.292969 193.539062 Z M 172.292969 193.539062 " fill-opacity="1" fill-rule="nonzero"/><path fill="#282626" d="M 173.917969 192.9375 C 173.859375 192.9375 173.796875 192.917969 173.746094 192.878906 C 173.292969 192.503906 172.851562 192.089844 172.441406 191.652344 C 172.339844 191.542969 172.34375 191.371094 172.453125 191.269531 C 172.5625 191.164062 172.734375 191.171875 172.835938 191.28125 C 173.234375 191.703125 173.65625 192.097656 174.089844 192.460938 C 174.207031 192.554688 174.222656 192.726562 174.128906 192.839844 C 174.074219 192.90625 173.996094 192.9375 173.917969 192.9375 Z M 173.917969 192.9375 " fill-opacity="1" fill-rule="nonzero"/><path fill="#282626" d="M 173.917969 192.9375 C 173.902344 192.9375 173.886719 192.9375 173.871094 192.933594 C 173.722656 192.910156 173.625 192.769531 173.652344 192.621094 C 173.75 192.054688 173.886719 191.492188 174.058594 190.953125 C 174.101562 190.8125 174.253906 190.730469 174.394531 190.777344 C 174.539062 190.820312 174.617188 190.972656 174.574219 191.117188 C 174.410156 191.632812 174.28125 192.171875 174.183594 192.714844 C 174.160156 192.847656 174.046875 192.941406 173.917969 192.941406 Z M 173.917969 192.9375 " fill-opacity="1" fill-rule="nonzero"/><path fill="#282626" d="M 175.542969 192.339844 C 175.488281 192.339844 175.429688 192.324219 175.382812 192.289062 C 174.949219 191.96875 174.527344 191.613281 174.128906 191.230469 C 174.019531 191.125 174.015625 190.957031 174.121094 190.847656 C 174.222656 190.738281 174.394531 190.734375 174.503906 190.839844 C 174.882812 191.207031 175.289062 191.546875 175.703125 191.851562 C 175.824219 191.941406 175.851562 192.109375 175.761719 192.230469 C 175.707031 192.304688 175.625 192.339844 175.542969 192.339844 Z M 175.542969 192.339844 " fill-opacity="1" fill-rule="nonzero"/><g clip-path="url(#a5022d4b76)"><path fill="#000000" d="M 194.417969 185.195312 C 194.53125 184.9375 194.691406 184.34375 194.296875 183.597656 C 194.375 183.316406 194.363281 183.035156 194.265625 182.757812 C 194.171875 182.484375 194.003906 182.257812 193.769531 182.089844 C 193.636719 181.597656 193.367188 181.203125 192.957031 180.910156 C 192.878906 180.65625 192.625 180.007812 192.039062 179.667969 C 191.976562 179.625 191.902344 179.605469 191.828125 179.601562 C 191.714844 179.605469 191.625 179.644531 191.550781 179.726562 C 191.476562 179.808594 191.441406 179.90625 191.449219 180.015625 L 191.449219 184.113281 C 191.109375 183.484375 190.636719 182.984375 190.03125 182.617188 C 189.425781 182.25 188.769531 182.0625 188.0625 182.0625 L 186.613281 182.0625 C 185.90625 182.0625 185.25 182.25 184.644531 182.617188 C 184.039062 182.984375 183.566406 183.484375 183.230469 184.113281 L 183.230469 180.015625 C 183.234375 179.90625 183.203125 179.808594 183.125 179.726562 C 183.050781 179.644531 182.960938 179.605469 182.851562 179.601562 C 182.777344 179.605469 182.707031 179.621094 182.640625 179.660156 C 182.054688 180 181.804688 180.644531 181.726562 180.902344 C 181.316406 181.199219 181.046875 181.589844 180.914062 182.082031 C 180.675781 182.253906 180.511719 182.476562 180.414062 182.753906 C 180.320312 183.027344 180.308594 183.308594 180.386719 183.59375 C 179.984375 184.34375 180.144531 184.9375 180.265625 185.191406 C 179.84375 186.011719 180.316406 186.757812 180.339844 186.789062 L 180.378906 186.851562 L 182.746094 187.882812 L 182.746094 194.113281 C 182.746094 194.277344 182.824219 194.359375 182.988281 194.359375 C 183.148438 194.359375 183.230469 194.277344 183.230469 194.113281 L 183.230469 186.03125 C 183.230469 185.855469 183.242188 185.679688 183.265625 185.503906 L 191.410156 185.503906 C 191.433594 185.679688 191.449219 185.855469 191.449219 186.03125 L 191.449219 195.097656 C 191.449219 195.261719 191.527344 195.34375 191.691406 195.34375 C 191.851562 195.34375 191.929688 195.261719 191.929688 195.097656 L 191.929688 187.882812 L 194.304688 186.859375 L 194.34375 186.796875 C 194.363281 186.765625 194.839844 186.019531 194.417969 185.195312 Z M 180.703125 186.46875 C 180.542969 186.160156 180.523438 185.84375 180.644531 185.515625 L 181.8125 186.023438 C 181.875 186.050781 181.9375 186.054688 182 186.027344 C 182.0625 186.003906 182.109375 185.960938 182.136719 185.894531 C 182.164062 185.832031 182.164062 185.765625 182.136719 185.703125 C 182.109375 185.636719 182.0625 185.59375 182 185.570312 L 180.707031 185.011719 C 180.640625 184.875 180.515625 184.492188 180.746094 183.96875 L 181.753906 184.386719 C 181.902344 184.449219 182.007812 184.40625 182.070312 184.253906 C 182.132812 184.101562 182.085938 183.996094 181.9375 183.933594 L 180.855469 183.480469 C 180.753906 183.132812 180.832031 182.832031 181.089844 182.578125 L 181.832031 182.917969 C 181.980469 182.988281 182.085938 182.945312 182.152344 182.796875 C 182.21875 182.644531 182.179688 182.539062 182.03125 182.46875 L 181.390625 182.175781 C 181.488281 181.851562 181.664062 181.582031 181.921875 181.367188 L 182.097656 181.433594 C 182.25 181.492188 182.351562 181.441406 182.40625 181.285156 C 182.460938 181.132812 182.414062 181.027344 182.261719 180.96875 L 182.222656 180.957031 C 182.328125 180.648438 182.5 180.390625 182.746094 180.183594 L 182.746094 187.347656 Z M 183.378906 185.011719 C 183.480469 184.660156 183.640625 184.332031 183.847656 184.027344 C 184.054688 183.722656 184.304688 183.460938 184.597656 183.242188 C 184.886719 183.019531 185.207031 182.851562 185.550781 182.734375 C 185.894531 182.617188 186.25 182.554688 186.613281 182.554688 L 187.097656 182.554688 L 187.097656 183.046875 L 185.644531 183.046875 C 185.484375 183.046875 185.40625 183.128906 185.40625 183.292969 C 185.40625 183.457031 185.484375 183.539062 185.644531 183.539062 L 187.097656 183.539062 L 187.097656 184.03125 L 184.558594 184.03125 C 184.398438 184.03125 184.316406 184.113281 184.316406 184.277344 C 184.316406 184.441406 184.398438 184.519531 184.558594 184.519531 L 187.097656 184.519531 L 187.097656 185.011719 Z M 187.582031 185.011719 L 187.582031 184.519531 L 190.09375 184.519531 C 190.253906 184.519531 190.335938 184.441406 190.335938 184.277344 C 190.335938 184.113281 190.253906 184.03125 190.09375 184.03125 L 187.582031 184.03125 L 187.582031 183.539062 L 189.007812 183.539062 C 189.167969 183.539062 189.25 183.457031 189.25 183.292969 C 189.25 183.128906 189.167969 183.046875 189.007812 183.046875 L 187.582031 183.046875 L 187.582031 182.554688 L 188.0625 182.554688 C 188.425781 182.554688 188.78125 182.617188 189.125 182.734375 C 189.472656 182.851562 189.789062 183.019531 190.078125 183.242188 C 190.371094 183.460938 190.621094 183.722656 190.828125 184.027344 C 191.039062 184.332031 191.195312 184.660156 191.300781 185.011719 Z M 193.972656 186.46875 L 191.929688 187.347656 L 191.929688 180.183594 C 192.175781 180.390625 192.351562 180.648438 192.457031 180.957031 L 192.414062 180.972656 C 192.347656 180.996094 192.300781 181.035156 192.273438 181.097656 C 192.246094 181.160156 192.242188 181.226562 192.265625 181.289062 C 192.289062 181.355469 192.332031 181.398438 192.394531 181.429688 C 192.457031 181.457031 192.515625 181.457031 192.582031 181.433594 L 192.753906 181.367188 C 193.011719 181.582031 193.1875 181.851562 193.285156 182.175781 L 192.648438 182.46875 C 192.5 182.535156 192.460938 182.644531 192.527344 182.792969 C 192.589844 182.941406 192.699219 182.984375 192.84375 182.917969 L 193.589844 182.578125 C 193.847656 182.828125 193.925781 183.128906 193.820312 183.480469 L 192.742188 183.929688 C 192.59375 183.992188 192.546875 184.097656 192.609375 184.25 C 192.671875 184.402344 192.777344 184.445312 192.925781 184.386719 L 193.933594 183.964844 C 194.164062 184.492188 194.035156 184.875 193.972656 185.011719 L 192.679688 185.570312 C 192.613281 185.59375 192.570312 185.640625 192.542969 185.703125 C 192.515625 185.769531 192.515625 185.832031 192.542969 185.894531 C 192.566406 185.960938 192.613281 186.003906 192.679688 186.03125 C 192.742188 186.054688 192.804688 186.050781 192.867188 186.023438 L 194.03125 185.519531 C 194.152344 185.84375 194.132812 186.160156 193.972656 186.46875 Z M 193.972656 186.46875 " fill-opacity="1" fill-rule="nonzero"/></g><g clip-path="url(#070627e586)"><path fill="#000000" d="M 190.722656 194.851562 L 190.117188 194.851562 L 190.117188 192.726562 C 190.117188 192.644531 190.085938 192.582031 190.023438 192.53125 L 187.636719 190.710938 L 188.128906 190.210938 L 189.609375 191.355469 C 189.6875 191.417969 189.773438 191.425781 189.863281 191.382812 C 189.953125 191.335938 189.996094 191.261719 189.996094 191.160156 L 189.996094 190.300781 C 189.996094 190.136719 189.917969 190.054688 189.753906 190.054688 C 189.59375 190.054688 189.515625 190.136719 189.515625 190.300781 L 189.515625 190.667969 L 188.304688 189.730469 L 188.304688 188.949219 L 188.523438 188.949219 C 188.589844 188.949219 188.644531 188.925781 188.691406 188.875 L 190.894531 186.664062 C 190.980469 186.578125 190.992188 186.476562 190.933594 186.371094 C 190.875 186.261719 190.785156 186.222656 190.667969 186.25 C 190.660156 186.25 189.734375 186.46875 188 186.96875 C 187.878906 187 187.820312 187.078125 187.820312 187.203125 L 187.820312 189.828125 L 187.339844 190.320312 L 186.855469 189.828125 L 186.855469 187.203125 C 186.855469 187.082031 186.796875 187 186.679688 186.96875 C 184.941406 186.46875 184.019531 186.25 184.007812 186.25 C 183.890625 186.222656 183.800781 186.261719 183.742188 186.371094 C 183.683594 186.480469 183.695312 186.578125 183.785156 186.664062 L 185.984375 188.878906 C 186.03125 188.925781 186.089844 188.949219 186.15625 188.949219 L 186.371094 188.949219 L 186.371094 189.730469 L 185.164062 190.667969 L 185.164062 190.339844 C 185.164062 190.175781 185.082031 190.09375 184.921875 190.09375 C 184.761719 190.09375 184.679688 190.175781 184.679688 190.339844 L 184.679688 191.160156 C 184.679688 191.261719 184.722656 191.335938 184.8125 191.382812 C 184.902344 191.425781 184.988281 191.417969 185.066406 191.355469 L 186.546875 190.210938 L 187.035156 190.707031 L 184.539062 192.527344 C 184.472656 192.578125 184.4375 192.644531 184.4375 192.730469 L 184.4375 194.851562 L 183.953125 194.851562 C 183.792969 194.851562 183.710938 194.933594 183.710938 195.097656 C 183.710938 195.261719 183.792969 195.34375 183.953125 195.34375 L 184.679688 195.34375 C 184.839844 195.34375 184.921875 195.261719 184.921875 195.097656 L 184.921875 192.855469 L 185.898438 192.144531 L 188.710938 192.144531 L 189.636719 192.851562 L 189.636719 195.097656 C 189.636719 195.261719 189.714844 195.34375 189.875 195.34375 L 190.722656 195.34375 C 190.882812 195.34375 190.964844 195.261719 190.964844 195.097656 C 190.964844 194.933594 190.882812 194.851562 190.722656 194.851562 Z M 188.304688 187.390625 L 188.5625 187.316406 C 188.613281 187.445312 188.703125 187.496094 188.835938 187.46875 C 188.964844 187.441406 189.03125 187.363281 189.03125 187.226562 C 189.03125 187.214844 189.03125 187.199219 189.03125 187.1875 C 189.382812 187.089844 189.683594 187.011719 189.929688 186.941406 L 188.425781 188.457031 L 188.304688 188.457031 Z M 186.25 188.457031 L 184.75 186.945312 C 184.992188 187.011719 185.300781 187.089844 185.652344 187.191406 C 185.648438 187.203125 185.648438 187.214844 185.644531 187.226562 C 185.644531 187.363281 185.710938 187.441406 185.84375 187.46875 C 185.972656 187.496094 186.0625 187.445312 186.113281 187.316406 L 186.371094 187.390625 L 186.371094 188.457031 Z M 186.570312 191.652344 L 187.339844 191.097656 L 188.0625 191.652344 Z M 186.570312 191.652344 " fill-opacity="1" fill-rule="nonzero"/></g><g clip-path="url(#6de9f678c8)"><path fill="#000000" d="M 188.648438 192.574219 L 185.910156 192.574219 C 185.746094 192.574219 185.667969 192.65625 185.667969 192.820312 C 185.667969 192.984375 185.746094 193.066406 185.910156 193.066406 L 186.128906 193.066406 L 186.128906 195.097656 C 186.128906 195.261719 186.210938 195.34375 186.371094 195.34375 C 186.53125 195.34375 186.613281 195.261719 186.613281 195.097656 L 186.613281 193.066406 L 187.941406 193.066406 L 187.941406 195.097656 C 187.941406 195.261719 188.023438 195.34375 188.183594 195.34375 C 188.34375 195.34375 188.425781 195.261719 188.425781 195.097656 L 188.425781 193.066406 L 188.648438 193.066406 C 188.808594 193.066406 188.890625 192.984375 188.890625 192.820312 C 188.890625 192.65625 188.808594 192.574219 188.648438 192.574219 Z M 188.648438 192.574219 " fill-opacity="1" fill-rule="nonzero"/></g><g clip-path="url(#42e328467c)"><path fill="#000000" d="M 183.230469 195.097656 C 183.230469 195.261719 183.148438 195.34375 182.988281 195.34375 C 182.824219 195.34375 182.746094 195.261719 182.746094 195.097656 C 182.746094 194.933594 182.824219 194.851562 182.988281 194.851562 C 183.148438 194.851562 183.230469 194.933594 183.230469 195.097656 Z M 183.230469 195.097656 " fill-opacity="1" fill-rule="nonzero"/></g><path fill="#000000" d="M 185.164062 189.316406 C 185.164062 189.480469 185.082031 189.5625 184.921875 189.5625 C 184.761719 189.5625 184.679688 189.480469 184.679688 189.316406 C 184.679688 189.152344 184.761719 189.070312 184.921875 189.070312 C 185.082031 189.070312 185.164062 189.152344 185.164062 189.316406 Z M 185.164062 189.316406 " fill-opacity="1" fill-rule="nonzero"/><path fill="#000000" d="M 189.996094 189.316406 C 189.996094 189.480469 189.917969 189.5625 189.753906 189.5625 C 189.59375 189.5625 189.515625 189.480469 189.515625 189.316406 C 189.515625 189.152344 189.59375 189.070312 189.753906 189.070312 C 189.917969 189.070312 189.996094 189.152344 189.996094 189.316406 Z M 189.996094 189.316406 " fill-opacity="1" fill-rule="nonzero"/><g clip-path="url(#1adaef898d)"><path fill="#000000" d="M 181.054688 192.023438 C 180.890625 192.023438 180.8125 192.105469 180.8125 192.269531 L 180.8125 195.097656 C 180.8125 195.261719 180.890625 195.34375 181.054688 195.34375 C 181.214844 195.34375 181.292969 195.261719 181.292969 195.097656 L 181.292969 192.269531 C 181.292969 192.105469 181.214844 192.023438 181.054688 192.023438 Z M 181.054688 192.023438 " fill-opacity="1" fill-rule="nonzero"/></g><g clip-path="url(#b14962c9d7)"><path fill="#000000" d="M 182.019531 190.546875 C 181.859375 190.546875 181.777344 190.628906 181.777344 190.792969 L 181.777344 195.097656 C 181.777344 195.261719 181.859375 195.34375 182.019531 195.34375 C 182.179688 195.34375 182.261719 195.261719 182.261719 195.097656 L 182.261719 190.792969 C 182.261719 190.628906 182.179688 190.546875 182.019531 190.546875 Z M 182.019531 190.546875 " fill-opacity="1" fill-rule="nonzero"/></g><g clip-path="url(#1497123f17)"><path fill="#000000" d="M 180.085938 193.496094 C 179.925781 193.496094 179.84375 193.578125 179.84375 193.742188 L 179.84375 195.097656 C 179.84375 195.261719 179.925781 195.34375 180.085938 195.34375 C 180.246094 195.34375 180.328125 195.261719 180.328125 195.097656 L 180.328125 193.742188 C 180.328125 193.578125 180.246094 193.496094 180.085938 193.496094 Z M 180.085938 193.496094 " fill-opacity="1" fill-rule="nonzero"/></g><g clip-path="url(#90d0ceba7c)"><path fill="#000000" d="M 193.625 192.023438 C 193.460938 192.023438 193.382812 192.105469 193.382812 192.269531 L 193.382812 195.097656 C 193.382812 195.261719 193.460938 195.34375 193.625 195.34375 C 193.785156 195.34375 193.867188 195.261719 193.867188 195.097656 L 193.867188 192.269531 C 193.867188 192.105469 193.785156 192.023438 193.625 192.023438 Z M 193.625 192.023438 " fill-opacity="1" fill-rule="nonzero"/></g><g clip-path="url(#a3bf2ece9f)"><path fill="#000000" d="M 192.65625 190.546875 C 192.496094 190.546875 192.414062 190.628906 192.414062 190.792969 L 192.414062 195.097656 C 192.414062 195.261719 192.496094 195.34375 192.65625 195.34375 C 192.816406 195.34375 192.898438 195.261719 192.898438 195.097656 L 192.898438 190.792969 C 192.898438 190.628906 192.816406 190.546875 192.65625 190.546875 Z M 192.65625 190.546875 " fill-opacity="1" fill-rule="nonzero"/></g><g clip-path="url(#74e7e69316)"><path fill="#000000" d="M 194.589844 193.496094 C 194.429688 193.496094 194.347656 193.578125 194.347656 193.742188 L 194.347656 195.097656 C 194.347656 195.261719 194.429688 195.34375 194.589844 195.34375 C 194.75 195.34375 194.832031 195.261719 194.832031 195.097656 L 194.832031 193.742188 C 194.832031 193.578125 194.75 193.496094 194.589844 193.496094 Z M 194.589844 193.496094 " fill-opacity="1" fill-rule="nonzero"/></g></svg>