<svg xmlns="http://www.w3.org/2000/svg" xmlns:xlink="http://www.w3.org/1999/xlink" width="500" zoomAndPan="magnify" viewBox="0 0 375 374.999991" height="500" preserveAspectRatio="xMidYMid meet" version="1.0"><defs><clipPath id="fcbbeca427"><path d="M 70.867188 70.867188 L 304.117188 70.867188 L 304.117188 304.117188 L 70.867188 304.117188 Z M 70.867188 70.867188 " clip-rule="nonzero"/></clipPath><clipPath id="022a3f40b1"><path d="M 103 109 L 273 109 L 273 266.46875 L 103 266.46875 Z M 103 109 " clip-rule="nonzero"/></clipPath></defs><path fill="#282626" d="M 187.492188 261.300781 C 177.527344 261.300781 167.859375 259.351562 158.757812 255.5 C 149.96875 251.78125 142.074219 246.460938 135.296875 239.683594 C 128.519531 232.902344 123.195312 225.011719 119.480469 216.222656 C 115.628906 207.121094 113.675781 197.453125 113.675781 187.488281 C 113.675781 177.523438 115.628906 167.859375 119.480469 158.757812 C 123.195312 149.96875 128.519531 142.074219 135.296875 135.296875 C 142.074219 128.515625 149.96875 123.195312 158.757812 119.476562 C 167.859375 115.628906 177.527344 113.675781 187.492188 113.675781 C 197.453125 113.675781 207.121094 115.628906 216.222656 119.476562 C 225.011719 123.195312 232.90625 128.515625 239.683594 135.296875 C 246.460938 142.074219 251.785156 149.964844 255.503906 158.757812 C 259.351562 167.859375 261.304688 177.523438 261.304688 187.488281 C 261.304688 197.453125 259.351562 207.121094 255.503906 216.222656 C 251.785156 225.011719 246.460938 232.902344 239.683594 239.683594 C 232.90625 246.460938 225.011719 251.78125 216.222656 255.5 C 207.121094 259.351562 197.453125 261.300781 187.492188 261.300781 Z M 187.492188 117.507812 C 148.902344 117.507812 117.511719 148.902344 117.511719 187.488281 C 117.511719 226.074219 148.902344 257.46875 187.492188 257.46875 C 226.078125 257.46875 257.46875 226.078125 257.46875 187.488281 C 257.46875 148.902344 226.078125 117.507812 187.492188 117.507812 Z M 187.492188 117.507812 " fill-opacity="1" fill-rule="nonzero"/><g clip-path="url(#fcbbeca427)"><path fill="#282626" d="M 187.492188 304.113281 C 171.746094 304.113281 156.472656 301.03125 142.09375 294.949219 C 128.207031 289.074219 115.734375 280.664062 105.023438 269.953125 C 94.3125 259.246094 85.90625 246.773438 80.03125 232.882812 C 73.949219 218.507812 70.867188 203.234375 70.867188 187.492188 C 70.867188 171.746094 73.949219 156.472656 80.03125 142.09375 C 85.90625 128.207031 94.316406 115.734375 105.027344 105.023438 C 115.734375 94.3125 128.207031 85.90625 142.097656 80.03125 C 156.472656 73.949219 171.746094 70.867188 187.492188 70.867188 C 203.234375 70.867188 218.507812 73.949219 232.886719 80.03125 C 246.773438 85.90625 259.246094 94.316406 269.957031 105.027344 C 280.667969 115.734375 289.074219 128.207031 294.949219 142.097656 C 301.03125 156.476562 304.117188 171.75 304.117188 187.492188 C 304.117188 203.234375 301.03125 218.507812 294.949219 232.886719 C 289.074219 246.777344 280.667969 259.246094 269.957031 269.957031 C 259.246094 280.667969 246.773438 289.078125 232.886719 294.949219 C 218.507812 301.03125 203.234375 304.117188 187.492188 304.117188 Z M 187.492188 74.699219 C 125.296875 74.699219 74.699219 125.296875 74.699219 187.492188 C 74.699219 249.683594 125.296875 300.28125 187.492188 300.28125 C 249.683594 300.28125 300.28125 249.683594 300.28125 187.492188 C 300.28125 125.296875 249.683594 74.699219 187.492188 74.699219 Z M 187.492188 74.699219 " fill-opacity="1" fill-rule="nonzero"/></g><path fill="#282626" d="M 165.105469 113.078125 C 164.378906 113.078125 163.710938 112.605469 163.492188 111.875 L 157.054688 90.289062 C 156.789062 89.398438 157.296875 88.460938 158.1875 88.191406 C 159.082031 87.925781 160.019531 88.433594 160.285156 89.328125 L 166.722656 110.910156 C 166.988281 111.804688 166.480469 112.742188 165.589844 113.007812 C 165.429688 113.054688 165.265625 113.078125 165.105469 113.078125 Z M 165.105469 113.078125 " fill-opacity="1" fill-rule="nonzero"/><path fill="#282626" d="M 175.609375 110.78125 C 175.074219 110.78125 174.542969 110.523438 174.214844 110.042969 C 173.132812 108.457031 171.941406 106.828125 170.574219 105.0625 L 170.097656 104.449219 L 169.613281 103.84375 C 169.296875 103.449219 168.964844 103.042969 168.628906 102.636719 C 168.296875 102.234375 167.957031 101.828125 167.621094 101.433594 L 167.113281 100.835938 L 166.59375 100.246094 C 165.90625 99.464844 165.195312 98.675781 164.476562 97.902344 L 163.933594 97.320312 L 163.386719 96.746094 C 163.023438 96.371094 162.648438 95.984375 162.277344 95.609375 C 161.902344 95.230469 161.519531 94.847656 161.140625 94.472656 L 160.566406 93.910156 L 159.988281 93.355469 C 159.21875 92.625 158.421875 91.886719 157.617188 91.160156 C 156.925781 90.535156 156.875 89.46875 157.496094 88.777344 C 158.121094 88.085938 159.1875 88.035156 159.878906 88.660156 C 160.703125 89.402344 161.519531 90.164062 162.316406 90.917969 L 162.90625 91.484375 C 162.90625 91.484375 162.917969 91.492188 162.921875 91.496094 L 163.503906 92.070312 C 163.898438 92.457031 164.289062 92.847656 164.671875 93.238281 C 165.054688 93.625 165.441406 94.019531 165.816406 94.410156 L 166.375 94.996094 C 166.375 94.996094 166.386719 95.007812 166.390625 95.011719 L 166.941406 95.601562 C 167.683594 96.402344 168.417969 97.214844 169.125 98.019531 L 169.652344 98.621094 C 169.652344 98.621094 169.664062 98.632812 169.667969 98.636719 L 170.1875 99.246094 C 170.535156 99.660156 170.886719 100.078125 171.226562 100.488281 C 171.570312 100.90625 171.914062 101.324219 172.242188 101.734375 L 172.734375 102.355469 C 172.734375 102.355469 172.742188 102.363281 172.746094 102.367188 L 173.234375 102.992188 C 174.644531 104.816406 175.875 106.5 176.996094 108.140625 C 177.523438 108.910156 177.324219 109.960938 176.554688 110.484375 C 176.265625 110.683594 175.933594 110.777344 175.605469 110.777344 Z M 175.609375 110.78125 " fill-opacity="1" fill-rule="nonzero"/><path fill="#282626" d="M 175.597656 110.707031 C 174.78125 110.707031 174.0625 110.113281 173.933594 109.28125 L 170.433594 87.035156 C 170.289062 86.113281 170.917969 85.25 171.839844 85.105469 C 172.757812 84.964844 173.621094 85.589844 173.765625 86.511719 L 177.265625 108.757812 C 177.410156 109.679688 176.78125 110.542969 175.859375 110.6875 C 175.769531 110.699219 175.683594 110.707031 175.597656 110.707031 Z M 175.597656 110.707031 " fill-opacity="1" fill-rule="nonzero"/><path fill="#282626" d="M 165.132812 113.148438 C 165.042969 113.148438 164.957031 113.144531 164.867188 113.128906 C 163.949219 112.984375 163.320312 112.125 163.460938 111.203125 C 164.777344 102.789062 167.148438 94.394531 170.511719 86.25 C 170.867188 85.390625 171.851562 84.980469 172.714844 85.335938 C 173.574219 85.691406 173.984375 86.679688 173.628906 87.539062 C 170.367188 95.4375 168.066406 103.570312 166.796875 111.722656 C 166.664062 112.554688 165.949219 113.148438 165.132812 113.148438 Z M 165.132812 113.148438 " fill-opacity="1" fill-rule="nonzero"/><path fill="#282626" d="M 117.808594 152.601562 C 117.542969 152.601562 117.273438 152.539062 117.023438 152.40625 L 96.382812 141.554688 C 95.5625 141.121094 95.242188 140.101562 95.675781 139.277344 C 96.109375 138.453125 97.128906 138.136719 97.953125 138.566406 L 118.59375 149.421875 C 119.417969 149.855469 119.734375 150.875 119.300781 151.699219 C 119 152.273438 118.414062 152.601562 117.808594 152.601562 Z M 117.808594 152.601562 " fill-opacity="1" fill-rule="nonzero"/><path fill="#282626" d="M 97.171875 141.75 C 96.5625 141.75 95.976562 141.421875 95.675781 140.84375 C 95.242188 140.019531 95.5625 139.003906 96.386719 138.570312 C 99.984375 136.683594 103.699219 135.03125 107.429688 133.65625 C 108.300781 133.335938 109.273438 133.78125 109.59375 134.65625 C 109.914062 135.527344 109.46875 136.5 108.59375 136.820312 C 105 138.144531 101.421875 139.738281 97.953125 141.554688 C 97.703125 141.6875 97.4375 141.75 97.171875 141.75 Z M 97.171875 141.75 " fill-opacity="1" fill-rule="nonzero"/><path fill="#282626" d="M 85.953125 199.863281 C 85.097656 199.863281 84.367188 199.214844 84.277344 198.347656 C 84.179688 197.421875 84.855469 196.59375 85.78125 196.5 L 108.976562 194.113281 C 109.90625 194.019531 110.734375 194.691406 110.828125 195.617188 C 110.921875 196.542969 110.25 197.371094 109.324219 197.46875 L 86.125 199.851562 C 86.066406 199.859375 86.007812 199.863281 85.949219 199.863281 Z M 85.953125 199.863281 " fill-opacity="1" fill-rule="nonzero"/><path fill="#282626" d="M 85.953125 199.863281 C 85.644531 199.863281 85.332031 199.777344 85.050781 199.601562 C 84.265625 199.101562 84.03125 198.0625 84.527344 197.273438 C 85.375 195.9375 86.269531 194.652344 87.1875 193.347656 C 87.191406 193.339844 87.195312 193.335938 87.199219 193.332031 C 87.699219 192.636719 88.203125 191.960938 88.585938 191.449219 L 88.679688 191.320312 C 88.882812 191.050781 89.085938 190.785156 89.289062 190.519531 C 89.292969 190.515625 89.296875 190.507812 89.300781 190.503906 L 90.007812 189.609375 C 90.585938 188.878906 91.648438 188.753906 92.378906 189.332031 C 93.109375 189.910156 93.230469 190.96875 92.65625 191.699219 L 91.953125 192.589844 C 91.757812 192.839844 91.566406 193.09375 91.375 193.347656 L 91.28125 193.472656 C 90.910156 193.96875 90.421875 194.625 89.9375 195.292969 C 89.046875 196.5625 88.183594 197.808594 87.375 199.078125 C 87.054688 199.585938 86.507812 199.863281 85.949219 199.863281 Z M 85.953125 199.863281 " fill-opacity="1" fill-rule="nonzero"/><path fill="#282626" d="M 108.789062 186.214844 C 108.769531 186.214844 108.746094 186.214844 108.722656 186.210938 L 85.421875 185.296875 C 84.492188 185.257812 83.765625 184.476562 83.800781 183.542969 C 83.839844 182.613281 84.621094 181.890625 85.554688 181.925781 L 108.855469 182.84375 C 109.785156 182.878906 110.511719 183.664062 110.472656 184.59375 C 110.4375 185.5 109.691406 186.214844 108.789062 186.214844 Z M 108.789062 186.214844 " fill-opacity="1" fill-rule="nonzero"/><path fill="#282626" d="M 91.339844 192.46875 C 90.875 192.46875 90.414062 192.28125 90.082031 191.910156 C 89.621094 191.394531 89.074219 190.785156 88.546875 190.175781 C 88.542969 190.171875 88.539062 190.167969 88.535156 190.164062 C 88.035156 189.574219 87.535156 188.972656 87.046875 188.375 C 86.535156 187.761719 86.042969 187.128906 85.570312 186.519531 L 84.492188 185.105469 C 84.484375 185.097656 84.480469 185.089844 84.472656 185.082031 L 84.125 184.609375 C 83.578125 183.855469 83.742188 182.800781 84.492188 182.253906 C 85.242188 181.703125 86.296875 181.867188 86.847656 182.617188 L 87.1875 183.078125 L 87.53125 183.535156 L 88.242188 184.460938 C 88.714844 185.070312 89.164062 185.652344 89.644531 186.226562 C 90.128906 186.816406 90.617188 187.402344 91.101562 187.976562 C 91.609375 188.566406 92.117188 189.132812 92.59375 189.660156 C 93.214844 190.351562 93.15625 191.417969 92.464844 192.042969 C 92.144531 192.328125 91.742188 192.472656 91.339844 192.472656 Z M 91.339844 192.46875 " fill-opacity="1" fill-rule="nonzero"/><path fill="#282626" d="M 110.15625 174.398438 C 110.050781 174.398438 109.945312 174.386719 109.835938 174.367188 L 86.9375 169.945312 C 86.023438 169.769531 85.425781 168.886719 85.601562 167.972656 C 85.777344 167.058594 86.660156 166.460938 87.578125 166.636719 L 110.472656 171.054688 C 111.386719 171.234375 111.984375 172.117188 111.808594 173.03125 C 111.652344 173.835938 110.949219 174.398438 110.15625 174.398438 Z M 110.15625 174.398438 " fill-opacity="1" fill-rule="nonzero"/><path fill="#282626" d="M 87.257812 169.976562 C 86.765625 169.976562 86.277344 169.761719 85.945312 169.347656 C 85.359375 168.625 85.472656 167.5625 86.199219 166.976562 C 86.804688 166.488281 87.421875 166 88.03125 165.523438 C 88.035156 165.519531 88.039062 165.519531 88.042969 165.515625 C 88.589844 165.097656 89.179688 164.65625 89.90625 164.117188 L 90.0625 164.003906 C 90.324219 163.8125 90.585938 163.621094 90.847656 163.433594 C 90.851562 163.429688 90.855469 163.425781 90.863281 163.425781 L 91.96875 162.652344 C 92.53125 162.265625 93.113281 161.863281 93.703125 161.480469 C 94.339844 161.0625 94.980469 160.652344 95.613281 160.257812 L 96.085938 159.964844 C 96.09375 159.957031 96.101562 159.953125 96.109375 159.949219 L 96.585938 159.660156 L 97.546875 159.089844 C 98.84375 158.316406 100.1875 157.597656 101.441406 156.929688 C 102.265625 156.492188 103.285156 156.808594 103.722656 157.628906 C 104.160156 158.453125 103.84375 159.472656 103.023438 159.910156 C 101.804688 160.554688 100.507812 161.253906 99.273438 161.988281 L 97.863281 162.832031 L 97.402344 163.117188 C 96.789062 163.5 96.164062 163.902344 95.542969 164.304688 C 94.992188 164.664062 94.453125 165.035156 93.882812 165.429688 L 93.714844 165.542969 L 92.796875 166.183594 C 92.550781 166.363281 92.300781 166.542969 92.054688 166.722656 L 91.902344 166.835938 C 91.199219 167.355469 90.625 167.785156 90.097656 168.1875 C 89.503906 168.648438 88.90625 169.125 88.316406 169.601562 C 88.003906 169.851562 87.628906 169.972656 87.257812 169.976562 Z M 87.257812 169.976562 " fill-opacity="1" fill-rule="nonzero"/><path fill="#282626" d="M 113.070312 163.527344 C 112.886719 163.527344 112.699219 163.496094 112.515625 163.433594 L 90.484375 155.792969 C 89.605469 155.488281 89.136719 154.527344 89.445312 153.648438 C 89.75 152.769531 90.710938 152.304688 91.589844 152.605469 L 113.621094 160.246094 C 114.503906 160.550781 114.96875 161.511719 114.664062 162.390625 C 114.421875 163.089844 113.769531 163.527344 113.070312 163.527344 Z M 113.070312 163.527344 " fill-opacity="1" fill-rule="nonzero"/><path fill="#282626" d="M 99.183594 172.109375 C 98.625 172.109375 98.078125 171.832031 97.757812 171.324219 C 97.394531 170.753906 96.976562 170.089844 96.570312 169.421875 C 96.183594 168.773438 95.804688 168.121094 95.429688 167.46875 C 95.070312 166.851562 94.730469 166.21875 94.402344 165.605469 L 94.203125 165.234375 C 93.886719 164.640625 93.5625 164.023438 93.253906 163.402344 C 92.917969 162.726562 92.578125 162.03125 92.246094 161.332031 C 91.914062 160.628906 91.597656 159.921875 91.273438 159.199219 L 90.804688 158.125 C 90.800781 158.113281 90.796875 158.105469 90.792969 158.09375 L 90.273438 156.839844 C 90.003906 156.175781 89.722656 155.488281 89.460938 154.796875 C 89.132812 153.921875 89.570312 152.949219 90.441406 152.621094 C 91.3125 152.292969 92.285156 152.730469 92.617188 153.601562 C 92.863281 154.253906 93.136719 154.921875 93.398438 155.570312 L 93.46875 155.738281 L 93.902344 156.785156 L 94.363281 157.835938 C 94.683594 158.558594 94.980469 159.21875 95.292969 159.886719 C 95.613281 160.558594 95.945312 161.242188 96.277344 161.90625 C 96.566406 162.488281 96.878906 163.078125 97.183594 163.648438 L 97.375 164.007812 C 97.707031 164.621094 98.015625 165.203125 98.351562 165.78125 C 98.722656 166.425781 99.09375 167.0625 99.464844 167.683594 C 99.84375 168.3125 100.253906 168.957031 100.609375 169.515625 C 101.105469 170.300781 100.875 171.34375 100.085938 171.84375 C 99.808594 172.019531 99.496094 172.105469 99.1875 172.105469 Z M 99.183594 172.109375 " fill-opacity="1" fill-rule="nonzero"/><path fill="#282626" d="M 268.328125 191.132812 C 267.652344 191.132812 267.011719 190.722656 266.753906 190.054688 C 266.417969 189.183594 266.851562 188.210938 267.722656 187.875 C 274.75 185.171875 281.648438 181.695312 288.226562 177.542969 C 289.015625 177.046875 290.058594 177.28125 290.554688 178.070312 C 291.050781 178.855469 290.816406 179.898438 290.027344 180.394531 C 283.261719 184.664062 276.167969 188.238281 268.933594 191.023438 C 268.734375 191.101562 268.53125 191.136719 268.328125 191.136719 Z M 268.328125 191.132812 " fill-opacity="1" fill-rule="nonzero"/><path fill="#282626" d="M 289.492188 191.554688 C 289.222656 191.554688 288.945312 191.488281 288.691406 191.351562 C 281.894531 187.671875 274.777344 184.667969 267.539062 182.425781 C 266.648438 182.148438 266.152344 181.207031 266.425781 180.316406 C 266.703125 179.425781 267.648438 178.929688 268.535156 179.203125 C 275.984375 181.515625 283.304688 184.601562 290.296875 188.386719 C 291.117188 188.828125 291.421875 189.851562 290.976562 190.671875 C 290.671875 191.234375 290.09375 191.554688 289.492188 191.554688 Z M 289.492188 191.554688 " fill-opacity="1" fill-rule="nonzero"/><path fill="#282626" d="M 289.101562 206.925781 C 289.003906 206.925781 288.910156 206.917969 288.8125 206.902344 L 265.832031 202.929688 C 264.914062 202.769531 264.300781 201.898438 264.457031 200.980469 C 264.617188 200.0625 265.488281 199.445312 266.40625 199.605469 L 289.386719 203.578125 C 290.304688 203.738281 290.917969 204.609375 290.761719 205.527344 C 290.621094 206.347656 289.90625 206.925781 289.101562 206.925781 Z M 289.101562 206.925781 " fill-opacity="1" fill-rule="nonzero"/><path fill="#282626" d="M 282.484375 213.058594 C 282 213.058594 281.515625 212.847656 281.183594 212.445312 C 280.589844 211.726562 280.691406 210.664062 281.410156 210.070312 C 282.527344 209.144531 283.605469 208.175781 284.699219 207.179688 C 285.683594 206.25 286.820312 205.167969 287.886719 204.070312 C 288.535156 203.398438 289.601562 203.378906 290.269531 204.027344 C 290.941406 204.675781 290.960938 205.742188 290.3125 206.414062 C 289.191406 207.570312 288.015625 208.6875 287 209.644531 C 286.992188 209.652344 286.984375 209.65625 286.980469 209.664062 C 285.851562 210.691406 284.738281 211.695312 283.558594 212.671875 C 283.242188 212.929688 282.863281 213.058594 282.484375 213.058594 Z M 282.484375 213.058594 " fill-opacity="1" fill-rule="nonzero"/><path fill="#282626" d="M 282.261719 213.003906 C 281.589844 213.003906 280.957031 212.597656 280.691406 211.933594 C 280.164062 210.597656 279.5625 209.257812 278.996094 208 C 278.417969 206.78125 277.800781 205.488281 277.121094 204.21875 C 276.683594 203.398438 276.992188 202.378906 277.8125 201.9375 C 278.636719 201.5 279.65625 201.808594 280.09375 202.632812 C 280.8125 203.972656 281.453125 205.3125 282.046875 206.570312 C 282.050781 206.578125 282.054688 206.585938 282.058594 206.59375 C 282.648438 207.894531 283.269531 209.28125 283.828125 210.695312 C 284.171875 211.558594 283.746094 212.539062 282.878906 212.882812 C 282.675781 212.960938 282.464844 213 282.261719 213 Z M 282.261719 213.003906 " fill-opacity="1" fill-rule="nonzero"/><path fill="#282626" d="M 149.503906 283.992188 C 148.894531 283.992188 148.308594 283.664062 148.007812 283.089844 C 147.675781 282.449219 147.34375 281.804688 147.019531 281.164062 C 147.015625 281.15625 147.015625 281.152344 147.011719 281.148438 C 146.714844 280.539062 146.40625 279.902344 146.078125 279.203125 L 145.632812 278.242188 C 145.625 278.230469 145.621094 278.222656 145.617188 278.210938 L 145.191406 277.246094 C 144.90625 276.597656 144.625 275.945312 144.355469 275.296875 C 143.992188 274.441406 144.394531 273.449219 145.253906 273.089844 C 146.113281 272.730469 147.101562 273.132812 147.460938 273.992188 C 147.726562 274.625 148 275.261719 148.277344 275.886719 L 148.691406 276.832031 L 149.132812 277.773438 C 149.449219 278.449219 149.746094 279.066406 150.035156 279.652344 C 150.347656 280.277344 150.671875 280.90625 150.996094 281.527344 C 151.429688 282.351562 151.109375 283.371094 150.28125 283.800781 C 150.03125 283.933594 149.765625 283.992188 149.503906 283.992188 Z M 149.503906 283.992188 " fill-opacity="1" fill-rule="nonzero"/><path fill="#282626" d="M 137.390625 278.09375 C 136.597656 278.09375 135.886719 277.53125 135.734375 276.71875 C 135.566406 275.800781 136.167969 274.921875 137.085938 274.75 C 137.78125 274.621094 138.480469 274.484375 139.164062 274.347656 C 139.507812 274.28125 139.851562 274.203125 140.171875 274.132812 L 141.203125 273.902344 C 142.578125 273.59375 143.9375 273.230469 145.199219 272.886719 C 146.097656 272.640625 147.027344 273.167969 147.273438 274.070312 C 147.515625 274.96875 146.988281 275.894531 146.089844 276.140625 C 144.785156 276.496094 143.382812 276.871094 141.941406 277.191406 L 140.910156 277.425781 C 140.5625 277.503906 140.195312 277.582031 139.820312 277.65625 C 139.128906 277.796875 138.414062 277.933594 137.703125 278.066406 C 137.597656 278.085938 137.492188 278.097656 137.390625 278.097656 Z M 137.390625 278.09375 " fill-opacity="1" fill-rule="nonzero"/><path fill="#282626" d="M 142.917969 281.582031 C 142.671875 281.582031 142.417969 281.527344 142.179688 281.410156 C 141.34375 281 140.996094 279.992188 141.40625 279.15625 L 151.671875 258.214844 C 152.082031 257.378906 153.089844 257.035156 153.925781 257.445312 C 154.761719 257.855469 155.109375 258.863281 154.699219 259.699219 L 144.433594 280.640625 C 144.140625 281.238281 143.542969 281.582031 142.917969 281.582031 Z M 142.917969 281.582031 " fill-opacity="1" fill-rule="nonzero"/><path fill="#282626" d="M 205 290.695312 C 204.191406 290.695312 203.476562 290.113281 203.339844 289.289062 L 199.488281 266.289062 C 199.335938 265.371094 199.953125 264.503906 200.871094 264.347656 C 201.792969 264.195312 202.660156 264.816406 202.8125 265.734375 L 206.667969 288.734375 C 206.820312 289.652344 206.199219 290.519531 205.28125 290.675781 C 205.1875 290.691406 205.09375 290.695312 205 290.695312 Z M 205 290.695312 " fill-opacity="1" fill-rule="nonzero"/><path fill="#282626" d="M 205.003906 290.695312 C 204.761719 290.695312 204.519531 290.644531 204.285156 290.539062 C 201.191406 289.085938 198.128906 287.445312 195.1875 285.65625 C 194.390625 285.171875 194.136719 284.136719 194.621094 283.339844 C 195.101562 282.542969 196.140625 282.289062 196.9375 282.773438 C 199.777344 284.5 202.734375 286.085938 205.71875 287.484375 C 206.5625 287.878906 206.925781 288.882812 206.53125 289.726562 C 206.242188 290.339844 205.636719 290.699219 205.003906 290.699219 Z M 205.003906 290.695312 " fill-opacity="1" fill-rule="nonzero"/><path fill="#282626" d="M 209.003906 271.832031 C 208.757812 271.832031 208.511719 271.78125 208.277344 271.667969 C 205.503906 270.339844 202.792969 268.851562 200.222656 267.234375 C 199.433594 266.742188 199.195312 265.699219 199.6875 264.910156 C 200.183594 264.121094 201.222656 263.882812 202.011719 264.378906 C 204.480469 265.921875 207.074219 267.351562 209.730469 268.625 C 210.574219 269.027344 210.925781 270.035156 210.523438 270.875 C 210.234375 271.480469 209.632812 271.832031 209.003906 271.832031 Z M 209.003906 271.832031 " fill-opacity="1" fill-rule="nonzero"/><path fill="#282626" d="M 181.167969 291.375 C 180.746094 291.375 180.320312 291.21875 179.992188 290.902344 C 177.339844 288.335938 174.8125 285.574219 172.488281 282.699219 C 171.902344 281.972656 172.015625 280.910156 172.738281 280.328125 C 173.464844 279.742188 174.527344 279.855469 175.109375 280.578125 C 177.351562 283.347656 179.78125 286.007812 182.335938 288.476562 C 183.007812 289.125 183.023438 290.191406 182.378906 290.863281 C 182.046875 291.207031 181.605469 291.375 181.164062 291.375 Z M 181.167969 291.375 " fill-opacity="1" fill-rule="nonzero"/><path fill="#282626" d="M 164.089844 288.777344 C 163.472656 288.777344 162.878906 288.4375 162.582031 287.851562 C 162.164062 287.019531 162.496094 286.003906 163.324219 285.585938 C 166.539062 283.957031 169.652344 282.144531 172.582031 280.191406 C 173.359375 279.675781 174.402344 279.886719 174.921875 280.660156 C 175.4375 281.4375 175.226562 282.484375 174.453125 283 C 171.410156 285.023438 168.179688 286.90625 164.847656 288.59375 C 164.601562 288.71875 164.34375 288.777344 164.085938 288.777344 Z M 164.089844 288.777344 " fill-opacity="1" fill-rule="nonzero"/><path fill="#282626" d="M 175.0625 274.984375 C 174.535156 274.984375 174.015625 274.738281 173.683594 274.273438 C 173.144531 273.515625 173.324219 272.464844 174.082031 271.921875 C 176.734375 270.035156 179.234375 268.011719 181.515625 265.910156 C 182.195312 265.277344 183.265625 265.316406 183.894531 266.003906 C 184.527344 266.6875 184.484375 267.753906 183.800781 268.386719 C 181.417969 270.585938 178.804688 272.703125 176.035156 274.671875 C 175.738281 274.882812 175.398438 274.984375 175.058594 274.984375 Z M 175.0625 274.984375 " fill-opacity="1" fill-rule="nonzero"/><path fill="#282626" d="M 174.804688 274.945312 C 174.292969 274.945312 173.789062 274.714844 173.460938 274.28125 C 171.429688 271.605469 169.566406 268.8125 167.921875 265.972656 C 167.453125 265.167969 167.730469 264.136719 168.535156 263.667969 C 169.339844 263.199219 170.371094 263.476562 170.839844 264.28125 C 172.414062 267 174.199219 269.679688 176.144531 272.242188 C 176.707031 272.984375 176.5625 274.039062 175.820312 274.605469 C 175.515625 274.835938 175.160156 274.949219 174.804688 274.949219 Z M 174.804688 274.945312 " fill-opacity="1" fill-rule="nonzero"/><path fill="#282626" d="M 181.160156 291.488281 C 181.125 291.488281 181.085938 291.488281 181.050781 291.484375 C 180.121094 291.425781 179.417969 290.621094 179.476562 289.691406 L 180.972656 267.078125 C 181.035156 266.148438 181.835938 265.445312 182.765625 265.507812 C 183.695312 265.570312 184.398438 266.371094 184.339844 267.300781 L 182.84375 289.914062 C 182.785156 290.804688 182.042969 291.488281 181.160156 291.488281 Z M 181.160156 291.488281 " fill-opacity="1" fill-rule="nonzero"/><path fill="#282626" d="M 131.980469 259.933594 C 131.671875 259.933594 131.359375 259.847656 131.078125 259.671875 C 128.179688 257.832031 125.347656 255.8125 122.664062 253.660156 C 121.9375 253.078125 121.820312 252.019531 122.402344 251.292969 C 122.984375 250.566406 124.046875 250.449219 124.773438 251.03125 C 127.359375 253.101562 130.089844 255.050781 132.882812 256.824219 C 133.671875 257.320312 133.902344 258.363281 133.40625 259.152344 C 133.085938 259.65625 132.539062 259.933594 131.980469 259.933594 Z M 131.980469 259.933594 " fill-opacity="1" fill-rule="nonzero"/><path fill="#282626" d="M 118.09375 263.921875 C 117.304688 263.921875 116.597656 263.363281 116.441406 262.558594 C 116.265625 261.640625 116.863281 260.757812 117.777344 260.582031 C 122.5 259.664062 127.121094 258.425781 131.515625 256.902344 C 132.394531 256.597656 133.355469 257.0625 133.660156 257.941406 C 133.96875 258.824219 133.5 259.785156 132.621094 260.089844 C 128.074219 261.664062 123.296875 262.945312 118.417969 263.894531 C 118.308594 263.914062 118.203125 263.921875 118.09375 263.921875 Z M 118.09375 263.921875 " fill-opacity="1" fill-rule="nonzero"/><path fill="#282626" d="M 123.625 253.941406 C 122.804688 253.941406 122.085938 253.34375 121.960938 252.507812 C 121.824219 251.585938 122.457031 250.726562 123.375 250.589844 C 127.929688 249.902344 132.410156 248.875 136.691406 247.53125 C 137.578125 247.25 138.523438 247.746094 138.804688 248.632812 C 139.082031 249.523438 138.589844 250.46875 137.699219 250.746094 C 133.253906 252.144531 128.605469 253.214844 123.878906 253.921875 C 123.792969 253.9375 123.710938 253.941406 123.625 253.941406 Z M 123.625 253.941406 " fill-opacity="1" fill-rule="nonzero"/><path fill="#282626" d="M 120.332031 128.726562 C 119.480469 128.726562 118.75 128.085938 118.65625 127.222656 C 118.109375 122.207031 117.976562 117.082031 118.257812 111.984375 C 118.308594 111.054688 119.105469 110.34375 120.035156 110.394531 C 120.964844 110.445312 121.675781 111.242188 121.625 112.171875 C 121.351562 117.085938 121.484375 122.023438 122.011719 126.855469 C 122.109375 127.78125 121.441406 128.613281 120.515625 128.714844 C 120.453125 128.722656 120.394531 128.726562 120.332031 128.726562 Z M 120.332031 128.726562 " fill-opacity="1" fill-rule="nonzero"/><path fill="#282626" d="M 134.453125 129.871094 C 134.359375 129.871094 134.261719 129.863281 134.167969 129.847656 C 129.734375 129.089844 125.09375 128.703125 120.371094 128.703125 C 120.351562 128.703125 120.324219 128.703125 120.308594 128.703125 C 119.378906 128.703125 118.625 127.949219 118.625 127.019531 C 118.625 126.089844 119.378906 125.332031 120.308594 125.332031 L 120.371094 125.332031 C 125.28125 125.332031 130.113281 125.730469 134.734375 126.523438 C 135.652344 126.679688 136.269531 127.550781 136.113281 128.46875 C 135.972656 129.289062 135.257812 129.871094 134.453125 129.871094 Z M 134.453125 129.871094 " fill-opacity="1" fill-rule="nonzero"/><path fill="#282626" d="M 128 121.128906 C 127.933594 121.128906 127.867188 121.125 127.800781 121.117188 C 123.023438 120.550781 118.082031 120.378906 113.117188 120.601562 C 112.1875 120.640625 111.402344 119.921875 111.359375 118.992188 C 111.316406 118.0625 112.035156 117.273438 112.96875 117.230469 C 118.113281 117 123.238281 117.179688 128.195312 117.765625 C 129.121094 117.875 129.78125 118.714844 129.671875 119.636719 C 129.570312 120.496094 128.84375 121.125 128 121.125 Z M 128 121.128906 " fill-opacity="1" fill-rule="nonzero"/><path fill="#282626" d="M 129.015625 135.257812 C 128.203125 135.257812 127.484375 134.664062 127.351562 133.835938 C 126.601562 129.148438 126.246094 124.289062 126.292969 119.402344 C 126.300781 118.476562 127.054688 117.734375 127.976562 117.734375 C 127.984375 117.734375 127.988281 117.734375 127.996094 117.734375 C 128.925781 117.742188 129.671875 118.503906 129.664062 119.4375 C 129.617188 124.132812 129.960938 128.800781 130.683594 133.304688 C 130.828125 134.222656 130.203125 135.089844 129.285156 135.234375 C 129.195312 135.25 129.105469 135.257812 129.015625 135.257812 Z M 129.015625 135.257812 " fill-opacity="1" fill-rule="nonzero"/><path fill="#282626" d="M 137.285156 110.382812 C 137.222656 110.382812 137.164062 110.378906 137.101562 110.371094 C 136.175781 110.273438 135.507812 109.441406 135.605469 108.515625 L 135.675781 107.886719 C 135.675781 107.878906 135.675781 107.871094 135.679688 107.863281 L 135.753906 107.269531 C 135.753906 107.269531 135.753906 107.261719 135.753906 107.257812 L 135.914062 106.066406 C 135.914062 106.066406 135.914062 106.054688 135.917969 106.050781 L 136.179688 104.238281 C 136.179688 104.230469 136.183594 104.222656 136.183594 104.214844 L 136.28125 103.617188 C 136.605469 101.703125 136.902344 100.148438 137.222656 98.710938 C 137.425781 97.800781 138.328125 97.226562 139.234375 97.429688 C 140.144531 97.632812 140.71875 98.53125 140.515625 99.441406 C 140.210938 100.820312 139.921875 102.324219 139.609375 104.171875 L 139.511719 104.75 L 139.421875 105.339844 L 139.253906 106.519531 L 139.023438 108.269531 L 138.957031 108.875 C 138.863281 109.742188 138.132812 110.378906 137.28125 110.378906 Z M 137.285156 110.382812 " fill-opacity="1" fill-rule="nonzero"/><path fill="#282626" d="M 152.675781 117.074219 C 152.398438 117.074219 152.117188 117.003906 151.855469 116.863281 C 151.261719 116.53125 150.664062 116.207031 150.082031 115.894531 C 149.488281 115.585938 148.882812 115.277344 148.28125 114.980469 C 147.21875 114.445312 146.074219 113.914062 144.558594 113.246094 C 143.953125 112.976562 143.363281 112.730469 142.65625 112.441406 C 142.015625 112.179688 141.355469 111.921875 140.703125 111.667969 C 140.113281 111.445312 139.46875 111.210938 138.742188 110.953125 L 138.71875 110.945312 C 138.070312 110.714844 137.398438 110.476562 136.746094 110.269531 C 135.863281 109.984375 135.371094 109.035156 135.65625 108.148438 C 135.9375 107.261719 136.886719 106.773438 137.773438 107.058594 C 138.472656 107.28125 139.167969 107.527344 139.84375 107.765625 L 139.867188 107.773438 C 140.621094 108.039062 141.285156 108.285156 141.910156 108.519531 C 142.589844 108.78125 143.265625 109.050781 143.929688 109.320312 C 144.566406 109.582031 145.25 109.863281 145.925781 110.160156 C 147.488281 110.851562 148.679688 111.40625 149.785156 111.960938 C 150.402344 112.269531 151.03125 112.585938 151.648438 112.90625 C 151.652344 112.910156 151.65625 112.914062 151.660156 112.914062 C 152.265625 113.234375 152.882812 113.574219 153.5 113.914062 C 154.3125 114.367188 154.605469 115.394531 154.152344 116.207031 C 153.84375 116.761719 153.269531 117.074219 152.675781 117.074219 Z M 152.675781 117.074219 " fill-opacity="1" fill-rule="nonzero"/><path fill="#282626" d="M 147.871094 104.511719 C 147.621094 104.511719 147.375 104.457031 147.136719 104.34375 L 147.117188 104.332031 C 144.167969 102.929688 141.199219 101.695312 138.304688 100.664062 C 137.429688 100.351562 136.96875 99.390625 137.28125 98.511719 C 137.59375 97.632812 138.558594 97.175781 139.433594 97.488281 C 142.4375 98.554688 145.511719 99.835938 148.574219 101.292969 L 148.605469 101.308594 C 149.441406 101.714844 149.792969 102.722656 149.386719 103.5625 C 149.097656 104.164062 148.496094 104.511719 147.867188 104.511719 Z M 147.871094 104.511719 " fill-opacity="1" fill-rule="nonzero"/><path fill="#282626" d="M 145.386719 121.117188 C 145.359375 121.117188 145.332031 121.117188 145.300781 121.113281 C 144.371094 121.066406 143.652344 120.273438 143.703125 119.34375 C 143.988281 113.695312 144.832031 107.992188 146.21875 102.386719 C 146.441406 101.484375 147.355469 100.929688 148.257812 101.152344 C 149.164062 101.378906 149.714844 102.292969 149.492188 103.195312 C 148.15625 108.589844 147.34375 114.082031 147.070312 119.511719 C 147.023438 120.414062 146.277344 121.113281 145.386719 121.113281 Z M 145.386719 121.117188 " fill-opacity="1" fill-rule="nonzero"/><path fill="#282626" d="M 232.878906 278.746094 C 232.632812 278.746094 232.382812 278.691406 232.144531 278.578125 C 231.304688 278.171875 230.953125 277.164062 231.359375 276.328125 C 232.746094 273.453125 233.984375 270.5 235.03125 267.554688 C 235.347656 266.675781 236.308594 266.21875 237.1875 266.53125 C 238.066406 266.847656 238.523438 267.808594 238.210938 268.6875 C 237.117188 271.746094 235.835938 274.808594 234.398438 277.792969 C 234.105469 278.394531 233.503906 278.746094 232.878906 278.746094 Z M 232.878906 278.746094 " fill-opacity="1" fill-rule="nonzero"/><path fill="#282626" d="M 236.632812 269.820312 C 236.554688 269.820312 236.472656 269.816406 236.390625 269.804688 C 233.234375 269.355469 230.097656 268.734375 227.066406 267.957031 C 226.164062 267.726562 225.621094 266.804688 225.851562 265.90625 C 226.082031 265.003906 227 264.457031 227.902344 264.691406 C 230.816406 265.4375 233.832031 266.035156 236.867188 266.46875 C 237.789062 266.597656 238.429688 267.453125 238.300781 268.375 C 238.179688 269.214844 237.457031 269.824219 236.632812 269.824219 Z M 236.632812 269.820312 " fill-opacity="1" fill-rule="nonzero"/><path fill="#282626" d="M 231.234375 272.835938 C 231.121094 272.835938 231.003906 272.824219 230.882812 272.796875 L 229.726562 272.554688 C 229.714844 272.550781 229.703125 272.546875 229.691406 272.546875 L 228.539062 272.273438 C 228.539062 272.273438 228.527344 272.269531 228.523438 272.269531 L 226.808594 271.847656 C 226.800781 271.84375 226.789062 271.839844 226.78125 271.839844 L 226.214844 271.6875 C 225.460938 271.480469 224.699219 271.265625 223.953125 271.046875 C 223.945312 271.046875 223.9375 271.042969 223.929688 271.042969 C 223.203125 270.816406 222.457031 270.582031 221.710938 270.339844 C 220.824219 270.054688 220.339844 269.101562 220.628906 268.214844 C 220.914062 267.332031 221.867188 266.847656 222.75 267.132812 C 223.476562 267.371094 224.203125 267.597656 224.90625 267.816406 C 225.628906 268.027344 226.367188 268.234375 227.101562 268.433594 L 227.648438 268.582031 L 228.195312 268.71875 L 229.320312 268.996094 L 230.449219 269.261719 L 231.585938 269.5 C 232.496094 269.695312 233.078125 270.589844 232.882812 271.5 C 232.714844 272.292969 232.015625 272.835938 231.238281 272.835938 Z M 231.234375 272.835938 " fill-opacity="1" fill-rule="nonzero"/><path fill="#282626" d="M 222.234375 270.4375 C 221.988281 270.4375 221.738281 270.382812 221.503906 270.269531 C 220.664062 269.863281 220.3125 268.855469 220.71875 268.015625 C 221.042969 267.339844 221.363281 266.660156 221.671875 266 C 221.96875 265.328125 222.265625 264.644531 222.550781 263.96875 L 222.761719 263.472656 L 222.964844 262.964844 L 223.363281 261.945312 L 223.75 260.9375 L 224.113281 259.914062 C 224.425781 259.035156 225.390625 258.578125 226.269531 258.890625 C 227.144531 259.203125 227.601562 260.167969 227.289062 261.046875 L 226.917969 262.089844 C 226.914062 262.101562 226.910156 262.113281 226.90625 262.125 L 226.511719 263.15625 C 226.511719 263.15625 226.507812 263.164062 226.503906 263.171875 L 225.886719 264.742188 C 225.882812 264.75 225.878906 264.761719 225.875 264.769531 L 225.660156 265.285156 C 225.359375 265.984375 225.054688 266.691406 224.746094 267.382812 C 224.742188 267.390625 224.742188 267.398438 224.738281 267.40625 C 224.421875 268.089844 224.089844 268.789062 223.753906 269.484375 C 223.460938 270.089844 222.859375 270.4375 222.234375 270.4375 Z M 222.234375 270.4375 " fill-opacity="1" fill-rule="nonzero"/><path fill="#282626" d="M 253.65625 268.261719 C 253.171875 268.261719 252.691406 268.054688 252.359375 267.65625 L 237.421875 249.746094 C 236.824219 249.03125 236.917969 247.96875 237.636719 247.375 C 238.351562 246.777344 239.414062 246.871094 240.007812 247.585938 L 254.949219 265.496094 C 255.546875 266.210938 255.449219 267.273438 254.734375 267.867188 C 254.417969 268.132812 254.035156 268.261719 253.65625 268.261719 Z M 253.65625 268.261719 " fill-opacity="1" fill-rule="nonzero"/><path fill="#282626" d="M 267.90625 253.75 C 267.535156 253.75 267.160156 253.628906 266.851562 253.375 L 248.679688 238.757812 C 247.957031 238.171875 247.839844 237.113281 248.425781 236.386719 C 249.007812 235.660156 250.070312 235.546875 250.796875 236.128906 L 268.964844 250.746094 C 269.6875 251.332031 269.804688 252.394531 269.21875 253.117188 C 268.886719 253.53125 268.398438 253.75 267.90625 253.75 Z M 267.90625 253.75 " fill-opacity="1" fill-rule="nonzero"/><path fill="#282626" d="M 257.246094 250.914062 C 256.445312 250.914062 255.730469 250.339844 255.585938 249.519531 C 255.425781 248.601562 256.039062 247.726562 256.953125 247.566406 C 260.246094 246.984375 263.574219 246.191406 266.847656 245.207031 C 267.738281 244.941406 268.679688 245.445312 268.945312 246.339844 C 269.214844 247.230469 268.707031 248.171875 267.816406 248.4375 C 264.417969 249.457031 260.960938 250.28125 257.542969 250.886719 C 257.441406 250.90625 257.34375 250.914062 257.246094 250.914062 Z M 257.246094 250.914062 " fill-opacity="1" fill-rule="nonzero"/><path fill="#282626" d="M 282.0625 228.699219 C 281.84375 228.699219 281.625 228.65625 281.410156 228.566406 L 260.8125 219.945312 C 259.953125 219.589844 259.546875 218.597656 259.90625 217.742188 C 260.265625 216.882812 261.253906 216.476562 262.113281 216.835938 L 282.710938 225.457031 C 283.570312 225.816406 283.976562 226.804688 283.617188 227.660156 C 283.347656 228.308594 282.71875 228.699219 282.0625 228.699219 Z M 282.0625 228.699219 " fill-opacity="1" fill-rule="nonzero"/><path fill="#282626" d="M 278.230469 237.539062 C 277.960938 237.539062 277.6875 237.472656 277.4375 237.339844 L 257.738281 226.820312 C 256.917969 226.378906 256.609375 225.359375 257.046875 224.539062 C 257.484375 223.714844 258.507812 223.40625 259.328125 223.84375 L 279.023438 234.363281 C 279.847656 234.804688 280.15625 235.824219 279.71875 236.644531 C 279.414062 237.214844 278.832031 237.539062 278.226562 237.539062 Z M 278.230469 237.539062 " fill-opacity="1" fill-rule="nonzero"/><path fill="#282626" d="M 264.003906 229.523438 C 263.21875 229.523438 262.515625 228.976562 262.351562 228.175781 C 262.164062 227.265625 262.753906 226.371094 263.667969 226.1875 C 267.414062 225.421875 271.191406 224.378906 274.886719 223.089844 C 275.765625 222.78125 276.726562 223.246094 277.035156 224.125 C 277.339844 225.003906 276.878906 225.964844 276 226.273438 C 272.160156 227.613281 268.238281 228.695312 264.34375 229.492188 C 264.230469 229.515625 264.113281 229.523438 264.003906 229.523438 Z M 264.003906 229.523438 " fill-opacity="1" fill-rule="nonzero"/><path fill="#282626" d="M 186.375 110.175781 C 185.460938 110.175781 184.710938 109.445312 184.691406 108.527344 L 184.179688 85.214844 C 184.160156 84.28125 184.898438 83.511719 185.828125 83.492188 C 186.765625 83.46875 187.53125 84.207031 187.550781 85.140625 L 188.0625 108.453125 C 188.082031 109.386719 187.34375 110.15625 186.414062 110.175781 C 186.402344 110.175781 186.386719 110.175781 186.375 110.175781 Z M 186.375 110.175781 " fill-opacity="1" fill-rule="nonzero"/><path fill="#282626" d="M 186.019531 93.757812 C 185.511719 93.757812 185.015625 93.535156 184.683594 93.105469 C 184.113281 92.367188 184.25 91.308594 184.984375 90.738281 C 188.132812 88.304688 191.507812 86.035156 195.019531 83.992188 C 195.824219 83.523438 196.855469 83.796875 197.324219 84.601562 C 197.792969 85.40625 197.519531 86.4375 196.714844 86.90625 C 193.332031 88.875 190.082031 91.0625 187.046875 93.40625 C 186.742188 93.644531 186.378906 93.761719 186.019531 93.761719 Z M 186.019531 93.757812 " fill-opacity="1" fill-rule="nonzero"/><path fill="#282626" d="M 186.121094 98.519531 C 185.632812 98.519531 185.144531 98.308594 184.8125 97.898438 C 184.226562 97.175781 184.335938 96.113281 185.058594 95.527344 C 188.046875 93.09375 191.265625 90.816406 194.625 88.757812 C 195.417969 88.273438 196.457031 88.523438 196.941406 89.316406 C 197.429688 90.109375 197.179688 91.148438 196.386719 91.632812 C 193.15625 93.613281 190.058594 95.804688 187.183594 98.140625 C 186.871094 98.398438 186.496094 98.519531 186.121094 98.519531 Z M 186.121094 98.519531 " fill-opacity="1" fill-rule="nonzero"/><path fill="#282626" d="M 240.925781 130.425781 C 240.523438 130.425781 240.121094 130.285156 239.800781 129.996094 C 239.105469 129.375 239.046875 128.308594 239.667969 127.617188 L 255.230469 110.246094 C 255.851562 109.554688 256.917969 109.496094 257.613281 110.117188 C 258.304688 110.738281 258.363281 111.804688 257.742188 112.496094 L 242.179688 129.867188 C 241.847656 130.238281 241.386719 130.425781 240.925781 130.425781 Z M 240.925781 130.425781 " fill-opacity="1" fill-rule="nonzero"/><path fill="#282626" d="M 255.011719 127.972656 C 254.144531 127.972656 253.40625 127.304688 253.332031 126.421875 C 253.03125 122.738281 252.46875 118.988281 251.660156 115.277344 C 251.464844 114.367188 252.039062 113.46875 252.949219 113.273438 C 253.859375 113.074219 254.757812 113.652344 254.957031 114.5625 C 255.792969 118.414062 256.378906 122.3125 256.695312 126.144531 C 256.769531 127.074219 256.078125 127.886719 255.152344 127.964844 C 255.105469 127.96875 255.058594 127.96875 255.011719 127.96875 Z M 255.011719 127.972656 " fill-opacity="1" fill-rule="nonzero"/><path fill="#282626" d="M 258.519531 124.75 C 257.667969 124.75 256.9375 124.109375 256.84375 123.242188 C 256.4375 119.4375 255.765625 115.578125 254.847656 111.769531 C 254.628906 110.863281 255.183594 109.953125 256.089844 109.734375 C 256.996094 109.515625 257.90625 110.074219 258.125 110.980469 C 259.074219 114.929688 259.773438 118.9375 260.195312 122.886719 C 260.296875 123.8125 259.625 124.640625 258.699219 124.742188 C 258.636719 124.746094 258.578125 124.75 258.519531 124.75 Z M 258.519531 124.75 " fill-opacity="1" fill-rule="nonzero"/><path fill="#282626" d="M 253.804688 145.203125 C 253.261719 145.203125 252.730469 144.945312 252.40625 144.460938 C 251.882812 143.6875 252.089844 142.640625 252.863281 142.121094 L 272.207031 129.097656 C 272.980469 128.578125 274.027344 128.78125 274.546875 129.554688 C 275.066406 130.328125 274.863281 131.375 274.089844 131.894531 L 254.746094 144.917969 C 254.457031 145.113281 254.128906 145.203125 253.804688 145.203125 Z M 253.804688 145.203125 " fill-opacity="1" fill-rule="nonzero"/><path fill="#282626" d="M 259.3125 151 C 259.1875 151 259.0625 150.984375 258.933594 150.957031 C 258.027344 150.75 257.457031 149.847656 257.664062 148.9375 C 258.429688 145.582031 258.96875 142.089844 259.269531 138.566406 C 259.351562 137.636719 260.167969 136.949219 261.09375 137.027344 C 262.023438 137.109375 262.710938 137.925781 262.628906 138.851562 C 262.316406 142.53125 261.753906 146.179688 260.953125 149.6875 C 260.777344 150.46875 260.082031 151 259.3125 151 Z M 259.3125 151 " fill-opacity="1" fill-rule="nonzero"/><path fill="#282626" d="M 272.253906 144.019531 C 272.175781 144.019531 272.09375 144.015625 272.015625 144.003906 C 271.089844 143.871094 270.453125 143.019531 270.582031 142.097656 C 271.125 138.3125 271.421875 134.402344 271.460938 130.480469 C 271.472656 129.554688 272.226562 128.8125 273.148438 128.8125 C 273.15625 128.8125 273.160156 128.8125 273.167969 128.8125 C 274.097656 128.820312 274.84375 129.582031 274.835938 130.515625 C 274.789062 134.585938 274.484375 138.640625 273.921875 142.574219 C 273.800781 143.414062 273.082031 144.019531 272.253906 144.019531 Z M 272.253906 144.019531 " fill-opacity="1" fill-rule="nonzero"/><path fill="#282626" d="M 271.984375 144.164062 C 271.746094 144.164062 271.5 144.113281 271.269531 144.003906 C 267.894531 142.421875 264.421875 141.066406 260.949219 139.976562 C 260.058594 139.699219 259.566406 138.753906 259.84375 137.867188 C 260.121094 136.976562 261.066406 136.480469 261.957031 136.761719 C 265.574219 137.894531 269.191406 139.304688 272.699219 140.953125 C 273.542969 141.347656 273.90625 142.351562 273.511719 143.195312 C 273.222656 143.808594 272.617188 144.167969 271.984375 144.167969 Z M 271.984375 144.164062 " fill-opacity="1" fill-rule="nonzero"/><path fill="#282626" d="M 286.921875 165.5625 C 286.621094 165.5625 286.316406 165.484375 286.039062 165.3125 C 281.804688 162.707031 277.402344 160.460938 272.960938 158.640625 C 272.097656 158.289062 271.683594 157.300781 272.039062 156.441406 C 272.390625 155.578125 273.375 155.164062 274.238281 155.519531 C 278.851562 157.410156 283.417969 159.738281 287.808594 162.441406 C 288.601562 162.929688 288.847656 163.96875 288.359375 164.761719 C 288.042969 165.277344 287.488281 165.5625 286.925781 165.5625 Z M 286.921875 165.5625 " fill-opacity="1" fill-rule="nonzero"/><path fill="#282626" d="M 265.84375 170.625 C 265.480469 170.625 265.113281 170.507812 264.804688 170.265625 C 264.070312 169.691406 263.945312 168.628906 264.519531 167.898438 C 267.34375 164.304688 269.910156 160.390625 272.144531 156.265625 C 272.585938 155.445312 273.609375 155.140625 274.429688 155.585938 C 275.25 156.027344 275.550781 157.054688 275.109375 157.871094 C 272.78125 162.164062 270.113281 166.238281 267.171875 169.980469 C 266.839844 170.402344 266.34375 170.625 265.84375 170.625 Z M 265.84375 170.625 " fill-opacity="1" fill-rule="nonzero"/><path fill="#282626" d="M 205.847656 112.226562 C 205.71875 112.226562 205.59375 112.210938 205.464844 112.179688 C 204.558594 111.972656 203.992188 111.066406 204.203125 110.15625 L 209.460938 87.4375 C 209.667969 86.53125 210.574219 85.964844 211.484375 86.175781 C 212.390625 86.386719 212.957031 87.292969 212.746094 88.199219 L 207.488281 110.917969 C 207.308594 111.699219 206.613281 112.226562 205.847656 112.226562 Z M 205.847656 112.226562 " fill-opacity="1" fill-rule="nonzero"/><path fill="#282626" d="M 213.574219 114.433594 C 213.394531 114.433594 213.210938 114.402344 213.03125 114.339844 C 212.148438 114.039062 211.679688 113.082031 211.980469 112.199219 L 217.125 97.152344 C 217.429688 96.273438 218.386719 95.800781 219.265625 96.105469 C 220.148438 96.40625 220.617188 97.363281 220.316406 98.246094 L 215.171875 113.292969 C 214.929688 113.992188 214.277344 114.433594 213.574219 114.433594 Z M 213.574219 114.433594 " fill-opacity="1" fill-rule="nonzero"/><path fill="#282626" d="M 218.722656 99.386719 C 218.175781 99.386719 217.636719 99.117188 217.3125 98.625 C 215.09375 95.246094 212.585938 91.957031 209.855469 88.847656 C 209.242188 88.148438 209.3125 87.082031 210.011719 86.46875 C 210.710938 85.851562 211.777344 85.921875 212.390625 86.625 C 215.222656 89.851562 217.828125 93.265625 220.132812 96.773438 C 220.644531 97.550781 220.425781 98.597656 219.648438 99.109375 C 219.363281 99.296875 219.042969 99.386719 218.722656 99.386719 Z M 218.722656 99.386719 " fill-opacity="1" fill-rule="nonzero"/><path fill="#282626" d="M 224.53125 119.082031 C 224.269531 119.082031 224.003906 119.019531 223.753906 118.890625 C 222.929688 118.460938 222.609375 117.445312 223.039062 116.617188 L 233.808594 95.933594 C 234.238281 95.109375 235.253906 94.785156 236.082031 95.21875 C 236.90625 95.648438 237.226562 96.664062 236.796875 97.492188 L 226.03125 118.175781 C 225.730469 118.753906 225.140625 119.082031 224.53125 119.082031 Z M 224.53125 119.082031 " fill-opacity="1" fill-rule="nonzero"/><path fill="#282626" d="M 238.433594 112.570312 C 237.722656 112.570312 237.0625 112.117188 236.832031 111.402344 C 235.613281 107.640625 234.097656 103.882812 232.332031 100.238281 C 231.925781 99.398438 232.277344 98.390625 233.113281 97.984375 C 233.949219 97.578125 234.960938 97.929688 235.367188 98.765625 C 237.203125 102.550781 238.773438 106.453125 240.039062 110.363281 C 240.324219 111.25 239.839844 112.199219 238.953125 112.488281 C 238.78125 112.542969 238.605469 112.566406 238.433594 112.566406 Z M 238.433594 112.570312 " fill-opacity="1" fill-rule="nonzero"/><path fill="#282626" d="M 226.917969 114.5 C 226.160156 114.5 225.46875 113.980469 225.28125 113.210938 C 225.0625 112.304688 225.617188 111.394531 226.519531 111.175781 C 230.320312 110.25 234.273438 109.589844 238.273438 109.207031 C 239.203125 109.117188 240.023438 109.796875 240.113281 110.722656 C 240.203125 111.648438 239.523438 112.472656 238.59375 112.5625 C 234.757812 112.929688 230.960938 113.566406 227.316406 114.449219 C 227.183594 114.484375 227.046875 114.5 226.917969 114.5 Z M 226.917969 114.5 " fill-opacity="1" fill-rule="nonzero"/><path fill="#282626" d="M 110.230469 246.875 C 110.113281 246.875 109.992188 246.859375 109.871094 246.835938 C 108.320312 246.5 107.015625 246.203125 105.707031 245.851562 L 104.519531 245.539062 C 104.222656 245.457031 103.910156 245.375 103.605469 245.285156 C 102.929688 245.089844 102.230469 244.882812 101.535156 244.667969 C 100.644531 244.398438 100.144531 243.453125 100.414062 242.5625 C 100.6875 241.675781 101.628906 241.171875 102.519531 241.445312 C 103.199219 241.652344 103.882812 241.855469 104.550781 242.046875 C 104.828125 242.128906 105.105469 242.203125 105.394531 242.28125 L 106.570312 242.59375 C 107.824219 242.925781 109.082031 243.210938 110.589844 243.539062 C 111.5 243.734375 112.078125 244.632812 111.878906 245.542969 C 111.707031 246.332031 111.011719 246.871094 110.234375 246.871094 Z M 110.230469 246.875 " fill-opacity="1" fill-rule="nonzero"/><path fill="#282626" d="M 101.855469 244.484375 C 101.78125 244.484375 101.707031 244.476562 101.628906 244.46875 C 100.707031 244.34375 100.058594 243.496094 100.183594 242.574219 C 100.597656 239.488281 101.089844 236.707031 101.695312 234.070312 C 101.902344 233.160156 102.804688 232.59375 103.714844 232.804688 C 104.625 233.011719 105.191406 233.914062 104.980469 234.824219 C 104.402344 237.359375 103.925781 240.039062 103.527344 243.019531 C 103.414062 243.867188 102.691406 244.484375 101.859375 244.484375 Z M 101.855469 244.484375 " fill-opacity="1" fill-rule="nonzero"/><path fill="#282626" d="M 101.804688 244.699219 C 101.25 244.699219 100.703125 244.429688 100.382812 243.925781 C 99.878906 243.144531 100.105469 242.097656 100.890625 241.597656 L 120.167969 229.21875 C 120.953125 228.714844 121.996094 228.941406 122.5 229.726562 C 123.003906 230.511719 122.773438 231.554688 121.992188 232.058594 L 102.710938 244.433594 C 102.429688 244.617188 102.113281 244.699219 101.804688 244.699219 Z M 101.804688 244.699219 " fill-opacity="1" fill-rule="nonzero"/><path fill="#282626" d="M 91.753906 224.960938 C 91.066406 224.960938 90.421875 224.539062 90.171875 223.859375 C 89.847656 222.984375 90.296875 222.015625 91.171875 221.691406 L 113.054688 213.636719 C 113.929688 213.3125 114.898438 213.761719 115.21875 214.636719 C 115.542969 215.507812 115.09375 216.480469 114.21875 216.800781 L 92.335938 224.859375 C 92.144531 224.929688 91.949219 224.960938 91.753906 224.960938 Z M 91.753906 224.960938 " fill-opacity="1" fill-rule="nonzero"/><path fill="#282626" d="M 92.539062 224.671875 C 92.464844 224.671875 92.394531 224.667969 92.320312 224.660156 C 91.398438 224.542969 90.746094 223.695312 90.863281 222.773438 C 91.355469 218.910156 92.089844 215.070312 93.046875 211.359375 C 93.277344 210.457031 94.199219 209.917969 95.097656 210.148438 C 96 210.382812 96.542969 211.300781 96.3125 212.203125 C 95.390625 215.773438 94.683594 219.472656 94.207031 223.199219 C 94.097656 224.050781 93.371094 224.671875 92.535156 224.671875 Z M 92.539062 224.671875 " fill-opacity="1" fill-rule="nonzero"/><path fill="#282626" d="M 102.640625 220.953125 C 102.261719 220.953125 101.882812 220.824219 101.566406 220.566406 C 98.746094 218.234375 96.015625 215.667969 93.449219 212.9375 C 92.8125 212.257812 92.847656 211.191406 93.527344 210.554688 C 94.207031 209.917969 95.273438 209.949219 95.910156 210.628906 C 98.378906 213.257812 101.003906 215.726562 103.714844 217.96875 C 104.433594 218.558594 104.535156 219.621094 103.941406 220.339844 C 103.609375 220.742188 103.128906 220.953125 102.640625 220.953125 Z M 102.640625 220.953125 " fill-opacity="1" fill-rule="nonzero"/><path fill="#282626" d="M 102.644531 220.953125 C 102.546875 220.953125 102.449219 220.941406 102.347656 220.925781 C 101.429688 220.765625 100.820312 219.890625 100.980469 218.972656 C 101.601562 215.449219 102.449219 211.960938 103.5 208.605469 C 103.78125 207.714844 104.726562 207.222656 105.613281 207.5 C 106.503906 207.777344 106.996094 208.722656 106.71875 209.613281 C 105.710938 212.832031 104.898438 216.175781 104.300781 219.558594 C 104.15625 220.378906 103.445312 220.953125 102.644531 220.953125 Z M 102.644531 220.953125 " fill-opacity="1" fill-rule="nonzero"/><path fill="#282626" d="M 112.746094 217.230469 C 112.402344 217.230469 112.050781 217.125 111.75 216.902344 C 109.050781 214.917969 106.421875 212.703125 103.945312 210.324219 C 103.273438 209.679688 103.25 208.609375 103.898438 207.941406 C 104.542969 207.269531 105.609375 207.246094 106.28125 207.894531 C 108.652344 210.171875 111.164062 212.289062 113.746094 214.1875 C 114.5 214.738281 114.660156 215.792969 114.109375 216.542969 C 113.777344 216.992188 113.265625 217.234375 112.746094 217.234375 Z M 112.746094 217.230469 " fill-opacity="1" fill-rule="nonzero"/><path fill="#ffe1d7" d="M 209.976562 225.140625 L 165.296875 225.140625 C 165.296875 225.140625 149.753906 238.65625 149.753906 264.039062 L 225.519531 264.039062 C 225.519531 238.65625 210.011719 225.140625 209.976562 225.140625 Z M 209.976562 225.140625 " fill-opacity="1" fill-rule="nonzero"/><path fill="#ffcec0" d="M 187.804688 249.769531 C 200.605469 249.769531 211.464844 245.496094 220.273438 239.808594 C 215.785156 230.171875 210.011719 225.140625 210.011719 225.140625 L 165.296875 225.140625 C 165.296875 225.140625 159.589844 230.105469 155.101562 239.644531 C 163.945312 245.398438 174.867188 249.769531 187.804688 249.769531 Z M 187.804688 249.769531 " fill-opacity="1" fill-rule="nonzero"/><path fill="#aeaeb2" d="M 187.636719 233 C 182.984375 234.941406 179.71875 239.511719 179.71875 244.839844 C 179.71875 250.164062 182.984375 254.734375 187.636719 256.675781 C 192.292969 254.734375 195.558594 250.164062 195.558594 244.839844 C 195.558594 239.511719 192.292969 234.941406 187.636719 233 Z M 187.636719 233 " fill-opacity="1" fill-rule="nonzero"/><path fill="#ffe1d7" d="M 245.617188 173.355469 C 245.222656 188.675781 238.820312 202.554688 228.65625 212.648438 C 218.164062 223.105469 203.644531 229.582031 187.636719 229.582031 C 155.597656 229.582031 129.625 203.703125 129.625 171.777344 L 152.164062 149.316406 L 223.871094 149.316406 Z M 245.617188 173.355469 " fill-opacity="1" fill-rule="nonzero"/><path fill="#ffb85c" d="M 139.558594 139.421875 C 141.636719 136.363281 144.015625 133.503906 146.621094 130.90625 C 157.113281 120.449219 171.632812 113.96875 187.636719 113.96875 C 207.636719 113.96875 225.289062 124.066406 235.71875 139.421875 L 187.804688 149.316406 Z M 139.558594 139.421875 " fill-opacity="1" fill-rule="nonzero"/><path fill="#e7a249" d="M 149.457031 139.421875 C 151.539062 136.363281 153.914062 133.503906 156.519531 130.90625 C 165.925781 121.535156 178.53125 115.382812 192.589844 114.199219 C 190.972656 114.070312 189.320312 114.003906 187.636719 114.003906 C 171.632812 114.003906 157.113281 120.480469 146.621094 130.9375 C 144.015625 133.535156 141.636719 136.394531 139.558594 139.453125 L 187.804688 149.351562 L 192.71875 148.332031 Z M 149.457031 139.421875 " fill-opacity="1" fill-rule="nonzero"/><path fill="#d2d2d2" d="M 250.898438 178.320312 L 262.316406 173.089844 C 263.699219 184.039062 259.34375 194.925781 250.796875 201.929688 L 244.164062 207.351562 L 237.269531 194.5625 Z M 250.898438 178.320312 " fill-opacity="1" fill-rule="nonzero"/><path fill="#d2d2d2" d="M 124.378906 178.320312 L 112.960938 173.089844 C 111.574219 184.039062 115.933594 194.925781 124.476562 201.929688 L 131.109375 207.351562 L 138.007812 194.5625 Z M 124.378906 178.320312 " fill-opacity="1" fill-rule="nonzero"/><path fill="#edebec" d="M 263.601562 152.507812 C 267.265625 160.660156 265.679688 170.199219 259.574219 176.742188 L 246.574219 190.683594 L 239.25 184.171875 L 241.195312 171.578125 Z M 263.601562 152.507812 " fill-opacity="1" fill-rule="nonzero"/><path fill="#48484d" d="M 148.4375 157.046875 L 148.4375 171.414062 C 148.4375 177.992188 153.78125 183.285156 160.347656 183.285156 C 166.949219 183.285156 172.261719 177.957031 172.261719 171.414062 L 172.261719 157.046875 Z M 148.4375 157.046875 " fill-opacity="1" fill-rule="nonzero"/><path fill="#a1a1a5" d="M 194.734375 249.34375 C 195.261719 247.929688 195.558594 246.417969 195.558594 244.839844 C 195.558594 239.511719 192.292969 234.941406 187.636719 233 C 182.984375 234.941406 179.71875 239.511719 179.71875 244.839844 C 179.71875 246.417969 180.015625 247.894531 180.511719 249.308594 C 182.851562 249.605469 185.296875 249.769531 187.769531 249.769531 C 190.179688 249.769531 192.488281 249.605469 194.734375 249.34375 Z M 194.734375 249.34375 " fill-opacity="1" fill-rule="nonzero"/><path fill="#d2d2d2" d="M 187.804688 241.550781 C 220.539062 241.550781 239.546875 208.109375 239.546875 208.109375 L 233.109375 192.492188 C 233.109375 192.492188 224.960938 201.863281 212.355469 203.902344 L 187.804688 196.503906 L 163.253906 203.902344 C 150.613281 201.863281 142.496094 192.492188 142.496094 192.492188 L 136.0625 208.144531 C 136.0625 208.109375 155.066406 241.550781 187.804688 241.550781 Z M 187.804688 241.550781 " fill-opacity="1" fill-rule="nonzero"/><path fill="#aeaeb2" d="M 195.789062 188.511719 L 179.488281 188.511719 C 179.488281 188.511719 162.890625 193.082031 162.890625 207.351562 L 162.890625 215.34375 L 163.1875 215.34375 C 169.289062 215.34375 174.835938 212.121094 178.101562 206.992188 C 179.816406 204.261719 182.722656 201.960938 187.605469 201.960938 C 192.488281 201.960938 195.394531 204.296875 197.109375 206.992188 C 200.375 212.121094 205.917969 215.34375 212.023438 215.34375 L 212.320312 215.34375 L 212.320312 207.351562 C 212.355469 193.117188 195.789062 188.511719 195.789062 188.511719 Z M 195.789062 188.511719 " fill-opacity="1" fill-rule="nonzero"/><path fill="#ffc471" d="M 245.648438 171.777344 C 245.648438 172.300781 245.648438 172.828125 245.617188 173.355469 L 234 179.4375 C 234 174.175781 231.855469 169.410156 228.390625 165.988281 C 224.925781 162.535156 220.109375 160.398438 214.796875 160.433594 C 204.238281 160.464844 195.757812 169.210938 195.757812 179.765625 L 195.757812 188.578125 C 195.757812 190.253906 194.402344 191.601562 192.71875 191.601562 L 182.492188 191.601562 C 180.808594 191.601562 179.453125 190.253906 179.453125 188.578125 L 179.453125 179.46875 C 179.453125 174.210938 177.308594 169.441406 173.84375 166.023438 C 170.378906 162.570312 165.59375 160.464844 160.347656 160.464844 C 149.789062 160.464844 141.242188 168.980469 141.242188 179.503906 L 129.921875 165.855469 C 130.914062 156.15625 134.34375 147.179688 139.558594 139.488281 L 235.71875 139.488281 C 241.988281 148.660156 245.648438 159.808594 245.648438 171.777344 Z M 245.648438 171.777344 " fill-opacity="1" fill-rule="nonzero"/><path fill="#ffb85c" d="M 139.824219 165.792969 C 140.8125 156.089844 144.246094 147.113281 149.457031 139.421875 L 139.558594 139.421875 C 134.34375 147.082031 130.945312 156.089844 129.921875 165.792969 L 141.242188 179.4375 C 141.242188 176.148438 142.101562 173.027344 143.585938 170.328125 Z M 139.824219 165.792969 " fill-opacity="1" fill-rule="nonzero"/><path fill="#d2d2d2" d="M 262.742188 130.3125 L 255.417969 130.3125 L 237.269531 162.832031 L 237.269531 178.285156 L 245.089844 177.300781 C 250.699219 171.152344 256.011719 164.277344 260.234375 158.460938 C 266.175781 150.273438 267.394531 139.585938 263.402344 130.3125 " fill-opacity="1" fill-rule="nonzero"/><path fill="#d2d2d2" d="M 112.53125 130.3125 L 119.859375 130.3125 L 138.007812 162.832031 L 138.007812 178.285156 L 130.1875 177.300781 C 124.578125 171.152344 119.265625 164.277344 115.039062 158.460938 C 109.101562 150.273438 107.878906 139.585938 111.871094 130.3125 " fill-opacity="1" fill-rule="nonzero"/><path fill="#edebec" d="M 111.675781 152.507812 C 108.011719 160.660156 109.597656 170.199219 115.699219 176.742188 L 128.703125 190.683594 L 136.027344 184.171875 L 134.082031 171.578125 Z M 111.675781 152.507812 " fill-opacity="1" fill-rule="nonzero"/><path fill="#e7a249" d="M 161.339844 149.777344 C 161.339844 152.113281 159.425781 154.019531 157.082031 154.019531 C 154.738281 154.019531 152.824219 152.113281 152.824219 149.777344 C 152.824219 147.445312 154.738281 145.535156 157.082031 145.535156 C 159.425781 145.503906 161.339844 147.410156 161.339844 149.777344 Z M 161.339844 149.777344 " fill-opacity="1" fill-rule="nonzero"/><path fill="#e7a249" d="M 222.484375 149.777344 C 222.484375 152.113281 220.570312 154.019531 218.226562 154.019531 C 215.886719 154.019531 213.972656 152.113281 213.972656 149.777344 C 213.972656 147.445312 215.886719 145.535156 218.226562 145.535156 C 220.570312 145.503906 222.484375 147.410156 222.484375 149.777344 Z M 222.484375 149.777344 " fill-opacity="1" fill-rule="nonzero"/><path fill="#e7a249" d="M 191.894531 149.777344 C 191.894531 152.113281 189.980469 154.019531 187.636719 154.019531 C 185.296875 154.019531 183.382812 152.113281 183.382812 149.777344 C 183.382812 147.445312 185.296875 145.535156 187.636719 145.535156 C 189.980469 145.535156 191.894531 147.410156 191.894531 149.777344 Z M 191.894531 149.777344 " fill-opacity="1" fill-rule="nonzero"/><path fill="#f77f82" d="M 218.558594 192.558594 L 211.332031 192.558594 C 209.976562 192.558594 208.855469 191.4375 208.855469 190.089844 C 208.855469 188.742188 209.976562 187.625 211.332031 187.625 L 218.558594 187.625 C 219.910156 187.625 221.03125 188.742188 221.03125 190.089844 C 221.03125 191.472656 219.910156 192.558594 218.558594 192.558594 Z M 218.558594 192.558594 " fill-opacity="1" fill-rule="nonzero"/><path fill="#f77f82" d="M 163.945312 192.558594 L 156.71875 192.558594 C 155.367188 192.558594 154.242188 191.4375 154.242188 190.089844 C 154.242188 188.742188 155.367188 187.625 156.71875 187.625 L 163.945312 187.625 C 165.296875 187.625 166.421875 188.742188 166.421875 190.089844 C 166.421875 191.472656 165.332031 192.558594 163.945312 192.558594 Z M 163.945312 192.558594 " fill-opacity="1" fill-rule="nonzero"/><path fill="#edebec" d="M 240.765625 137.808594 C 245.816406 130.214844 251.027344 122.75 256.242188 115.253906 C 258.785156 111.570312 264.03125 111.042969 267.296875 114.101562 C 270.035156 116.667969 270.398438 120.84375 268.121094 123.835938 C 261.851562 132.121094 250.039062 149.054688 245.1875 164.839844 C 242.121094 173.027344 248.882812 185.71875 245.617188 200.019531 C 243.539062 209.097656 242.515625 218.039062 242.054688 223.332031 C 241.886719 225.339844 239.414062 226.128906 238.058594 224.683594 C 232.320312 218.5 232.78125 214.324219 232.78125 185.914062 C 232.78125 179.4375 230.339844 173.585938 229.777344 167.238281 C 228.789062 156.289062 234.992188 146.523438 240.765625 137.808594 Z M 240.765625 137.808594 " fill-opacity="1" fill-rule="nonzero"/><path fill="#edebec" d="M 134.511719 137.808594 C 129.460938 130.179688 124.214844 122.71875 119 115.253906 C 116.425781 111.570312 111.210938 111.042969 107.945312 114.101562 C 105.238281 116.632812 104.878906 120.84375 107.121094 123.800781 C 113.390625 132.089844 125.203125 149.023438 130.054688 164.804688 C 133.125 172.992188 126.359375 185.683594 129.625 199.988281 C 131.707031 209.0625 132.726562 218.007812 133.191406 223.300781 C 133.355469 225.304688 135.828125 226.128906 137.183594 224.648438 C 142.957031 218.46875 142.460938 214.292969 142.460938 185.882812 C 142.460938 179.40625 144.90625 173.550781 145.464844 167.207031 C 146.488281 156.289062 140.285156 146.523438 134.511719 137.808594 Z M 134.511719 137.808594 " fill-opacity="1" fill-rule="nonzero"/><path fill="#000000" d="M 157.046875 156.484375 C 160.777344 156.484375 163.78125 153.460938 163.78125 149.777344 C 163.78125 146.0625 160.746094 143.070312 157.046875 143.070312 C 153.320312 143.070312 150.316406 146.09375 150.316406 149.777344 C 150.316406 153.460938 153.351562 156.484375 157.046875 156.484375 Z M 157.046875 147.96875 C 158.039062 147.96875 158.832031 148.757812 158.832031 149.746094 C 158.832031 150.730469 158.039062 151.519531 157.046875 151.519531 C 156.058594 151.519531 155.265625 150.730469 155.265625 149.746094 C 155.265625 148.757812 156.089844 147.96875 157.046875 147.96875 Z M 157.046875 147.96875 " fill-opacity="1" fill-rule="nonzero"/><path fill="#000000" d="M 218.226562 156.484375 C 221.957031 156.484375 224.960938 153.460938 224.960938 149.777344 C 224.960938 146.0625 221.925781 143.070312 218.226562 143.070312 C 214.5 143.070312 211.496094 146.09375 211.496094 149.777344 C 211.464844 153.460938 214.5 156.484375 218.226562 156.484375 Z M 218.226562 147.96875 C 219.21875 147.96875 220.011719 148.757812 220.011719 149.746094 C 220.011719 150.730469 219.21875 151.519531 218.226562 151.519531 C 217.238281 151.519531 216.445312 150.730469 216.445312 149.746094 C 216.445312 148.757812 217.238281 147.96875 218.226562 147.96875 Z M 218.226562 147.96875 " fill-opacity="1" fill-rule="nonzero"/><path fill="#000000" d="M 187.636719 156.484375 C 191.367188 156.484375 194.371094 153.460938 194.371094 149.777344 C 194.371094 146.0625 191.335938 143.070312 187.636719 143.070312 C 183.941406 143.070312 180.90625 146.09375 180.90625 149.777344 C 180.90625 153.460938 183.910156 156.484375 187.636719 156.484375 Z M 187.636719 147.96875 C 188.628906 147.96875 189.421875 148.757812 189.421875 149.746094 C 189.421875 150.730469 188.628906 151.519531 187.636719 151.519531 C 186.648438 151.519531 185.855469 150.730469 185.855469 149.746094 C 185.855469 148.757812 186.648438 147.96875 187.636719 147.96875 Z M 187.636719 147.96875 " fill-opacity="1" fill-rule="nonzero"/><path fill="#000000" d="M 213.9375 181.773438 C 215.292969 181.773438 216.414062 180.652344 216.414062 179.304688 L 216.414062 174.339844 C 216.414062 172.992188 215.292969 171.875 213.9375 171.875 C 212.585938 171.875 211.464844 172.992188 211.464844 174.339844 L 211.464844 179.304688 C 211.464844 180.652344 212.585938 181.773438 213.9375 181.773438 Z M 213.9375 181.773438 " fill-opacity="1" fill-rule="nonzero"/><g clip-path="url(#022a3f40b1)"><path fill="#000000" d="M 269.011719 112.292969 C 267.199219 110.582031 264.789062 109.628906 262.28125 109.628906 C 259.046875 109.628906 256.042969 111.207031 254.195312 113.839844 L 252.183594 116.699219 C 247.695312 123.113281 243.078125 129.785156 238.65625 136.429688 C 238.324219 136.921875 237.996094 137.449219 237.632812 137.941406 C 226.410156 121.402344 207.703125 111.539062 187.636719 111.539062 C 179.75 111.539062 172.0625 113.015625 164.835938 115.976562 C 163.582031 116.503906 162.953125 117.917969 163.484375 119.199219 C 164.011719 120.480469 165.429688 121.074219 166.71875 120.546875 C 173.382812 117.851562 180.410156 116.46875 187.671875 116.46875 C 204.535156 116.46875 220.308594 124.066406 230.832031 136.988281 L 144.476562 136.988281 C 145.695312 135.476562 146.984375 134.0625 148.371094 132.679688 C 151.242188 129.820312 154.441406 127.253906 157.839844 125.085938 C 158.996094 124.359375 159.324219 122.816406 158.597656 121.664062 C 157.875 120.515625 156.324219 120.183594 155.167969 120.910156 C 151.4375 123.277344 147.972656 126.039062 144.839844 129.160156 C 142.132812 131.859375 139.691406 134.816406 137.546875 137.941406 C 137.214844 137.414062 136.851562 136.921875 136.523438 136.429688 C 132.101562 129.785156 121.011719 113.839844 121.011719 113.839844 C 117.679688 109.003906 110.554688 108.25 106.261719 112.292969 C 102.601562 115.714844 102.136719 121.304688 105.140625 125.28125 C 106.296875 126.828125 107.648438 128.636719 109.066406 130.640625 C 106.429688 137.679688 106.460938 145.472656 109.035156 152.441406 C 106.230469 159.445312 106.824219 167.207031 110.421875 173.617188 C 109.265625 185.191406 113.886719 196.402344 122.925781 203.835938 L 128.835938 208.667969 C 129.824219 214.390625 130.386719 219.652344 130.75 223.53125 C 130.980469 225.996094 133.023438 227.871094 135.53125 227.871094 C 136.886719 227.871094 138.105469 227.3125 139.03125 226.324219 C 140.648438 224.617188 141.804688 223.003906 142.660156 221.097656 C 146.058594 224.910156 150.480469 229.253906 155.828125 233.066406 C 151.667969 239.839844 147.28125 250.261719 147.28125 263.976562 C 147.28125 265.324219 148.402344 266.441406 149.753906 266.441406 L 225.519531 266.441406 C 226.875 266.441406 227.996094 265.324219 227.996094 263.976562 C 227.996094 260.257812 227.664062 256.578125 227.039062 253.027344 C 226.808594 251.675781 225.519531 250.789062 224.167969 251.019531 C 222.816406 251.25 221.925781 252.53125 222.15625 253.878906 C 222.617188 256.378906 222.882812 258.945312 222.980469 261.507812 L 212.453125 261.507812 L 212.453125 249.144531 C 212.453125 247.796875 211.332031 246.679688 209.976562 246.679688 C 208.625 246.679688 207.503906 247.796875 207.503906 249.144531 L 207.503906 261.507812 L 167.773438 261.507812 L 167.773438 249.144531 C 167.773438 247.796875 166.652344 246.679688 165.296875 246.679688 C 163.945312 246.679688 162.824219 247.796875 162.824219 249.144531 L 162.824219 261.507812 L 152.296875 261.507812 C 152.757812 250.230469 156.421875 241.582031 159.953125 235.796875 C 165.199219 238.984375 170.609375 241.253906 176.121094 242.570312 C 176.550781 242.667969 176.980469 242.765625 177.375 242.867188 C 177.308594 243.488281 177.242188 244.148438 177.242188 244.773438 C 177.242188 250.953125 180.9375 256.511719 186.679688 258.878906 C 187.273438 259.109375 187.96875 259.140625 188.59375 258.878906 C 194.335938 256.511719 198.03125 250.953125 198.03125 244.773438 C 198.03125 244.148438 198 243.523438 197.933594 242.898438 C 203.941406 241.648438 209.78125 239.347656 215.457031 235.925781 C 217.140625 238.722656 218.558594 241.714844 219.714844 244.839844 C 220.175781 246.121094 221.59375 246.777344 222.882812 246.316406 C 224.167969 245.859375 224.828125 244.445312 224.367188 243.160156 C 223.078125 239.675781 221.460938 236.355469 219.582031 233.230469 C 224.960938 229.417969 229.382812 225.109375 232.78125 221.328125 C 233.636719 223.105469 234.761719 224.648438 236.3125 226.324219 C 237.234375 227.3125 238.488281 227.871094 239.808594 227.871094 C 242.316406 227.871094 244.363281 225.996094 244.59375 223.53125 C 244.925781 219.652344 245.519531 214.390625 246.507812 208.667969 L 252.414062 203.800781 C 261.457031 196.402344 266.078125 185.160156 264.921875 173.585938 C 268.519531 167.171875 269.113281 159.378906 266.308594 152.410156 C 268.882812 145.4375 268.914062 137.679688 266.273438 130.609375 C 267.695312 128.601562 269.046875 126.792969 270.203125 125.25 C 273.136719 121.304688 272.675781 115.714844 269.011719 112.292969 Z M 230.207031 191.933594 C 227.664062 194.398438 224.730469 196.503906 221.59375 198.179688 C 219.117188 199.460938 216.511719 200.480469 213.804688 201.105469 C 212.453125 197.160156 209.746094 193.640625 205.789062 190.78125 C 202.949219 188.742188 200.078125 187.460938 198.296875 186.769531 L 198.296875 179.699219 C 198.296875 170.429688 205.722656 162.898438 214.863281 162.832031 L 214.929688 162.832031 C 219.085938 162.832031 223.011719 164.34375 226.082031 167.105469 C 226.542969 167.5 227.433594 168.488281 227.46875 168.519531 C 227.765625 171.019531 228.324219 173.453125 228.855469 175.789062 C 229.613281 179.207031 230.371094 182.460938 230.371094 185.847656 C 230.371094 187.953125 230.371094 189.925781 230.371094 191.769531 C 230.273438 191.867188 230.238281 191.898438 230.207031 191.933594 Z M 160.679688 200.808594 C 157.542969 199.957031 154.574219 198.605469 151.835938 196.929688 C 149.953125 195.777344 146.488281 192.953125 146.457031 192.917969 C 149.226562 191.078125 152.429688 188.445312 155.367188 184.863281 C 156.917969 185.453125 158.597656 185.75 160.382812 185.75 C 168.332031 185.75 174.769531 179.304688 174.769531 171.414062 L 174.769531 171.117188 C 176.21875 173.617188 177.011719 176.445312 177.011719 179.40625 L 177.011719 186.738281 C 175.261719 187.394531 172.523438 188.609375 169.753906 190.550781 C 165.660156 193.445312 162.890625 196.964844 161.46875 200.972656 C 161.207031 200.972656 160.941406 200.910156 160.679688 200.808594 Z M 161.140625 162.898438 C 164.242188 163.03125 167.277344 164.050781 169.820312 165.824219 L 169.820312 171.445312 C 169.820312 176.640625 165.59375 180.851562 160.382812 180.851562 C 155.167969 180.851562 150.945312 176.640625 150.945312 171.445312 L 150.945312 165.824219 C 150.945312 165.824219 150.976562 165.824219 150.976562 165.792969 C 153.914062 163.753906 157.542969 162.699219 161.140625 162.898438 Z M 144.9375 185.914062 C 144.9375 182.527344 145.664062 179.273438 146.457031 175.851562 C 146.488281 175.722656 146.523438 175.589844 146.554688 175.457031 C 147.347656 178.1875 148.929688 180.589844 151.042969 182.398438 C 149.03125 184.730469 146.917969 186.574219 144.9375 188.019531 C 144.9375 187.296875 144.9375 186.605469 144.9375 185.914062 Z M 165.363281 207.351562 C 165.363281 199.890625 171.371094 194.464844 177.835938 191.734375 C 177.902344 191.703125 177.9375 191.703125 178.003906 191.667969 C 179.027344 193.117188 180.742188 194.003906 182.523438 194.003906 L 192.753906 194.003906 C 194.503906 194.003906 196.25 193.117188 197.273438 191.667969 C 200.96875 193.183594 208.230469 197.0625 209.648438 204.65625 C 209.8125 205.546875 209.914062 206.433594 209.914062 207.351562 L 209.914062 212.714844 C 205.589844 212.054688 201.730469 209.523438 199.253906 205.644531 C 196.679688 201.597656 192.652344 199.460938 187.636719 199.460938 C 182.621094 199.460938 178.597656 201.597656 176.023438 205.644531 C 173.546875 209.523438 169.6875 212.054688 165.363281 212.714844 Z M 234.363281 141.886719 C 234.496094 142.085938 234.628906 142.3125 234.761719 142.511719 C 233.902344 143.925781 231.726562 147.96875 231.460938 148.464844 C 229.414062 152.574219 227.832031 157.046875 227.335938 161.847656 C 227.203125 161.746094 227.070312 161.648438 226.941406 161.582031 C 223.441406 159.214844 219.152344 157.933594 214.863281 157.933594 L 214.796875 157.933594 C 207.765625 157.964844 201.496094 161.417969 197.570312 166.710938 C 194.800781 170.460938 193.28125 175.0625 193.28125 179.699219 L 193.28125 188.546875 C 193.28125 188.839844 193.015625 189.105469 192.71875 189.105469 L 182.492188 189.105469 C 182.195312 189.105469 181.929688 188.839844 181.929688 188.546875 L 181.929688 179.4375 C 181.929688 173.75 179.652344 168.257812 175.59375 164.246094 C 169.523438 158.195312 160.085938 156.289062 152.132812 159.578125 C 150.648438 160.167969 149.226562 160.957031 147.941406 161.878906 C 147.941406 161.878906 147.90625 161.910156 147.90625 161.910156 C 147.414062 157.144531 145.828125 152.671875 143.78125 148.527344 C 142.792969 146.492188 141.671875 144.515625 140.484375 142.542969 C 140.613281 142.3125 140.746094 142.117188 140.878906 141.917969 Z M 127.746094 165.660156 C 128.371094 167.304688 128.472656 169.308594 128.371094 171.511719 C 128.339844 171.480469 128.304688 171.445312 128.273438 171.382812 C 126.359375 169.144531 124.511719 166.875 122.730469 164.542969 C 119.957031 160.992188 116.890625 157.441406 114.84375 153.394531 C 112.136719 147.96875 111.34375 141.753906 112.664062 135.871094 C 117.515625 143.203125 122.925781 152.410156 126.328125 161.515625 C 126.359375 161.648438 127.25 164.410156 127.746094 165.660156 Z M 113.984375 161.253906 C 118.242188 167.042969 122.695312 172.695312 127.480469 178.054688 C 127.515625 178.089844 127.515625 178.089844 127.546875 178.121094 C 127.515625 178.320312 126.753906 183.746094 126.625 184.828125 L 117.515625 175.0625 C 116.589844 174.109375 115.800781 173.027344 115.105469 171.875 C 112.730469 167.996094 111.773438 163.457031 112.367188 159.019531 C 112.367188 159.019531 112.402344 159.050781 112.402344 159.050781 C 112.597656 159.347656 113.6875 160.890625 113.984375 161.253906 Z M 126.0625 200.019531 C 119.824219 194.925781 116.03125 187.691406 115.304688 179.898438 L 120.78125 185.785156 L 126.226562 191.636719 C 126.226562 192.390625 126.261719 193.148438 126.292969 193.90625 C 126.425781 196.339844 126.789062 198.707031 127.316406 201.074219 Z M 135.632812 222.710938 C 135.269531 218.566406 134.609375 212.976562 133.554688 206.925781 C 133.554688 206.894531 133.554688 206.894531 133.554688 206.894531 C 132.496094 200.910156 131.011719 195.089844 131.277344 188.972656 C 131.605469 181.378906 134.707031 173.15625 132.859375 165.59375 C 132.035156 162.140625 130.648438 158.820312 129.230469 155.566406 C 123.488281 142.3125 114.511719 129.492188 109.101562 122.324219 C 107.617188 120.351562 107.847656 117.585938 109.660156 115.878906 C 111.808594 113.871094 115.335938 114.234375 116.988281 116.632812 C 116.988281 116.632812 128.074219 132.546875 132.429688 139.125 C 135.335938 143.5 138.007812 147.707031 139.953125 151.914062 C 142 156.355469 143.980469 162.304688 142.992188 167.269531 C 141.769531 173.289062 139.988281 179.699219 139.988281 185.882812 C 139.988281 191.042969 139.921875 196.207031 139.824219 201.367188 C 139.722656 206.070312 140.054688 211.070312 139.164062 215.707031 C 138.570312 218.925781 137.480469 220.671875 135.632812 222.710938 Z M 187.636719 253.945312 C 184.304688 252.136719 182.195312 248.683594 182.195312 244.839844 C 182.195312 244.445312 182.226562 244.082031 182.257812 243.71875 C 184.105469 243.917969 185.957031 244.015625 187.804688 244.015625 C 189.550781 244.015625 191.300781 243.917969 193.050781 243.753906 C 193.082031 244.113281 193.117188 244.476562 193.117188 244.839844 C 193.082031 248.683594 190.972656 252.136719 187.636719 253.945312 Z M 231.066406 215.707031 C 224.730469 223.398438 212.980469 234.710938 197.109375 238.097656 C 197.074219 238.097656 197.074219 238.097656 197.042969 238.097656 C 190.34375 239.511719 183.316406 239.347656 176.683594 237.671875 C 176.683594 237.671875 176.648438 237.671875 176.648438 237.671875 C 161.503906 233.824219 150.382812 222.875 144.246094 215.375 C 144.839844 211.429688 144.9375 206.003906 144.9375 198.113281 C 145.003906 198.179688 148.171875 200.480469 149.753906 201.46875 C 153.054688 203.441406 156.652344 204.953125 160.414062 205.839844 C 160.414062 205.839844 160.445312 205.839844 160.445312 205.839844 C 160.480469 205.875 160.382812 207.1875 160.382812 207.351562 L 160.382812 215.34375 C 160.382812 216.691406 161.503906 217.808594 162.855469 217.808594 L 163.152344 217.808594 C 170.015625 217.808594 176.386719 214.257812 180.179688 208.308594 C 181.832031 205.675781 184.273438 204.394531 187.605469 204.394531 C 190.9375 204.394531 193.347656 205.675781 195.03125 208.308594 C 198.824219 214.257812 205.160156 217.808594 212.058594 217.808594 C 213.507812 217.808594 214.828125 216.921875 214.828125 215.34375 L 214.828125 207.351562 C 214.828125 206.894531 214.796875 206.398438 214.761719 205.941406 C 214.761719 205.90625 215.058594 205.875 215.058594 205.875 C 221.628906 204.328125 226.808594 201.105469 230.304688 198.410156 C 230.304688 199.265625 230.304688 200.054688 230.304688 200.84375 C 230.371094 207.847656 230.535156 212.320312 231.066406 215.707031 Z M 249.214844 200.019531 L 247.925781 201.074219 C 247.960938 200.910156 248.421875 198.769531 248.554688 197.882812 C 248.753906 196.570312 248.882812 195.253906 248.949219 193.90625 C 248.984375 193.148438 249.015625 192.390625 249.015625 191.636719 L 259.9375 179.929688 C 259.246094 187.691406 255.449219 194.925781 249.214844 200.019531 Z M 262.910156 159.019531 C 263.503906 163.457031 262.546875 167.996094 260.167969 171.875 C 259.476562 173.027344 258.652344 174.078125 257.761719 175.0625 L 248.652344 184.828125 C 248.519531 183.777344 248.390625 182.726562 248.257812 181.707031 C 248.257812 181.707031 248.257812 181.671875 248.257812 181.671875 C 248.125 180.6875 247.761719 178.320312 247.730469 178.15625 C 247.761719 178.121094 248.652344 177.101562 249.113281 176.609375 C 253.4375 171.675781 257.496094 166.515625 261.359375 161.222656 C 261.886719 160.53125 262.414062 159.808594 262.875 159.082031 C 262.875 159.050781 262.910156 159.019531 262.910156 159.019531 Z M 262.613281 135.902344 C 263.929688 141.789062 263.171875 148.035156 260.433594 153.460938 C 258.816406 156.683594 256.472656 159.476562 254.296875 162.339844 C 251.953125 165.429688 249.511719 168.453125 247.003906 171.414062 C 246.96875 171.445312 246.9375 171.480469 246.902344 171.511719 C 246.773438 169.308594 246.902344 167.304688 247.53125 165.660156 C 248.027344 164.277344 248.421875 162.898438 248.949219 161.515625 C 252.382812 152.441406 257.792969 143.203125 262.613281 135.902344 Z M 266.175781 122.324219 C 260.730469 129.492188 251.789062 142.3125 246.046875 155.566406 C 244.59375 158.953125 243.078125 162.371094 242.316406 165.988281 C 241.589844 169.539062 242.019531 173.222656 242.515625 176.773438 C 243.40625 182.957031 244.527344 189.136719 243.902344 195.417969 C 243.503906 199.296875 242.417969 203.078125 241.757812 206.925781 C 241.757812 206.925781 241.757812 206.925781 241.757812 206.957031 C 240.699219 213.007812 240.039062 218.597656 239.675781 222.742188 C 237.863281 220.769531 236.804688 219.058594 236.179688 216.035156 C 233.375 202.453125 236.742188 188.347656 233.671875 174.769531 C 233.109375 172.234375 232.550781 169.804688 232.320312 167.335938 C 231.757812 161.78125 233.308594 156.386719 235.652344 151.355469 C 237.566406 147.378906 240.105469 143.367188 242.878906 139.222656 C 247.925781 131.628906 253.140625 124.195312 258.320312 116.734375 C 260.003906 114.332031 263.535156 113.96875 265.648438 115.976562 C 267.429688 117.585938 267.695312 120.351562 266.175781 122.324219 Z M 266.175781 122.324219 " fill-opacity="1" fill-rule="nonzero"/></g></svg>